<?xml version="1.0" encoding="utf-8"?>
<svg xmlns="http://www.w3.org/2000/svg" xmlns:xlink="http://www.w3.org/1999/xlink" width="1200" height="600" viewBox="0 0 4800 2400">
<defs>
  <clipPath id="clip770">
    <rect x="0" y="0" width="4800" height="2400"/>
  </clipPath>
</defs>
<path clip-path="url(#clip770)" d="M0 2400 L4800 2400 L4800 0 L0 0  Z" fill="#ffffff" fill-rule="evenodd" fill-opacity="1"/>
<defs>
  <clipPath id="clip771">
    <rect x="960" y="0" width="3361" height="2400"/>
  </clipPath>
</defs>
<path clip-path="url(#clip770)" d="M344.814 2146.34 L4752.76 2146.34 L4752.76 47.2441 L344.814 47.2441  Z" fill="#ffffff" fill-rule="evenodd" fill-opacity="1"/>
<defs>
  <clipPath id="clip772">
    <rect x="344" y="47" width="4409" height="2100"/>
  </clipPath>
</defs>
<polyline clip-path="url(#clip772)" style="stroke:#000000; stroke-linecap:round; stroke-linejoin:round; stroke-width:2; stroke-opacity:0.1; fill:none" points="650.369,2146.34 650.369,47.2441 "/>
<polyline clip-path="url(#clip772)" style="stroke:#000000; stroke-linecap:round; stroke-linejoin:round; stroke-width:2; stroke-opacity:0.1; fill:none" points="1283.17,2146.34 1283.17,47.2441 "/>
<polyline clip-path="url(#clip772)" style="stroke:#000000; stroke-linecap:round; stroke-linejoin:round; stroke-width:2; stroke-opacity:0.1; fill:none" points="1915.98,2146.34 1915.98,47.2441 "/>
<polyline clip-path="url(#clip772)" style="stroke:#000000; stroke-linecap:round; stroke-linejoin:round; stroke-width:2; stroke-opacity:0.1; fill:none" points="2548.78,2146.34 2548.78,47.2441 "/>
<polyline clip-path="url(#clip772)" style="stroke:#000000; stroke-linecap:round; stroke-linejoin:round; stroke-width:2; stroke-opacity:0.1; fill:none" points="3181.59,2146.34 3181.59,47.2441 "/>
<polyline clip-path="url(#clip772)" style="stroke:#000000; stroke-linecap:round; stroke-linejoin:round; stroke-width:2; stroke-opacity:0.1; fill:none" points="3814.4,2146.34 3814.4,47.2441 "/>
<polyline clip-path="url(#clip772)" style="stroke:#000000; stroke-linecap:round; stroke-linejoin:round; stroke-width:2; stroke-opacity:0.1; fill:none" points="4447.2,2146.34 4447.2,47.2441 "/>
<polyline clip-path="url(#clip770)" style="stroke:#000000; stroke-linecap:round; stroke-linejoin:round; stroke-width:4; stroke-opacity:1; fill:none" points="344.814,2146.34 4752.76,2146.34 "/>
<polyline clip-path="url(#clip770)" style="stroke:#000000; stroke-linecap:round; stroke-linejoin:round; stroke-width:4; stroke-opacity:1; fill:none" points="650.369,2146.34 650.369,2127.44 "/>
<polyline clip-path="url(#clip770)" style="stroke:#000000; stroke-linecap:round; stroke-linejoin:round; stroke-width:4; stroke-opacity:1; fill:none" points="1283.17,2146.34 1283.17,2127.44 "/>
<polyline clip-path="url(#clip770)" style="stroke:#000000; stroke-linecap:round; stroke-linejoin:round; stroke-width:4; stroke-opacity:1; fill:none" points="1915.98,2146.34 1915.98,2127.44 "/>
<polyline clip-path="url(#clip770)" style="stroke:#000000; stroke-linecap:round; stroke-linejoin:round; stroke-width:4; stroke-opacity:1; fill:none" points="2548.78,2146.34 2548.78,2127.44 "/>
<polyline clip-path="url(#clip770)" style="stroke:#000000; stroke-linecap:round; stroke-linejoin:round; stroke-width:4; stroke-opacity:1; fill:none" points="3181.59,2146.34 3181.59,2127.44 "/>
<polyline clip-path="url(#clip770)" style="stroke:#000000; stroke-linecap:round; stroke-linejoin:round; stroke-width:4; stroke-opacity:1; fill:none" points="3814.4,2146.34 3814.4,2127.44 "/>
<polyline clip-path="url(#clip770)" style="stroke:#000000; stroke-linecap:round; stroke-linejoin:round; stroke-width:4; stroke-opacity:1; fill:none" points="4447.2,2146.34 4447.2,2127.44 "/>
<path clip-path="url(#clip770)" d="M357.824 2202.02 L370.416 2202.02 L401.064 2259.84 L401.064 2202.02 L410.138 2202.02 L410.138 2271.14 L397.546 2271.14 L366.898 2213.31 L366.898 2271.14 L357.824 2271.14 L357.824 2202.02 Z" fill="#000000" fill-rule="nonzero" fill-opacity="1" /><path clip-path="url(#clip770)" d="M448.471 2225.26 Q441.62 2225.26 437.638 2230.63 Q433.657 2235.95 433.657 2245.26 Q433.657 2254.56 437.592 2259.93 Q441.573 2265.26 448.471 2265.26 Q455.277 2265.26 459.258 2259.89 Q463.24 2254.52 463.24 2245.26 Q463.24 2236.04 459.258 2230.67 Q455.277 2225.26 448.471 2225.26 M448.471 2218.03 Q459.583 2218.03 465.925 2225.26 Q472.268 2232.48 472.268 2245.26 Q472.268 2257.99 465.925 2265.26 Q459.583 2272.48 448.471 2272.48 Q437.314 2272.48 430.972 2265.26 Q424.675 2257.99 424.675 2245.26 Q424.675 2232.48 430.972 2225.26 Q437.314 2218.03 448.471 2218.03 Z" fill="#000000" fill-rule="nonzero" fill-opacity="1" /><path clip-path="url(#clip770)" d="M486.388 2219.28 L494.906 2219.28 L494.906 2271.14 L486.388 2271.14 L486.388 2219.28 M486.388 2199.1 L494.906 2199.1 L494.906 2209.89 L486.388 2209.89 L486.388 2199.1 Z" fill="#000000" fill-rule="nonzero" fill-opacity="1" /><path clip-path="url(#clip770)" d="M545.786 2220.81 L545.786 2228.87 Q542.175 2227.02 538.286 2226.09 Q534.397 2225.16 530.23 2225.16 Q523.888 2225.16 520.693 2227.11 Q517.545 2229.05 517.545 2232.94 Q517.545 2235.9 519.814 2237.62 Q522.082 2239.28 528.934 2240.81 L531.851 2241.46 Q540.925 2243.4 544.721 2246.97 Q548.564 2250.49 548.564 2256.83 Q548.564 2264.05 542.823 2268.27 Q537.128 2272.48 527.128 2272.48 Q522.962 2272.48 518.425 2271.65 Q513.934 2270.86 508.934 2269.24 L508.934 2260.44 Q513.656 2262.9 518.24 2264.15 Q522.823 2265.35 527.314 2265.35 Q533.332 2265.35 536.573 2263.31 Q539.814 2261.23 539.814 2257.48 Q539.814 2254.01 537.452 2252.15 Q535.138 2250.3 527.221 2248.59 L524.258 2247.9 Q516.341 2246.23 512.823 2242.8 Q509.304 2239.33 509.304 2233.31 Q509.304 2226 514.49 2222.02 Q519.675 2218.03 529.212 2218.03 Q533.934 2218.03 538.101 2218.73 Q542.267 2219.42 545.786 2220.81 Z" fill="#000000" fill-rule="nonzero" fill-opacity="1" /><path clip-path="url(#clip770)" d="M583.702 2275.95 Q580.091 2285.21 576.665 2288.03 Q573.239 2290.86 567.499 2290.86 L560.693 2290.86 L560.693 2283.73 L565.693 2283.73 Q569.212 2283.73 571.156 2282.06 Q573.1 2280.39 575.462 2274.19 L576.989 2270.3 L556.017 2219.28 L565.045 2219.28 L581.249 2259.84 L597.452 2219.28 L606.48 2219.28 L583.702 2275.95 Z" fill="#000000" fill-rule="nonzero" fill-opacity="1" /><path clip-path="url(#clip770)" d="M676.804 2208.36 Q666.618 2208.36 660.6 2215.95 Q654.628 2223.54 654.628 2236.65 Q654.628 2249.7 660.6 2257.29 Q666.618 2264.89 676.804 2264.89 Q686.989 2264.89 692.915 2257.29 Q698.887 2249.7 698.887 2236.65 Q698.887 2223.54 692.915 2215.95 Q686.989 2208.36 676.804 2208.36 M676.804 2200.77 Q691.341 2200.77 700.044 2210.53 Q708.748 2220.26 708.748 2236.65 Q708.748 2252.99 700.044 2262.76 Q691.341 2272.48 676.804 2272.48 Q662.22 2272.48 653.47 2262.76 Q644.767 2253.03 644.767 2236.65 Q644.767 2220.26 653.47 2210.53 Q662.22 2200.77 676.804 2200.77 Z" fill="#000000" fill-rule="nonzero" fill-opacity="1" /><path clip-path="url(#clip770)" d="M753.053 2227.25 Q751.618 2226.41 749.905 2226.04 Q748.238 2225.63 746.201 2225.63 Q738.979 2225.63 735.09 2230.35 Q731.248 2235.02 731.248 2243.82 L731.248 2271.14 L722.683 2271.14 L722.683 2219.28 L731.248 2219.28 L731.248 2227.34 Q733.933 2222.62 738.238 2220.35 Q742.544 2218.03 748.701 2218.03 Q749.581 2218.03 750.646 2218.17 Q751.711 2218.27 753.007 2218.5 L753.053 2227.25 Z" fill="#000000" fill-rule="nonzero" fill-opacity="1" /><path clip-path="url(#clip770)" d="M785.553 2245.07 Q775.229 2245.07 771.248 2247.43 Q767.266 2249.79 767.266 2255.49 Q767.266 2260.02 770.229 2262.71 Q773.238 2265.35 778.377 2265.35 Q785.46 2265.35 789.72 2260.35 Q794.025 2255.3 794.025 2246.97 L794.025 2245.07 L785.553 2245.07 M802.544 2241.55 L802.544 2271.14 L794.025 2271.14 L794.025 2263.27 Q791.109 2267.99 786.757 2270.26 Q782.405 2272.48 776.109 2272.48 Q768.146 2272.48 763.424 2268.03 Q758.748 2263.54 758.748 2256.04 Q758.748 2247.29 764.581 2242.85 Q770.461 2238.4 782.081 2238.4 L794.025 2238.4 L794.025 2237.57 Q794.025 2231.69 790.136 2228.5 Q786.294 2225.26 779.303 2225.26 Q774.859 2225.26 770.646 2226.32 Q766.433 2227.39 762.544 2229.52 L762.544 2221.65 Q767.22 2219.84 771.618 2218.96 Q776.016 2218.03 780.183 2218.03 Q791.433 2218.03 796.988 2223.87 Q802.544 2229.7 802.544 2241.55 Z" fill="#000000" fill-rule="nonzero" fill-opacity="1" /><path clip-path="url(#clip770)" d="M857.404 2221.27 L857.404 2229.24 Q853.793 2227.25 850.136 2226.27 Q846.525 2225.26 842.821 2225.26 Q834.534 2225.26 829.951 2230.53 Q825.368 2235.77 825.368 2245.26 Q825.368 2254.75 829.951 2260.02 Q834.534 2265.26 842.821 2265.26 Q846.525 2265.26 850.136 2264.28 Q853.793 2263.27 857.404 2261.27 L857.404 2269.15 Q853.84 2270.81 849.997 2271.65 Q846.201 2272.48 841.895 2272.48 Q830.182 2272.48 823.284 2265.12 Q816.386 2257.76 816.386 2245.26 Q816.386 2232.57 823.331 2225.3 Q830.321 2218.03 842.451 2218.03 Q846.386 2218.03 850.136 2218.87 Q853.886 2219.65 857.404 2221.27 Z" fill="#000000" fill-rule="nonzero" fill-opacity="1" /><path clip-path="url(#clip770)" d="M872.219 2199.1 L880.738 2199.1 L880.738 2271.14 L872.219 2271.14 L872.219 2199.1 Z" fill="#000000" fill-rule="nonzero" fill-opacity="1" /><path clip-path="url(#clip770)" d="M942.913 2243.08 L942.913 2247.25 L903.747 2247.25 Q904.302 2256.04 909.025 2260.67 Q913.793 2265.26 922.265 2265.26 Q927.173 2265.26 931.756 2264.05 Q936.386 2262.85 940.923 2260.44 L940.923 2268.5 Q936.339 2270.44 931.524 2271.46 Q926.71 2272.48 921.756 2272.48 Q909.349 2272.48 902.08 2265.26 Q894.858 2258.03 894.858 2245.72 Q894.858 2232.99 901.71 2225.53 Q908.608 2218.03 920.275 2218.03 Q930.737 2218.03 936.802 2224.79 Q942.913 2231.51 942.913 2243.08 M934.395 2240.58 Q934.302 2233.59 930.46 2229.42 Q926.663 2225.26 920.367 2225.26 Q913.238 2225.26 908.932 2229.28 Q904.673 2233.31 904.025 2240.63 L934.395 2240.58 Z" fill="#000000" fill-rule="nonzero" fill-opacity="1" /><path clip-path="url(#clip770)" d="M1169.24 2202.02 L1212.94 2202.02 L1212.94 2209.89 L1178.59 2209.89 L1178.59 2230.35 L1211.51 2230.35 L1211.51 2238.22 L1178.59 2238.22 L1178.59 2263.27 L1213.78 2263.27 L1213.78 2271.14 L1169.24 2271.14 L1169.24 2202.02 Z" fill="#000000" fill-rule="nonzero" fill-opacity="1" /><path clip-path="url(#clip770)" d="M1229.15 2202.02 L1238.5 2202.02 L1238.5 2231.23 L1269.52 2202.02 L1281.55 2202.02 L1247.25 2234.24 L1284.01 2271.14 L1271.69 2271.14 L1238.5 2237.85 L1238.5 2271.14 L1229.15 2271.14 L1229.15 2202.02 Z" fill="#000000" fill-rule="nonzero" fill-opacity="1" /><path clip-path="url(#clip770)" d="M1332.76 2204.28 L1332.76 2213.4 Q1327.43 2210.86 1322.71 2209.61 Q1317.99 2208.36 1313.59 2208.36 Q1305.95 2208.36 1301.79 2211.32 Q1297.66 2214.28 1297.66 2219.75 Q1297.66 2224.33 1300.4 2226.69 Q1303.17 2229.01 1310.86 2230.44 L1316.51 2231.6 Q1326.97 2233.59 1331.92 2238.64 Q1336.92 2243.64 1336.92 2252.06 Q1336.92 2262.11 1330.16 2267.29 Q1323.45 2272.48 1310.44 2272.48 Q1305.53 2272.48 1299.98 2271.37 Q1294.47 2270.26 1288.54 2268.08 L1288.54 2258.45 Q1294.24 2261.65 1299.7 2263.27 Q1305.16 2264.89 1310.44 2264.89 Q1318.45 2264.89 1322.8 2261.74 Q1327.16 2258.59 1327.16 2252.76 Q1327.16 2247.66 1324.01 2244.79 Q1320.91 2241.92 1313.78 2240.49 L1308.08 2239.38 Q1297.62 2237.29 1292.94 2232.85 Q1288.27 2228.4 1288.27 2220.49 Q1288.27 2211.32 1294.7 2206.04 Q1301.18 2200.77 1312.53 2200.77 Q1317.39 2200.77 1322.43 2201.65 Q1327.48 2202.53 1332.76 2204.28 Z" fill="#000000" fill-rule="nonzero" fill-opacity="1" /><path clip-path="url(#clip770)" d="M1392.94 2204.28 L1392.94 2213.4 Q1387.62 2210.86 1382.9 2209.61 Q1378.17 2208.36 1373.78 2208.36 Q1366.14 2208.36 1361.97 2211.32 Q1357.85 2214.28 1357.85 2219.75 Q1357.85 2224.33 1360.58 2226.69 Q1363.36 2229.01 1371.04 2230.44 L1376.69 2231.6 Q1387.15 2233.59 1392.11 2238.64 Q1397.11 2243.64 1397.11 2252.06 Q1397.11 2262.11 1390.35 2267.29 Q1383.64 2272.48 1370.63 2272.48 Q1365.72 2272.48 1360.16 2271.37 Q1354.66 2270.26 1348.73 2268.08 L1348.73 2258.45 Q1354.42 2261.65 1359.89 2263.27 Q1365.35 2264.89 1370.63 2264.89 Q1378.64 2264.89 1382.99 2261.74 Q1387.34 2258.59 1387.34 2252.76 Q1387.34 2247.66 1384.19 2244.79 Q1381.09 2241.92 1373.96 2240.49 L1368.27 2239.38 Q1357.8 2237.29 1353.13 2232.85 Q1348.45 2228.4 1348.45 2220.49 Q1348.45 2211.32 1354.89 2206.04 Q1361.37 2200.77 1372.71 2200.77 Q1377.57 2200.77 1382.62 2201.65 Q1387.66 2202.53 1392.94 2204.28 Z" fill="#000000" fill-rule="nonzero" fill-opacity="1" /><path clip-path="url(#clip770)" d="M1697.25 2211.23 L1684.57 2245.63 L1709.99 2245.63 L1697.25 2211.23 M1691.98 2202.02 L1702.58 2202.02 L1728.92 2271.14 L1719.2 2271.14 L1712.9 2253.4 L1681.74 2253.4 L1675.45 2271.14 L1665.59 2271.14 L1691.98 2202.02 Z" fill="#000000" fill-rule="nonzero" fill-opacity="1" /><path clip-path="url(#clip770)" d="M1739.01 2202.02 L1748.36 2202.02 L1748.36 2263.27 L1782.02 2263.27 L1782.02 2271.14 L1739.01 2271.14 L1739.01 2202.02 Z" fill="#000000" fill-rule="nonzero" fill-opacity="1" /><path clip-path="url(#clip770)" d="M1801.19 2209.7 L1801.19 2235.67 L1812.95 2235.67 Q1819.48 2235.67 1823.04 2232.29 Q1826.6 2228.91 1826.6 2222.66 Q1826.6 2216.46 1823.04 2213.08 Q1819.48 2209.7 1812.95 2209.7 L1801.19 2209.7 M1791.84 2202.02 L1812.95 2202.02 Q1824.57 2202.02 1830.49 2207.29 Q1836.47 2212.52 1836.47 2222.66 Q1836.47 2232.9 1830.49 2238.13 Q1824.57 2243.36 1812.95 2243.36 L1801.19 2243.36 L1801.19 2271.14 L1791.84 2271.14 L1791.84 2202.02 Z" fill="#000000" fill-rule="nonzero" fill-opacity="1" /><path clip-path="url(#clip770)" d="M1900.77 2207.34 L1900.77 2217.2 Q1896.05 2212.8 1890.68 2210.63 Q1885.35 2208.45 1879.34 2208.45 Q1867.48 2208.45 1861.19 2215.72 Q1854.89 2222.94 1854.89 2236.65 Q1854.89 2250.3 1861.19 2257.57 Q1867.48 2264.79 1879.34 2264.79 Q1885.35 2264.79 1890.68 2262.62 Q1896.05 2260.44 1900.77 2256.04 L1900.77 2265.81 Q1895.86 2269.15 1890.35 2270.81 Q1884.89 2272.48 1878.78 2272.48 Q1863.09 2272.48 1854.06 2262.9 Q1845.03 2253.27 1845.03 2236.65 Q1845.03 2219.98 1854.06 2210.4 Q1863.09 2200.77 1878.78 2200.77 Q1884.98 2200.77 1890.45 2202.43 Q1895.96 2204.05 1900.77 2207.34 Z" fill="#000000" fill-rule="nonzero" fill-opacity="1" /><path clip-path="url(#clip770)" d="M1938.32 2211.23 L1925.63 2245.63 L1951.05 2245.63 L1938.32 2211.23 M1933.04 2202.02 L1943.64 2202.02 L1969.98 2271.14 L1960.26 2271.14 L1953.97 2253.4 L1922.81 2253.4 L1916.51 2271.14 L1906.65 2271.14 L1933.04 2202.02 Z" fill="#000000" fill-rule="nonzero" fill-opacity="1" /><path clip-path="url(#clip770)" d="M1980.08 2202.02 L1989.43 2202.02 L1989.43 2230.35 L2023.41 2230.35 L2023.41 2202.02 L2032.76 2202.02 L2032.76 2271.14 L2023.41 2271.14 L2023.41 2238.22 L1989.43 2238.22 L1989.43 2271.14 L1980.08 2271.14 L1980.08 2202.02 Z" fill="#000000" fill-rule="nonzero" fill-opacity="1" /><path clip-path="url(#clip770)" d="M2050.31 2202.02 L2059.71 2202.02 L2059.71 2244.01 Q2059.71 2255.12 2063.73 2260.02 Q2067.76 2264.89 2076.79 2264.89 Q2085.77 2264.89 2089.8 2260.02 Q2093.83 2255.12 2093.83 2244.01 L2093.83 2202.02 L2103.22 2202.02 L2103.22 2245.16 Q2103.22 2258.68 2096.51 2265.58 Q2089.84 2272.48 2076.79 2272.48 Q2063.69 2272.48 2056.97 2265.58 Q2050.31 2258.68 2050.31 2245.16 L2050.31 2202.02 Z" fill="#000000" fill-rule="nonzero" fill-opacity="1" /><path clip-path="url(#clip770)" d="M2162.2 2204.28 L2162.2 2213.4 Q2156.88 2210.86 2152.16 2209.61 Q2147.44 2208.36 2143.04 2208.36 Q2135.4 2208.36 2131.23 2211.32 Q2127.11 2214.28 2127.11 2219.75 Q2127.11 2224.33 2129.84 2226.69 Q2132.62 2229.01 2140.31 2230.44 L2145.96 2231.6 Q2156.42 2233.59 2161.37 2238.64 Q2166.37 2243.64 2166.37 2252.06 Q2166.37 2262.11 2159.61 2267.29 Q2152.9 2272.48 2139.89 2272.48 Q2134.98 2272.48 2129.43 2271.37 Q2123.92 2270.26 2117.99 2268.08 L2117.99 2258.45 Q2123.69 2261.65 2129.15 2263.27 Q2134.61 2264.89 2139.89 2264.89 Q2147.9 2264.89 2152.25 2261.74 Q2156.6 2258.59 2156.6 2252.76 Q2156.6 2247.66 2153.46 2244.79 Q2150.35 2241.92 2143.22 2240.49 L2137.53 2239.38 Q2127.07 2237.29 2122.39 2232.85 Q2117.71 2228.4 2117.71 2220.49 Q2117.71 2211.32 2124.15 2206.04 Q2130.63 2200.77 2141.97 2200.77 Q2146.83 2200.77 2151.88 2201.65 Q2156.93 2202.53 2162.2 2204.28 Z" fill="#000000" fill-rule="nonzero" fill-opacity="1" /><path clip-path="url(#clip770)" d="M2436.86 2202.02 L2480.57 2202.02 L2480.57 2209.89 L2446.22 2209.89 L2446.22 2230.35 L2479.13 2230.35 L2479.13 2238.22 L2446.22 2238.22 L2446.22 2263.27 L2481.4 2263.27 L2481.4 2271.14 L2436.86 2271.14 L2436.86 2202.02 Z" fill="#000000" fill-rule="nonzero" fill-opacity="1" /><path clip-path="url(#clip770)" d="M2496.77 2202.02 L2506.12 2202.02 L2506.12 2231.23 L2537.14 2202.02 L2549.18 2202.02 L2514.87 2234.24 L2551.63 2271.14 L2539.32 2271.14 L2506.12 2237.85 L2506.12 2271.14 L2496.77 2271.14 L2496.77 2202.02 Z" fill="#000000" fill-rule="nonzero" fill-opacity="1" /><path clip-path="url(#clip770)" d="M2600.38 2204.28 L2600.38 2213.4 Q2595.06 2210.86 2590.34 2209.61 Q2585.61 2208.36 2581.22 2208.36 Q2573.58 2208.36 2569.41 2211.32 Q2565.29 2214.28 2565.29 2219.75 Q2565.29 2224.33 2568.02 2226.69 Q2570.8 2229.01 2578.48 2230.44 L2584.13 2231.6 Q2594.59 2233.59 2599.55 2238.64 Q2604.55 2243.64 2604.55 2252.06 Q2604.55 2262.11 2597.79 2267.29 Q2591.08 2272.48 2578.07 2272.48 Q2573.16 2272.48 2567.6 2271.37 Q2562.1 2270.26 2556.17 2268.08 L2556.17 2258.45 Q2561.86 2261.65 2567.33 2263.27 Q2572.79 2264.89 2578.07 2264.89 Q2586.08 2264.89 2590.43 2261.74 Q2594.78 2258.59 2594.78 2252.76 Q2594.78 2247.66 2591.63 2244.79 Q2588.53 2241.92 2581.4 2240.49 L2575.71 2239.38 Q2565.24 2237.29 2560.57 2232.85 Q2555.89 2228.4 2555.89 2220.49 Q2555.89 2211.32 2562.33 2206.04 Q2568.81 2200.77 2580.15 2200.77 Q2585.01 2200.77 2590.06 2201.65 Q2595.1 2202.53 2600.38 2204.28 Z" fill="#000000" fill-rule="nonzero" fill-opacity="1" /><path clip-path="url(#clip770)" d="M2660.57 2204.28 L2660.57 2213.4 Q2655.24 2210.86 2650.52 2209.61 Q2645.8 2208.36 2641.4 2208.36 Q2633.76 2208.36 2629.59 2211.32 Q2625.47 2214.28 2625.47 2219.75 Q2625.47 2224.33 2628.21 2226.69 Q2630.98 2229.01 2638.67 2230.44 L2644.32 2231.6 Q2654.78 2233.59 2659.73 2238.64 Q2664.73 2243.64 2664.73 2252.06 Q2664.73 2262.11 2657.97 2267.29 Q2651.26 2272.48 2638.25 2272.48 Q2633.34 2272.48 2627.79 2271.37 Q2622.28 2270.26 2616.35 2268.08 L2616.35 2258.45 Q2622.05 2261.65 2627.51 2263.27 Q2632.97 2264.89 2638.25 2264.89 Q2646.26 2264.89 2650.61 2261.74 Q2654.96 2258.59 2654.96 2252.76 Q2654.96 2247.66 2651.82 2244.79 Q2648.71 2241.92 2641.59 2240.49 L2635.89 2239.38 Q2625.43 2237.29 2620.75 2232.85 Q2616.08 2228.4 2616.08 2220.49 Q2616.08 2211.32 2622.51 2206.04 Q2628.99 2200.77 2640.34 2200.77 Q2645.2 2200.77 2650.24 2201.65 Q2655.29 2202.53 2660.57 2204.28 Z" fill="#000000" fill-rule="nonzero" fill-opacity="1" /><path clip-path="url(#clip770)" d="M2438.79 2302.87 Q2432.58 2313.52 2429.57 2323.94 Q2426.56 2334.35 2426.56 2345.05 Q2426.56 2355.74 2429.57 2366.25 Q2432.63 2376.71 2438.79 2387.32 L2431.38 2387.32 Q2424.43 2376.44 2420.96 2365.93 Q2417.54 2355.42 2417.54 2345.05 Q2417.54 2334.72 2420.96 2324.26 Q2424.39 2313.8 2431.38 2302.87 L2438.79 2302.87 Z" fill="#000000" fill-rule="nonzero" fill-opacity="1" /><path clip-path="url(#clip770)" d="M2465.04 2341.81 L2465.04 2367.13 L2480.04 2367.13 Q2487.58 2367.13 2491.19 2364.03 Q2494.85 2360.88 2494.85 2354.45 Q2494.85 2347.96 2491.19 2344.91 Q2487.58 2341.81 2480.04 2341.81 L2465.04 2341.81 M2465.04 2313.38 L2465.04 2334.21 L2478.88 2334.21 Q2485.73 2334.21 2489.06 2331.67 Q2492.44 2329.08 2492.44 2323.8 Q2492.44 2318.57 2489.06 2315.97 Q2485.73 2313.38 2478.88 2313.38 L2465.04 2313.38 M2455.68 2305.7 L2479.57 2305.7 Q2490.27 2305.7 2496.05 2310.14 Q2501.84 2314.58 2501.84 2322.78 Q2501.84 2329.12 2498.88 2332.87 Q2495.91 2336.62 2490.17 2337.55 Q2497.07 2339.03 2500.87 2343.75 Q2504.71 2348.43 2504.71 2355.46 Q2504.71 2364.72 2498.41 2369.77 Q2492.12 2374.82 2480.5 2374.82 L2455.68 2374.82 L2455.68 2305.7 Z" fill="#000000" fill-rule="nonzero" fill-opacity="1" /><path clip-path="url(#clip770)" d="M2521.47 2331.76 L2580.82 2331.76 L2580.82 2339.54 L2521.47 2339.54 L2521.47 2331.76 M2521.47 2350.65 L2580.82 2350.65 L2580.82 2358.52 L2521.47 2358.52 L2521.47 2350.65 Z" fill="#000000" fill-rule="nonzero" fill-opacity="1" /><path clip-path="url(#clip770)" d="M2602.63 2366.95 L2617.9 2366.95 L2617.9 2314.21 L2601.28 2317.55 L2601.28 2309.03 L2617.81 2305.7 L2627.16 2305.7 L2627.16 2366.95 L2642.44 2366.95 L2642.44 2374.82 L2602.63 2374.82 L2602.63 2366.95 Z" fill="#000000" fill-rule="nonzero" fill-opacity="1" /><path clip-path="url(#clip770)" d="M2658.78 2302.87 L2666.19 2302.87 Q2673.14 2313.8 2676.56 2324.26 Q2680.03 2334.72 2680.03 2345.05 Q2680.03 2355.42 2676.56 2365.93 Q2673.14 2376.44 2666.19 2387.32 L2658.78 2387.32 Q2664.94 2376.71 2667.95 2366.25 Q2671.01 2355.74 2671.01 2345.05 Q2671.01 2334.35 2667.95 2323.94 Q2664.94 2313.52 2658.78 2302.87 Z" fill="#000000" fill-rule="nonzero" fill-opacity="1" /><path clip-path="url(#clip770)" d="M2960.6 2211.23 L2947.91 2245.63 L2973.33 2245.63 L2960.6 2211.23 M2955.32 2202.02 L2965.92 2202.02 L2992.26 2271.14 L2982.54 2271.14 L2976.24 2253.4 L2945.09 2253.4 L2938.79 2271.14 L2928.93 2271.14 L2955.32 2202.02 Z" fill="#000000" fill-rule="nonzero" fill-opacity="1" /><path clip-path="url(#clip770)" d="M3002.36 2202.02 L3011.71 2202.02 L3011.71 2263.27 L3045.36 2263.27 L3045.36 2271.14 L3002.36 2271.14 L3002.36 2202.02 Z" fill="#000000" fill-rule="nonzero" fill-opacity="1" /><path clip-path="url(#clip770)" d="M3064.53 2209.7 L3064.53 2235.67 L3076.29 2235.67 Q3082.82 2235.67 3086.38 2232.29 Q3089.95 2228.91 3089.95 2222.66 Q3089.95 2216.46 3086.38 2213.08 Q3082.82 2209.7 3076.29 2209.7 L3064.53 2209.7 M3055.18 2202.02 L3076.29 2202.02 Q3087.91 2202.02 3093.84 2207.29 Q3099.81 2212.52 3099.81 2222.66 Q3099.81 2232.9 3093.84 2238.13 Q3087.91 2243.36 3076.29 2243.36 L3064.53 2243.36 L3064.53 2271.14 L3055.18 2271.14 L3055.18 2202.02 Z" fill="#000000" fill-rule="nonzero" fill-opacity="1" /><path clip-path="url(#clip770)" d="M3164.11 2207.34 L3164.11 2217.2 Q3159.39 2212.8 3154.02 2210.63 Q3148.7 2208.45 3142.68 2208.45 Q3130.83 2208.45 3124.53 2215.72 Q3118.23 2222.94 3118.23 2236.65 Q3118.23 2250.3 3124.53 2257.57 Q3130.83 2264.79 3142.68 2264.79 Q3148.7 2264.79 3154.02 2262.62 Q3159.39 2260.44 3164.11 2256.04 L3164.11 2265.81 Q3159.21 2269.15 3153.7 2270.81 Q3148.23 2272.48 3142.12 2272.48 Q3126.43 2272.48 3117.4 2262.9 Q3108.37 2253.27 3108.37 2236.65 Q3108.37 2219.98 3117.4 2210.4 Q3126.43 2200.77 3142.12 2200.77 Q3148.33 2200.77 3153.79 2202.43 Q3159.3 2204.05 3164.11 2207.34 Z" fill="#000000" fill-rule="nonzero" fill-opacity="1" /><path clip-path="url(#clip770)" d="M3201.66 2211.23 L3188.97 2245.63 L3214.39 2245.63 L3201.66 2211.23 M3196.38 2202.02 L3206.98 2202.02 L3233.33 2271.14 L3223.6 2271.14 L3217.31 2253.4 L3186.15 2253.4 L3179.85 2271.14 L3169.99 2271.14 L3196.38 2202.02 Z" fill="#000000" fill-rule="nonzero" fill-opacity="1" /><path clip-path="url(#clip770)" d="M3243.42 2202.02 L3252.77 2202.02 L3252.77 2230.35 L3286.75 2230.35 L3286.75 2202.02 L3296.1 2202.02 L3296.1 2271.14 L3286.75 2271.14 L3286.75 2238.22 L3252.77 2238.22 L3252.77 2271.14 L3243.42 2271.14 L3243.42 2202.02 Z" fill="#000000" fill-rule="nonzero" fill-opacity="1" /><path clip-path="url(#clip770)" d="M3313.65 2202.02 L3323.05 2202.02 L3323.05 2244.01 Q3323.05 2255.12 3327.08 2260.02 Q3331.1 2264.89 3340.13 2264.89 Q3349.11 2264.89 3353.14 2260.02 Q3357.17 2255.12 3357.17 2244.01 L3357.17 2202.02 L3366.57 2202.02 L3366.57 2245.16 Q3366.57 2258.68 3359.85 2265.58 Q3353.19 2272.48 3340.13 2272.48 Q3327.03 2272.48 3320.32 2265.58 Q3313.65 2258.68 3313.65 2245.16 L3313.65 2202.02 Z" fill="#000000" fill-rule="nonzero" fill-opacity="1" /><path clip-path="url(#clip770)" d="M3425.55 2204.28 L3425.55 2213.4 Q3420.22 2210.86 3415.5 2209.61 Q3410.78 2208.36 3406.38 2208.36 Q3398.74 2208.36 3394.58 2211.32 Q3390.45 2214.28 3390.45 2219.75 Q3390.45 2224.33 3393.19 2226.69 Q3395.96 2229.01 3403.65 2230.44 L3409.3 2231.6 Q3419.76 2233.59 3424.71 2238.64 Q3429.71 2243.64 3429.71 2252.06 Q3429.71 2262.11 3422.95 2267.29 Q3416.24 2272.48 3403.23 2272.48 Q3398.33 2272.48 3392.77 2271.37 Q3387.26 2270.26 3381.33 2268.08 L3381.33 2258.45 Q3387.03 2261.65 3392.49 2263.27 Q3397.95 2264.89 3403.23 2264.89 Q3411.24 2264.89 3415.59 2261.74 Q3419.95 2258.59 3419.95 2252.76 Q3419.95 2247.66 3416.8 2244.79 Q3413.7 2241.92 3406.57 2240.49 L3400.87 2239.38 Q3390.41 2237.29 3385.73 2232.85 Q3381.06 2228.4 3381.06 2220.49 Q3381.06 2211.32 3387.49 2206.04 Q3393.97 2200.77 3405.32 2200.77 Q3410.18 2200.77 3415.22 2201.65 Q3420.27 2202.53 3425.55 2204.28 Z" fill="#000000" fill-rule="nonzero" fill-opacity="1" /><path clip-path="url(#clip770)" d="M3071.59 2302.87 Q3065.39 2313.52 3062.38 2323.94 Q3059.37 2334.35 3059.37 2345.05 Q3059.37 2355.74 3062.38 2366.25 Q3065.43 2376.71 3071.59 2387.32 L3064.18 2387.32 Q3057.24 2376.44 3053.77 2365.93 Q3050.34 2355.42 3050.34 2345.05 Q3050.34 2334.72 3053.77 2324.26 Q3057.19 2313.8 3064.18 2302.87 L3071.59 2302.87 Z" fill="#000000" fill-rule="nonzero" fill-opacity="1" /><path clip-path="url(#clip770)" d="M3097.84 2341.81 L3097.84 2367.13 L3112.84 2367.13 Q3120.39 2367.13 3124 2364.03 Q3127.66 2360.88 3127.66 2354.45 Q3127.66 2347.96 3124 2344.91 Q3120.39 2341.81 3112.84 2341.81 L3097.84 2341.81 M3097.84 2313.38 L3097.84 2334.21 L3111.68 2334.21 Q3118.54 2334.21 3121.87 2331.67 Q3125.25 2329.08 3125.25 2323.8 Q3125.25 2318.57 3121.87 2315.97 Q3118.54 2313.38 3111.68 2313.38 L3097.84 2313.38 M3088.49 2305.7 L3112.38 2305.7 Q3123.07 2305.7 3128.86 2310.14 Q3134.65 2314.58 3134.65 2322.78 Q3134.65 2329.12 3131.68 2332.87 Q3128.72 2336.62 3122.98 2337.55 Q3129.88 2339.03 3133.67 2343.75 Q3137.52 2348.43 3137.52 2355.46 Q3137.52 2364.72 3131.22 2369.77 Q3124.92 2374.82 3113.3 2374.82 L3088.49 2374.82 L3088.49 2305.7 Z" fill="#000000" fill-rule="nonzero" fill-opacity="1" /><path clip-path="url(#clip770)" d="M3154.28 2331.76 L3213.63 2331.76 L3213.63 2339.54 L3154.28 2339.54 L3154.28 2331.76 M3154.28 2350.65 L3213.63 2350.65 L3213.63 2358.52 L3154.28 2358.52 L3154.28 2350.65 Z" fill="#000000" fill-rule="nonzero" fill-opacity="1" /><path clip-path="url(#clip770)" d="M3235.43 2366.95 L3250.71 2366.95 L3250.71 2314.21 L3234.09 2317.55 L3234.09 2309.03 L3250.62 2305.7 L3259.97 2305.7 L3259.97 2366.95 L3275.25 2366.95 L3275.25 2374.82 L3235.43 2374.82 L3235.43 2366.95 Z" fill="#000000" fill-rule="nonzero" fill-opacity="1" /><path clip-path="url(#clip770)" d="M3291.59 2302.87 L3299 2302.87 Q3305.94 2313.8 3309.37 2324.26 Q3312.84 2334.72 3312.84 2345.05 Q3312.84 2355.42 3309.37 2365.93 Q3305.94 2376.44 3299 2387.32 L3291.59 2387.32 Q3297.75 2376.71 3300.76 2366.25 Q3303.81 2355.74 3303.81 2345.05 Q3303.81 2334.35 3300.76 2323.94 Q3297.75 2313.52 3291.59 2302.87 Z" fill="#000000" fill-rule="nonzero" fill-opacity="1" /><path clip-path="url(#clip770)" d="M3686.78 2211.23 L3674.1 2245.63 L3699.51 2245.63 L3686.78 2211.23 M3681.5 2202.02 L3692.1 2202.02 L3718.45 2271.14 L3708.73 2271.14 L3702.43 2253.4 L3671.27 2253.4 L3664.98 2271.14 L3655.11 2271.14 L3681.5 2202.02 Z" fill="#000000" fill-rule="nonzero" fill-opacity="1" /><path clip-path="url(#clip770)" d="M3737.89 2209.7 L3737.89 2263.45 L3749.19 2263.45 Q3763.49 2263.45 3770.11 2256.97 Q3776.78 2250.49 3776.78 2236.51 Q3776.78 2222.62 3770.11 2216.18 Q3763.49 2209.7 3749.19 2209.7 L3737.89 2209.7 M3728.54 2202.02 L3747.75 2202.02 Q3767.85 2202.02 3777.24 2210.4 Q3786.64 2218.73 3786.64 2236.51 Q3786.64 2254.38 3777.2 2262.76 Q3767.75 2271.14 3747.75 2271.14 L3728.54 2271.14 L3728.54 2202.02 Z" fill="#000000" fill-rule="nonzero" fill-opacity="1" /><path clip-path="url(#clip770)" d="M3842.98 2204.28 L3842.98 2213.4 Q3837.66 2210.86 3832.94 2209.61 Q3828.22 2208.36 3823.82 2208.36 Q3816.18 2208.36 3812.01 2211.32 Q3807.89 2214.28 3807.89 2219.75 Q3807.89 2224.33 3810.62 2226.69 Q3813.4 2229.01 3821.09 2230.44 L3826.73 2231.6 Q3837.2 2233.59 3842.15 2238.64 Q3847.15 2243.64 3847.15 2252.06 Q3847.15 2262.11 3840.39 2267.29 Q3833.68 2272.48 3820.67 2272.48 Q3815.76 2272.48 3810.21 2271.37 Q3804.7 2270.26 3798.77 2268.08 L3798.77 2258.45 Q3804.47 2261.65 3809.93 2263.27 Q3815.39 2264.89 3820.67 2264.89 Q3828.68 2264.89 3833.03 2261.74 Q3837.38 2258.59 3837.38 2252.76 Q3837.38 2247.66 3834.23 2244.79 Q3831.13 2241.92 3824 2240.49 L3818.31 2239.38 Q3807.84 2237.29 3803.17 2232.85 Q3798.49 2228.4 3798.49 2220.49 Q3798.49 2211.32 3804.93 2206.04 Q3811.41 2200.77 3822.75 2200.77 Q3827.61 2200.77 3832.66 2201.65 Q3837.71 2202.53 3842.98 2204.28 Z" fill="#000000" fill-rule="nonzero" fill-opacity="1" /><path clip-path="url(#clip770)" d="M3903.17 2204.28 L3903.17 2213.4 Q3897.84 2210.86 3893.12 2209.61 Q3888.4 2208.36 3884 2208.36 Q3876.36 2208.36 3872.2 2211.32 Q3868.08 2214.28 3868.08 2219.75 Q3868.08 2224.33 3870.81 2226.69 Q3873.59 2229.01 3881.27 2230.44 L3886.92 2231.6 Q3897.38 2233.59 3902.34 2238.64 Q3907.34 2243.64 3907.34 2252.06 Q3907.34 2262.11 3900.58 2267.29 Q3893.86 2272.48 3880.85 2272.48 Q3875.95 2272.48 3870.39 2271.37 Q3864.88 2270.26 3858.96 2268.08 L3858.96 2258.45 Q3864.65 2261.65 3870.11 2263.27 Q3875.58 2264.89 3880.85 2264.89 Q3888.86 2264.89 3893.21 2261.74 Q3897.57 2258.59 3897.57 2252.76 Q3897.57 2247.66 3894.42 2244.79 Q3891.32 2241.92 3884.19 2240.49 L3878.49 2239.38 Q3868.03 2237.29 3863.35 2232.85 Q3858.68 2228.4 3858.68 2220.49 Q3858.68 2211.32 3865.11 2206.04 Q3871.59 2200.77 3882.94 2200.77 Q3887.8 2200.77 3892.84 2201.65 Q3897.89 2202.53 3903.17 2204.28 Z" fill="#000000" fill-rule="nonzero" fill-opacity="1" /><path clip-path="url(#clip770)" d="M3973.68 2207.34 L3973.68 2217.2 Q3968.96 2212.8 3963.58 2210.63 Q3958.26 2208.45 3952.24 2208.45 Q3940.39 2208.45 3934.09 2215.72 Q3927.8 2222.94 3927.8 2236.65 Q3927.8 2250.3 3934.09 2257.57 Q3940.39 2264.79 3952.24 2264.79 Q3958.26 2264.79 3963.58 2262.62 Q3968.96 2260.44 3973.68 2256.04 L3973.68 2265.81 Q3968.77 2269.15 3963.26 2270.81 Q3957.8 2272.48 3951.69 2272.48 Q3935.99 2272.48 3926.96 2262.9 Q3917.94 2253.27 3917.94 2236.65 Q3917.94 2219.98 3926.96 2210.4 Q3935.99 2200.77 3951.69 2200.77 Q3957.89 2200.77 3963.35 2202.43 Q3968.86 2204.05 3973.68 2207.34 Z" fill="#000000" fill-rule="nonzero" fill-opacity="1" /><path clip-path="url(#clip770)" d="M4357.48 2202.02 L4415.95 2202.02 L4415.95 2209.89 L4391.41 2209.89 L4391.41 2271.14 L4382.02 2271.14 L4382.02 2209.89 L4357.48 2209.89 L4357.48 2202.02 Z" fill="#000000" fill-rule="nonzero" fill-opacity="1" /><path clip-path="url(#clip770)" d="M4466.41 2204.28 L4466.41 2213.4 Q4461.09 2210.86 4456.37 2209.61 Q4451.65 2208.36 4447.25 2208.36 Q4439.61 2208.36 4435.44 2211.32 Q4431.32 2214.28 4431.32 2219.75 Q4431.32 2224.33 4434.05 2226.69 Q4436.83 2229.01 4444.52 2230.44 L4450.16 2231.6 Q4460.63 2233.59 4465.58 2238.64 Q4470.58 2243.64 4470.58 2252.06 Q4470.58 2262.11 4463.82 2267.29 Q4457.11 2272.48 4444.1 2272.48 Q4439.19 2272.48 4433.64 2271.37 Q4428.13 2270.26 4422.2 2268.08 L4422.2 2258.45 Q4427.9 2261.65 4433.36 2263.27 Q4438.82 2264.89 4444.1 2264.89 Q4452.11 2264.89 4456.46 2261.74 Q4460.81 2258.59 4460.81 2252.76 Q4460.81 2247.66 4457.66 2244.79 Q4454.56 2241.92 4447.43 2240.49 L4441.74 2239.38 Q4431.28 2237.29 4426.6 2232.85 Q4421.92 2228.4 4421.92 2220.49 Q4421.92 2211.32 4428.36 2206.04 Q4434.84 2200.77 4446.18 2200.77 Q4451.04 2200.77 4456.09 2201.65 Q4461.14 2202.53 4466.41 2204.28 Z" fill="#000000" fill-rule="nonzero" fill-opacity="1" /><path clip-path="url(#clip770)" d="M4536.92 2207.34 L4536.92 2217.2 Q4532.2 2212.8 4526.83 2210.63 Q4521.51 2208.45 4515.49 2208.45 Q4503.64 2208.45 4497.34 2215.72 Q4491.04 2222.94 4491.04 2236.65 Q4491.04 2250.3 4497.34 2257.57 Q4503.64 2264.79 4515.49 2264.79 Q4521.51 2264.79 4526.83 2262.62 Q4532.2 2260.44 4536.92 2256.04 L4536.92 2265.81 Q4532.02 2269.15 4526.51 2270.81 Q4521.04 2272.48 4514.93 2272.48 Q4499.24 2272.48 4490.21 2262.9 Q4481.18 2253.27 4481.18 2236.65 Q4481.18 2219.98 4490.21 2210.4 Q4499.24 2200.77 4514.93 2200.77 Q4521.14 2200.77 4526.6 2202.43 Q4532.11 2204.05 4536.92 2207.34 Z" fill="#000000" fill-rule="nonzero" fill-opacity="1" /><polyline clip-path="url(#clip772)" style="stroke:#000000; stroke-linecap:round; stroke-linejoin:round; stroke-width:2; stroke-opacity:0.1; fill:none" points="344.814,2146.34 4752.76,2146.34 "/>
<polyline clip-path="url(#clip772)" style="stroke:#000000; stroke-linecap:round; stroke-linejoin:round; stroke-width:2; stroke-opacity:0.1; fill:none" points="344.814,1734.75 4752.76,1734.75 "/>
<polyline clip-path="url(#clip772)" style="stroke:#000000; stroke-linecap:round; stroke-linejoin:round; stroke-width:2; stroke-opacity:0.1; fill:none" points="344.814,1323.16 4752.76,1323.16 "/>
<polyline clip-path="url(#clip772)" style="stroke:#000000; stroke-linecap:round; stroke-linejoin:round; stroke-width:2; stroke-opacity:0.1; fill:none" points="344.814,911.576 4752.76,911.576 "/>
<polyline clip-path="url(#clip772)" style="stroke:#000000; stroke-linecap:round; stroke-linejoin:round; stroke-width:2; stroke-opacity:0.1; fill:none" points="344.814,499.989 4752.76,499.989 "/>
<polyline clip-path="url(#clip772)" style="stroke:#000000; stroke-linecap:round; stroke-linejoin:round; stroke-width:2; stroke-opacity:0.1; fill:none" points="344.814,88.4028 4752.76,88.4028 "/>
<polyline clip-path="url(#clip770)" style="stroke:#000000; stroke-linecap:round; stroke-linejoin:round; stroke-width:4; stroke-opacity:1; fill:none" points="344.814,2146.34 344.814,47.2441 "/>
<polyline clip-path="url(#clip770)" style="stroke:#000000; stroke-linecap:round; stroke-linejoin:round; stroke-width:4; stroke-opacity:1; fill:none" points="344.814,2146.34 363.712,2146.34 "/>
<polyline clip-path="url(#clip770)" style="stroke:#000000; stroke-linecap:round; stroke-linejoin:round; stroke-width:4; stroke-opacity:1; fill:none" points="344.814,1734.75 363.712,1734.75 "/>
<polyline clip-path="url(#clip770)" style="stroke:#000000; stroke-linecap:round; stroke-linejoin:round; stroke-width:4; stroke-opacity:1; fill:none" points="344.814,1323.16 363.712,1323.16 "/>
<polyline clip-path="url(#clip770)" style="stroke:#000000; stroke-linecap:round; stroke-linejoin:round; stroke-width:4; stroke-opacity:1; fill:none" points="344.814,911.576 363.712,911.576 "/>
<polyline clip-path="url(#clip770)" style="stroke:#000000; stroke-linecap:round; stroke-linejoin:round; stroke-width:4; stroke-opacity:1; fill:none" points="344.814,499.989 363.712,499.989 "/>
<polyline clip-path="url(#clip770)" style="stroke:#000000; stroke-linecap:round; stroke-linejoin:round; stroke-width:4; stroke-opacity:1; fill:none" points="344.814,88.4028 363.712,88.4028 "/>
<path clip-path="url(#clip770)" d="M248.925 2117.93 Q241.703 2117.93 238.046 2125.06 Q234.434 2132.15 234.434 2146.41 Q234.434 2160.62 238.046 2167.75 Q241.703 2174.83 248.925 2174.83 Q256.194 2174.83 259.805 2167.75 Q263.462 2160.62 263.462 2146.41 Q263.462 2132.15 259.805 2125.06 Q256.194 2117.93 248.925 2117.93 M248.925 2110.53 Q260.545 2110.53 266.657 2119.74 Q272.814 2128.91 272.814 2146.41 Q272.814 2163.86 266.657 2173.07 Q260.545 2182.24 248.925 2182.24 Q237.305 2182.24 231.147 2173.07 Q225.036 2163.86 225.036 2146.41 Q225.036 2128.91 231.147 2119.74 Q237.305 2110.53 248.925 2110.53 Z" fill="#000000" fill-rule="nonzero" fill-opacity="1" /><path clip-path="url(#clip770)" d="M170.222 1761.44 L185.5 1761.44 L185.5 1708.71 L168.879 1712.04 L168.879 1703.52 L185.407 1700.19 L194.759 1700.19 L194.759 1761.44 L210.036 1761.44 L210.036 1769.31 L170.222 1769.31 L170.222 1761.44 Z" fill="#000000" fill-rule="nonzero" fill-opacity="1" /><path clip-path="url(#clip770)" d="M248.925 1706.35 Q241.703 1706.35 238.046 1713.48 Q234.434 1720.56 234.434 1734.82 Q234.434 1749.03 238.046 1756.16 Q241.703 1763.24 248.925 1763.24 Q256.194 1763.24 259.805 1756.16 Q263.462 1749.03 263.462 1734.82 Q263.462 1720.56 259.805 1713.48 Q256.194 1706.35 248.925 1706.35 M248.925 1698.94 Q260.545 1698.94 266.657 1708.15 Q272.814 1717.32 272.814 1734.82 Q272.814 1752.27 266.657 1761.49 Q260.545 1770.65 248.925 1770.65 Q237.305 1770.65 231.147 1761.49 Q225.036 1752.27 225.036 1734.82 Q225.036 1717.32 231.147 1708.15 Q237.305 1698.94 248.925 1698.94 Z" fill="#000000" fill-rule="nonzero" fill-opacity="1" /><path clip-path="url(#clip770)" d="M176.657 1349.85 L209.296 1349.85 L209.296 1357.72 L165.407 1357.72 L165.407 1349.85 Q170.731 1344.34 179.898 1335.08 Q189.111 1325.78 191.472 1323.09 Q195.962 1318.05 197.722 1314.57 Q199.527 1311.06 199.527 1307.68 Q199.527 1302.17 195.638 1298.7 Q191.796 1295.22 185.592 1295.22 Q181.194 1295.22 176.287 1296.75 Q171.426 1298.28 165.87 1301.38 L165.87 1291.94 Q171.518 1289.67 176.426 1288.51 Q181.333 1287.35 185.407 1287.35 Q196.148 1287.35 202.537 1292.72 Q208.925 1298.09 208.925 1307.07 Q208.925 1311.33 207.305 1315.18 Q205.731 1318.97 201.518 1324.16 Q200.361 1325.5 194.157 1331.94 Q187.953 1338.32 176.657 1349.85 Z" fill="#000000" fill-rule="nonzero" fill-opacity="1" /><path clip-path="url(#clip770)" d="M248.925 1294.76 Q241.703 1294.76 238.046 1301.89 Q234.434 1308.97 234.434 1323.23 Q234.434 1337.44 238.046 1344.57 Q241.703 1351.66 248.925 1351.66 Q256.194 1351.66 259.805 1344.57 Q263.462 1337.44 263.462 1323.23 Q263.462 1308.97 259.805 1301.89 Q256.194 1294.76 248.925 1294.76 M248.925 1287.35 Q260.545 1287.35 266.657 1296.57 Q272.814 1305.73 272.814 1323.23 Q272.814 1340.69 266.657 1349.9 Q260.545 1359.07 248.925 1359.07 Q237.305 1359.07 231.147 1349.9 Q225.036 1340.69 225.036 1323.23 Q225.036 1305.73 231.147 1296.57 Q237.305 1287.35 248.925 1287.35 Z" fill="#000000" fill-rule="nonzero" fill-opacity="1" /><path clip-path="url(#clip770)" d="M196.935 908.868 Q203.648 910.303 207.398 914.84 Q211.194 919.377 211.194 926.043 Q211.194 936.275 204.157 941.877 Q197.12 947.479 184.157 947.479 Q179.805 947.479 175.176 946.599 Q170.592 945.766 165.685 944.053 L165.685 935.025 Q169.574 937.293 174.203 938.451 Q178.833 939.608 183.879 939.608 Q192.675 939.608 197.259 936.136 Q201.888 932.664 201.888 926.043 Q201.888 919.932 197.583 916.506 Q193.324 913.034 185.685 913.034 L177.629 913.034 L177.629 905.349 L186.055 905.349 Q192.953 905.349 196.611 902.618 Q200.268 899.84 200.268 894.655 Q200.268 889.331 196.472 886.507 Q192.722 883.636 185.685 883.636 Q181.842 883.636 177.444 884.47 Q173.046 885.303 167.768 887.062 L167.768 878.729 Q173.092 877.247 177.722 876.507 Q182.398 875.766 186.518 875.766 Q197.166 875.766 203.37 880.627 Q209.574 885.442 209.574 893.683 Q209.574 899.423 206.286 903.405 Q202.999 907.34 196.935 908.868 Z" fill="#000000" fill-rule="nonzero" fill-opacity="1" /><path clip-path="url(#clip770)" d="M248.925 883.173 Q241.703 883.173 238.046 890.303 Q234.434 897.386 234.434 911.645 Q234.434 925.858 238.046 932.988 Q241.703 940.071 248.925 940.071 Q256.194 940.071 259.805 932.988 Q263.462 925.858 263.462 911.645 Q263.462 897.386 259.805 890.303 Q256.194 883.173 248.925 883.173 M248.925 875.766 Q260.545 875.766 266.657 884.979 Q272.814 894.145 272.814 911.645 Q272.814 929.099 266.657 938.312 Q260.545 947.479 248.925 947.479 Q237.305 947.479 231.147 938.312 Q225.036 929.099 225.036 911.645 Q225.036 894.145 231.147 884.979 Q237.305 875.766 248.925 875.766 Z" fill="#000000" fill-rule="nonzero" fill-opacity="1" /><path clip-path="url(#clip770)" d="M194.296 473.577 L170.685 510.475 L194.296 510.475 L194.296 473.577 M191.842 465.429 L203.601 465.429 L203.601 510.475 L213.462 510.475 L213.462 518.253 L203.601 518.253 L203.601 534.549 L194.296 534.549 L194.296 518.253 L163.092 518.253 L163.092 509.225 L191.842 465.429 Z" fill="#000000" fill-rule="nonzero" fill-opacity="1" /><path clip-path="url(#clip770)" d="M248.925 471.587 Q241.703 471.587 238.046 478.716 Q234.434 485.8 234.434 500.059 Q234.434 514.272 238.046 521.401 Q241.703 528.485 248.925 528.485 Q256.194 528.485 259.805 521.401 Q263.462 514.272 263.462 500.059 Q263.462 485.8 259.805 478.716 Q256.194 471.587 248.925 471.587 M248.925 464.179 Q260.545 464.179 266.657 473.392 Q272.814 482.559 272.814 500.059 Q272.814 517.512 266.657 526.725 Q260.545 535.892 248.925 535.892 Q237.305 535.892 231.147 526.725 Q225.036 517.512 225.036 500.059 Q225.036 482.559 231.147 473.392 Q237.305 464.179 248.925 464.179 Z" fill="#000000" fill-rule="nonzero" fill-opacity="1" /><path clip-path="url(#clip770)" d="M168.694 53.8428 L205.407 53.8428 L205.407 61.7131 L177.259 61.7131 L177.259 78.6574 Q179.296 77.963 181.333 77.6389 Q183.37 77.2686 185.407 77.2686 Q196.981 77.2686 203.74 83.6111 Q210.499 89.9537 210.499 100.787 Q210.499 111.944 203.555 118.148 Q196.611 124.305 183.972 124.305 Q179.62 124.305 175.083 123.565 Q170.592 122.824 165.777 121.342 L165.777 111.944 Q169.944 114.213 174.389 115.324 Q178.833 116.435 183.787 116.435 Q191.796 116.435 196.472 112.222 Q201.148 108.009 201.148 100.787 Q201.148 93.5648 196.472 89.3518 Q191.796 85.1389 183.787 85.1389 Q180.037 85.1389 176.287 85.9722 Q172.583 86.8055 168.694 88.5648 L168.694 53.8428 Z" fill="#000000" fill-rule="nonzero" fill-opacity="1" /><path clip-path="url(#clip770)" d="M248.925 60.0001 Q241.703 60.0001 238.046 67.1297 Q234.434 74.213 234.434 88.4722 Q234.434 102.685 238.046 109.815 Q241.703 116.898 248.925 116.898 Q256.194 116.898 259.805 109.815 Q263.462 102.685 263.462 88.4722 Q263.462 74.213 259.805 67.1297 Q256.194 60.0001 248.925 60.0001 M248.925 52.5928 Q260.545 52.5928 266.657 61.8057 Q272.814 70.9723 272.814 88.4722 Q272.814 105.926 266.657 115.139 Q260.545 124.305 248.925 124.305 Q237.305 124.305 231.147 115.139 Q225.036 105.926 225.036 88.4722 Q225.036 70.9723 231.147 61.8057 Q237.305 52.5928 248.925 52.5928 Z" fill="#000000" fill-rule="nonzero" fill-opacity="1" /><path clip-path="url(#clip770)" d="M17.1268 1452.76 L25.7552 1452.76 Q21.9069 1456.9 20.003 1461.59 Q18.099 1466.25 18.099 1471.52 Q18.099 1481.89 24.459 1487.4 Q30.7784 1492.91 42.769 1492.91 Q54.7192 1492.91 61.0791 1487.4 Q67.3985 1481.89 67.3985 1471.52 Q67.3985 1466.25 65.4946 1461.59 Q63.5907 1456.9 59.7423 1452.76 L68.2897 1452.76 Q71.2064 1457.06 72.6647 1461.88 Q74.123 1466.66 74.123 1472 Q74.123 1485.74 65.7377 1493.64 Q57.3118 1501.54 42.769 1501.54 Q28.1858 1501.54 19.8004 1493.64 Q11.3745 1485.74 11.3745 1472 Q11.3745 1466.58 12.8329 1461.8 Q14.2507 1456.98 17.1268 1452.76 Z" fill="#000000" fill-rule="nonzero" fill-opacity="1" /><path clip-path="url(#clip770)" d="M9.91621 1440.45 L9.91621 1432.99 L72.9483 1432.99 L72.9483 1440.45 L9.91621 1440.45 Z" fill="#000000" fill-rule="nonzero" fill-opacity="1" /><path clip-path="url(#clip770)" d="M55.0433 1418.17 L27.5782 1418.17 L27.5782 1410.71 L54.7597 1410.71 Q61.2007 1410.71 64.4414 1408.2 Q67.6416 1405.69 67.6416 1400.67 Q67.6416 1394.63 63.7932 1391.15 Q59.9449 1387.62 53.3014 1387.62 L27.5782 1387.62 L27.5782 1380.17 L72.9483 1380.17 L72.9483 1387.62 L65.9807 1387.62 Q70.1127 1390.34 72.1381 1393.94 Q74.123 1397.51 74.123 1402.25 Q74.123 1410.07 69.262 1414.12 Q64.4009 1418.17 55.0433 1418.17 M26.4844 1399.41 L26.4844 1399.41 Z" fill="#000000" fill-rule="nonzero" fill-opacity="1" /><path clip-path="url(#clip770)" d="M28.915 1335.89 L35.9635 1335.89 Q34.3432 1339.05 33.533 1342.46 Q32.7228 1345.86 32.7228 1349.51 Q32.7228 1355.06 34.4242 1357.85 Q36.1256 1360.61 39.5283 1360.61 Q42.1209 1360.61 43.6197 1358.62 Q45.0781 1356.64 46.4149 1350.64 L46.982 1348.09 Q48.6834 1340.15 51.8026 1336.83 Q54.8813 1333.46 60.431 1333.46 Q66.7504 1333.46 70.4367 1338.49 Q74.123 1343.47 74.123 1352.22 Q74.123 1355.87 73.3939 1359.84 Q72.7052 1363.76 71.2874 1368.14 L63.5907 1368.14 Q65.7377 1364.01 66.8314 1360 Q67.8847 1355.99 67.8847 1352.06 Q67.8847 1346.79 66.1023 1343.96 Q64.2793 1341.12 60.9981 1341.12 Q57.9599 1341.12 56.3396 1343.19 Q54.7192 1345.21 53.2204 1352.14 L52.6127 1354.73 Q51.1544 1361.66 48.1567 1364.74 Q45.1186 1367.82 39.8524 1367.82 Q33.452 1367.82 29.9682 1363.28 Q26.4844 1358.74 26.4844 1350.4 Q26.4844 1346.26 27.092 1342.62 Q27.6997 1338.97 28.915 1335.89 Z" fill="#000000" fill-rule="nonzero" fill-opacity="1" /><path clip-path="url(#clip770)" d="M14.6963 1314.22 L27.5782 1314.22 L27.5782 1298.87 L33.3709 1298.87 L33.3709 1314.22 L58.0004 1314.22 Q63.5502 1314.22 65.13 1312.72 Q66.7099 1311.18 66.7099 1306.53 L66.7099 1298.87 L72.9483 1298.87 L72.9483 1306.53 Q72.9483 1315.15 69.7481 1318.44 Q66.5073 1321.72 58.0004 1321.72 L33.3709 1321.72 L33.3709 1327.19 L27.5782 1327.19 L27.5782 1321.72 L14.6963 1321.72 L14.6963 1314.22 Z" fill="#000000" fill-rule="nonzero" fill-opacity="1" /><path clip-path="url(#clip770)" d="M48.3998 1250.26 L52.0456 1250.26 L52.0456 1284.53 Q59.7423 1284.04 63.7932 1279.91 Q67.8036 1275.74 67.8036 1268.33 Q67.8036 1264.03 66.7504 1260.02 Q65.6972 1255.97 63.5907 1252 L70.6393 1252 Q72.3406 1256.01 73.2318 1260.22 Q74.123 1264.44 74.123 1268.77 Q74.123 1279.63 67.8036 1285.99 Q61.4842 1292.31 50.7088 1292.31 Q39.5688 1292.31 33.0469 1286.31 Q26.4844 1280.28 26.4844 1270.07 Q26.4844 1260.91 32.3987 1255.61 Q38.2725 1250.26 48.3998 1250.26 M46.2123 1257.71 Q40.0955 1257.79 36.4496 1261.16 Q32.8038 1264.48 32.8038 1269.99 Q32.8038 1276.22 36.3281 1279.99 Q39.8524 1283.72 46.2528 1284.29 L46.2123 1257.71 Z" fill="#000000" fill-rule="nonzero" fill-opacity="1" /><path clip-path="url(#clip770)" d="M34.5457 1211.73 Q33.8165 1212.99 33.4925 1214.49 Q33.1279 1215.95 33.1279 1217.73 Q33.1279 1224.05 37.2598 1227.45 Q41.3512 1230.81 49.0479 1230.81 L72.9483 1230.81 L72.9483 1238.31 L27.5782 1238.31 L27.5782 1230.81 L34.6267 1230.81 Q30.4948 1228.46 28.5099 1224.7 Q26.4844 1220.93 26.4844 1215.54 Q26.4844 1214.77 26.6059 1213.84 Q26.687 1212.91 26.8895 1211.77 L34.5457 1211.73 Z" fill="#000000" fill-rule="nonzero" fill-opacity="1" /><path clip-path="url(#clip770)" d="M27.5782 1203.92 L27.5782 1196.46 L72.9483 1196.46 L72.9483 1203.92 L27.5782 1203.92 M9.91621 1203.92 L9.91621 1196.46 L19.3548 1196.46 L19.3548 1203.92 L9.91621 1203.92 Z" fill="#000000" fill-rule="nonzero" fill-opacity="1" /><path clip-path="url(#clip770)" d="M45.5642 1143.15 L72.9483 1143.15 L72.9483 1150.61 L45.8072 1150.61 Q39.3663 1150.61 36.1661 1153.12 Q32.9659 1155.63 32.9659 1160.65 Q32.9659 1166.69 36.8142 1170.17 Q40.6626 1173.66 47.3061 1173.66 L72.9483 1173.66 L72.9483 1181.15 L27.5782 1181.15 L27.5782 1173.66 L34.6267 1173.66 Q30.5353 1170.98 28.5099 1167.38 Q26.4844 1163.73 26.4844 1158.99 Q26.4844 1151.17 31.3455 1147.16 Q36.1661 1143.15 45.5642 1143.15 Z" fill="#000000" fill-rule="nonzero" fill-opacity="1" /><path clip-path="url(#clip770)" d="M49.7366 1098.43 Q41.6348 1098.43 37.1788 1101.79 Q32.7228 1105.11 32.7228 1111.15 Q32.7228 1117.15 37.1788 1120.51 Q41.6348 1123.83 49.7366 1123.83 Q57.7979 1123.83 62.2539 1120.51 Q66.7099 1117.15 66.7099 1111.15 Q66.7099 1105.11 62.2539 1101.79 Q57.7979 1098.43 49.7366 1098.43 M67.3175 1090.98 Q78.9031 1090.98 84.5339 1096.12 Q90.2051 1101.27 90.2051 1111.88 Q90.2051 1115.81 89.5975 1119.29 Q89.0304 1122.78 87.8151 1126.06 L80.564 1126.06 Q82.3464 1122.78 83.1971 1119.58 Q84.0478 1116.38 84.0478 1113.05 Q84.0478 1105.72 80.1994 1102.08 Q76.3916 1098.43 68.6543 1098.43 L64.968 1098.43 Q68.9784 1100.74 70.9633 1104.34 Q72.9483 1107.95 72.9483 1112.97 Q72.9483 1121.32 66.5884 1126.42 Q60.2284 1131.53 49.7366 1131.53 Q39.2043 1131.53 32.8443 1126.42 Q26.4844 1121.32 26.4844 1112.97 Q26.4844 1107.95 28.4694 1104.34 Q30.4543 1100.74 34.4647 1098.43 L27.5782 1098.43 L27.5782 1090.98 L67.3175 1090.98 Z" fill="#000000" fill-rule="nonzero" fill-opacity="1" /><path clip-path="url(#clip770)" d="M12.4683 1048.93 L12.4683 1010.69 L19.3548 1010.69 L19.3548 1040.75 L37.2598 1040.75 L37.2598 1011.94 L44.1464 1011.94 L44.1464 1040.75 L66.0617 1040.75 L66.0617 1009.96 L72.9483 1009.96 L72.9483 1048.93 L12.4683 1048.93 Z" fill="#000000" fill-rule="nonzero" fill-opacity="1" /><path clip-path="url(#clip770)" d="M34.5457 970.543 Q33.8165 971.799 33.4925 973.298 Q33.1279 974.756 33.1279 976.539 Q33.1279 982.858 37.2598 986.261 Q41.3512 989.623 49.0479 989.623 L72.9483 989.623 L72.9483 997.117 L27.5782 997.117 L27.5782 989.623 L34.6267 989.623 Q30.4948 987.274 28.5099 983.506 Q26.4844 979.739 26.4844 974.351 Q26.4844 973.582 26.6059 972.65 Q26.687 971.718 26.8895 970.584 L34.5457 970.543 Z" fill="#000000" fill-rule="nonzero" fill-opacity="1" /><path clip-path="url(#clip770)" d="M34.5457 937.893 Q33.8165 939.149 33.4925 940.648 Q33.1279 942.106 33.1279 943.889 Q33.1279 950.208 37.2598 953.611 Q41.3512 956.973 49.0479 956.973 L72.9483 956.973 L72.9483 964.467 L27.5782 964.467 L27.5782 956.973 L34.6267 956.973 Q30.4948 954.623 28.5099 950.856 Q26.4844 947.089 26.4844 941.701 Q26.4844 940.931 26.6059 940 Q26.687 939.068 26.8895 937.934 L34.5457 937.893 Z" fill="#000000" fill-rule="nonzero" fill-opacity="1" /><path clip-path="url(#clip770)" d="M32.8038 914.317 Q32.8038 920.312 37.5029 923.796 Q42.1614 927.28 50.3037 927.28 Q58.446 927.28 63.1451 923.837 Q67.8036 920.353 67.8036 914.317 Q67.8036 908.362 63.1046 904.878 Q58.4055 901.395 50.3037 901.395 Q42.2424 901.395 37.5434 904.878 Q32.8038 908.362 32.8038 914.317 M26.4844 914.317 Q26.4844 904.595 32.8038 899.045 Q39.1232 893.495 50.3037 893.495 Q61.4437 893.495 67.8036 899.045 Q74.123 904.595 74.123 914.317 Q74.123 924.08 67.8036 929.629 Q61.4437 935.139 50.3037 935.139 Q39.1232 935.139 32.8038 929.629 Q26.4844 924.08 26.4844 914.317 Z" fill="#000000" fill-rule="nonzero" fill-opacity="1" /><path clip-path="url(#clip770)" d="M34.5457 854.85 Q33.8165 856.105 33.4925 857.604 Q33.1279 859.063 33.1279 860.845 Q33.1279 867.164 37.2598 870.567 Q41.3512 873.929 49.0479 873.929 L72.9483 873.929 L72.9483 881.424 L27.5782 881.424 L27.5782 873.929 L34.6267 873.929 Q30.4948 871.58 28.5099 867.813 Q26.4844 864.045 26.4844 858.658 Q26.4844 857.888 26.6059 856.956 Q26.687 856.024 26.8895 854.89 L34.5457 854.85 Z" fill="#000000" fill-rule="nonzero" fill-opacity="1" /><path clip-path="url(#clip770)" d="M9.99723 802.755 Q19.3143 808.183 28.4288 810.816 Q37.5434 813.449 46.901 813.449 Q56.2586 813.449 65.4541 810.816 Q74.6092 808.143 83.8857 802.755 L83.8857 809.236 Q74.3661 815.313 65.1705 818.351 Q55.975 821.349 46.901 821.349 Q37.8675 821.349 28.7124 818.351 Q19.5574 815.353 9.99723 809.236 L9.99723 802.755 Z" fill="#000000" fill-rule="nonzero" fill-opacity="1" /><path clip-path="url(#clip770)" d="M46.3338 735.794 Q46.3338 739.318 49.3315 741.343 Q52.3292 743.328 57.6764 743.328 Q62.9426 743.328 65.9807 741.343 Q68.9784 739.318 68.9784 735.794 Q68.9784 732.35 65.9807 730.365 Q62.9426 728.34 57.6764 728.34 Q52.3697 728.34 49.372 730.365 Q46.3338 732.35 46.3338 735.794 M41.1892 735.794 Q41.1892 729.393 45.6452 725.626 Q50.1012 721.858 57.6764 721.858 Q65.2516 721.858 69.7076 725.666 Q74.123 729.434 74.123 735.794 Q74.123 742.275 69.7076 746.042 Q65.2516 749.81 57.6764 749.81 Q50.0607 749.81 45.6452 746.042 Q41.1892 742.235 41.1892 735.794 M16.5192 777.599 Q16.5192 781.083 19.5574 783.108 Q22.555 785.093 27.8212 785.093 Q33.1684 785.093 36.1661 783.108 Q39.1637 781.123 39.1637 777.599 Q39.1637 774.075 36.1661 772.09 Q33.1684 770.064 27.8212 770.064 Q22.5955 770.064 19.5574 772.09 Q16.5192 774.115 16.5192 777.599 M11.3745 741.019 L11.3745 734.538 L74.123 772.373 L74.123 778.855 L11.3745 741.019 M11.3745 777.599 Q11.3745 771.198 15.8305 767.391 Q20.246 763.583 27.8212 763.583 Q35.4774 763.583 39.8929 767.391 Q44.3084 771.158 44.3084 777.599 Q44.3084 784.04 39.8929 787.807 Q35.4369 791.534 27.8212 791.534 Q20.2865 791.534 15.8305 787.767 Q11.3745 783.999 11.3745 777.599 Z" fill="#000000" fill-rule="nonzero" fill-opacity="1" /><path clip-path="url(#clip770)" d="M9.99723 710.637 L9.99723 704.156 Q19.5574 698.08 28.7124 695.082 Q37.8675 692.044 46.901 692.044 Q55.975 692.044 65.1705 695.082 Q74.3661 698.08 83.8857 704.156 L83.8857 710.637 Q74.6092 705.25 65.4541 702.617 Q56.2586 699.943 46.901 699.943 Q37.5434 699.943 28.4288 702.617 Q19.3143 705.25 9.99723 710.637 Z" fill="#000000" fill-rule="nonzero" fill-opacity="1" /><path clip-path="url(#clip772)" d="M650.369 2084.6 L559.968 2084.6 L740.769 2084.6 L650.369 2084.6 L650.369 2022.86 L650.369 2084.6  Z" fill="#808080" fill-rule="evenodd" fill-opacity="1"/>
<polyline clip-path="url(#clip772)" style="stroke:#000000; stroke-linecap:round; stroke-linejoin:round; stroke-width:4; stroke-opacity:1; fill:none" points="650.369,2084.6 559.968,2084.6 740.769,2084.6 650.369,2084.6 650.369,2022.86 650.369,2084.6 "/>
<path clip-path="url(#clip772)" d="M831.17 2022.86 L831.17 1997.14 L469.567 1997.14 L469.567 2022.86 L831.17 2022.86 L831.17 1997.14 L831.17 2022.86  Z" fill="#808080" fill-rule="evenodd" fill-opacity="1"/>
<polyline clip-path="url(#clip772)" style="stroke:#000000; stroke-linecap:round; stroke-linejoin:round; stroke-width:4; stroke-opacity:1; fill:none" points="831.17,2022.86 831.17,1997.14 469.567,1997.14 469.567,2022.86 831.17,2022.86 831.17,1997.14 831.17,2022.86 "/>
<path clip-path="url(#clip772)" d="M831.17 1961.12 L469.567 1961.12 L469.567 1997.14 L831.17 1997.14 L831.17 1961.12 L650.369 1961.12 L831.17 1961.12  Z" fill="#808080" fill-rule="evenodd" fill-opacity="1"/>
<polyline clip-path="url(#clip772)" style="stroke:#000000; stroke-linecap:round; stroke-linejoin:round; stroke-width:4; stroke-opacity:1; fill:none" points="831.17,1961.12 469.567,1961.12 469.567,1997.14 831.17,1997.14 831.17,1961.12 650.369,1961.12 831.17,1961.12 "/>
<path clip-path="url(#clip772)" d="M650.369 1868.51 L559.968 1868.51 L740.769 1868.51 L650.369 1868.51 L650.369 1961.12 L650.369 1868.51  Z" fill="#808080" fill-rule="evenodd" fill-opacity="1"/>
<polyline clip-path="url(#clip772)" style="stroke:#000000; stroke-linecap:round; stroke-linejoin:round; stroke-width:4; stroke-opacity:1; fill:none" points="650.369,1868.51 559.968,1868.51 740.769,1868.51 650.369,1868.51 650.369,1961.12 650.369,1868.51 "/>
<polyline clip-path="url(#clip772)" style="stroke:#808080; stroke-linecap:round; stroke-linejoin:round; stroke-width:0; stroke-opacity:1; fill:none" points="650.369,2084.6 559.968,2084.6 740.769,2084.6 650.369,2084.6 650.369,2022.86 "/>
<polyline clip-path="url(#clip772)" style="stroke:#808080; stroke-linecap:round; stroke-linejoin:round; stroke-width:0; stroke-opacity:1; fill:none" points="831.17,2022.86 831.17,1997.14 469.567,1997.14 469.567,2022.86 831.17,2022.86 831.17,1997.14 "/>
<polyline clip-path="url(#clip772)" style="stroke:#808080; stroke-linecap:round; stroke-linejoin:round; stroke-width:0; stroke-opacity:1; fill:none" points="831.17,1961.12 469.567,1961.12 469.567,1997.14 831.17,1997.14 831.17,1961.12 650.369,1961.12 "/>
<polyline clip-path="url(#clip772)" style="stroke:#808080; stroke-linecap:round; stroke-linejoin:round; stroke-width:0; stroke-opacity:1; fill:none" points="650.369,1868.51 559.968,1868.51 740.769,1868.51 650.369,1868.51 650.369,1961.12 "/>
<path clip-path="url(#clip772)" d="M1283.17 2043.44 L1192.77 2043.44 L1373.57 2043.44 L1283.17 2043.44 L1283.17 1950.83 L1283.17 2043.44  Z" fill="#3da44d" fill-rule="evenodd" fill-opacity="1"/>
<polyline clip-path="url(#clip772)" style="stroke:#000000; stroke-linecap:round; stroke-linejoin:round; stroke-width:4; stroke-opacity:1; fill:none" points="1283.17,2043.44 1192.77,2043.44 1373.57,2043.44 1283.17,2043.44 1283.17,1950.83 1283.17,2043.44 "/>
<path clip-path="url(#clip772)" d="M1463.98 1950.83 L1463.98 1878.8 L1102.37 1878.8 L1102.37 1950.83 L1463.98 1950.83 L1463.98 1878.8 L1463.98 1950.83  Z" fill="#3da44d" fill-rule="evenodd" fill-opacity="1"/>
<polyline clip-path="url(#clip772)" style="stroke:#000000; stroke-linecap:round; stroke-linejoin:round; stroke-width:4; stroke-opacity:1; fill:none" points="1463.98,1950.83 1463.98,1878.8 1102.37,1878.8 1102.37,1950.83 1463.98,1950.83 1463.98,1878.8 1463.98,1950.83 "/>
<path clip-path="url(#clip772)" d="M1463.98 1199.69 L1102.37 1199.69 L1102.37 1878.8 L1463.98 1878.8 L1463.98 1199.69 L1283.17 1199.69 L1463.98 1199.69  Z" fill="#3da44d" fill-rule="evenodd" fill-opacity="1"/>
<polyline clip-path="url(#clip772)" style="stroke:#000000; stroke-linecap:round; stroke-linejoin:round; stroke-width:4; stroke-opacity:1; fill:none" points="1463.98,1199.69 1102.37,1199.69 1102.37,1878.8 1463.98,1878.8 1463.98,1199.69 1283.17,1199.69 1463.98,1199.69 "/>
<path clip-path="url(#clip772)" d="M1283.17 129.561 L1192.77 129.561 L1373.57 129.561 L1283.17 129.561 L1283.17 1199.69 L1283.17 129.561  Z" fill="#3da44d" fill-rule="evenodd" fill-opacity="1"/>
<polyline clip-path="url(#clip772)" style="stroke:#000000; stroke-linecap:round; stroke-linejoin:round; stroke-width:4; stroke-opacity:1; fill:none" points="1283.17,129.561 1192.77,129.561 1373.57,129.561 1283.17,129.561 1283.17,1199.69 1283.17,129.561 "/>
<polyline clip-path="url(#clip772)" style="stroke:#3da44d; stroke-linecap:round; stroke-linejoin:round; stroke-width:0; stroke-opacity:1; fill:none" points="1283.17,2043.44 1192.77,2043.44 1373.57,2043.44 1283.17,2043.44 1283.17,1950.83 "/>
<polyline clip-path="url(#clip772)" style="stroke:#3da44d; stroke-linecap:round; stroke-linejoin:round; stroke-width:0; stroke-opacity:1; fill:none" points="1463.98,1950.83 1463.98,1878.8 1102.37,1878.8 1102.37,1950.83 1463.98,1950.83 1463.98,1878.8 "/>
<polyline clip-path="url(#clip772)" style="stroke:#3da44d; stroke-linecap:round; stroke-linejoin:round; stroke-width:0; stroke-opacity:1; fill:none" points="1463.98,1199.69 1102.37,1199.69 1102.37,1878.8 1463.98,1878.8 1463.98,1199.69 1283.17,1199.69 "/>
<polyline clip-path="url(#clip772)" style="stroke:#3da44d; stroke-linecap:round; stroke-linejoin:round; stroke-width:0; stroke-opacity:1; fill:none" points="1283.17,129.561 1192.77,129.561 1373.57,129.561 1283.17,129.561 1283.17,1199.69 "/>
<path clip-path="url(#clip772)" d="M1915.98 2084.6 L1825.58 2084.6 L2006.38 2084.6 L1915.98 2084.6 L1915.98 1994.56 L1915.98 2084.6  Z" fill="#f05f73" fill-rule="evenodd" fill-opacity="1"/>
<polyline clip-path="url(#clip772)" style="stroke:#000000; stroke-linecap:round; stroke-linejoin:round; stroke-width:4; stroke-opacity:1; fill:none" points="1915.98,2084.6 1825.58,2084.6 2006.38,2084.6 1915.98,2084.6 1915.98,1994.56 1915.98,2084.6 "/>
<path clip-path="url(#clip772)" d="M2096.78 1994.56 L2096.78 1961.12 L1735.18 1961.12 L1735.18 1994.56 L2096.78 1994.56 L2096.78 1961.12 L2096.78 1994.56  Z" fill="#f05f73" fill-rule="evenodd" fill-opacity="1"/>
<polyline clip-path="url(#clip772)" style="stroke:#000000; stroke-linecap:round; stroke-linejoin:round; stroke-width:4; stroke-opacity:1; fill:none" points="2096.78,1994.56 2096.78,1961.12 1735.18,1961.12 1735.18,1994.56 2096.78,1994.56 2096.78,1961.12 2096.78,1994.56 "/>
<path clip-path="url(#clip772)" d="M2096.78 1930.25 L1735.18 1930.25 L1735.18 1961.12 L2096.78 1961.12 L2096.78 1930.25 L1915.98 1930.25 L2096.78 1930.25  Z" fill="#f05f73" fill-rule="evenodd" fill-opacity="1"/>
<polyline clip-path="url(#clip772)" style="stroke:#000000; stroke-linecap:round; stroke-linejoin:round; stroke-width:4; stroke-opacity:1; fill:none" points="2096.78,1930.25 1735.18,1930.25 1735.18,1961.12 2096.78,1961.12 2096.78,1930.25 1915.98,1930.25 2096.78,1930.25 "/>
<path clip-path="url(#clip772)" d="M1915.98 1878.8 L1825.58 1878.8 L2006.38 1878.8 L1915.98 1878.8 L1915.98 1930.25 L1915.98 1878.8  Z" fill="#f05f73" fill-rule="evenodd" fill-opacity="1"/>
<polyline clip-path="url(#clip772)" style="stroke:#000000; stroke-linecap:round; stroke-linejoin:round; stroke-width:4; stroke-opacity:1; fill:none" points="1915.98,1878.8 1825.58,1878.8 2006.38,1878.8 1915.98,1878.8 1915.98,1930.25 1915.98,1878.8 "/>
<polyline clip-path="url(#clip772)" style="stroke:#f05f73; stroke-linecap:round; stroke-linejoin:round; stroke-width:0; stroke-opacity:1; fill:none" points="1915.98,2084.6 1825.58,2084.6 2006.38,2084.6 1915.98,2084.6 1915.98,1994.56 "/>
<polyline clip-path="url(#clip772)" style="stroke:#f05f73; stroke-linecap:round; stroke-linejoin:round; stroke-width:0; stroke-opacity:1; fill:none" points="2096.78,1994.56 2096.78,1961.12 1735.18,1961.12 1735.18,1994.56 2096.78,1994.56 2096.78,1961.12 "/>
<polyline clip-path="url(#clip772)" style="stroke:#f05f73; stroke-linecap:round; stroke-linejoin:round; stroke-width:0; stroke-opacity:1; fill:none" points="2096.78,1930.25 1735.18,1930.25 1735.18,1961.12 2096.78,1961.12 2096.78,1930.25 1915.98,1930.25 "/>
<polyline clip-path="url(#clip772)" style="stroke:#f05f73; stroke-linecap:round; stroke-linejoin:round; stroke-width:0; stroke-opacity:1; fill:none" points="1915.98,1878.8 1825.58,1878.8 2006.38,1878.8 1915.98,1878.8 1915.98,1930.25 "/>
<path clip-path="url(#clip772)" d="M2548.78 170.72 L2458.38 170.72 L2639.19 170.72 L2548.78 170.72 L2548.78 150.141 L2548.78 170.72  Z" fill="#8e971d" fill-rule="evenodd" fill-opacity="1"/>
<polyline clip-path="url(#clip772)" style="stroke:#000000; stroke-linecap:round; stroke-linejoin:round; stroke-width:4; stroke-opacity:1; fill:none" points="2548.78,170.72 2458.38,170.72 2639.19,170.72 2548.78,170.72 2548.78,150.141 2548.78,170.72 "/>
<path clip-path="url(#clip772)" d="M2729.59 150.141 L2729.59 129.561 L2367.98 129.561 L2367.98 150.141 L2729.59 150.141 L2729.59 129.561 L2729.59 150.141  Z" fill="#8e971d" fill-rule="evenodd" fill-opacity="1"/>
<polyline clip-path="url(#clip772)" style="stroke:#000000; stroke-linecap:round; stroke-linejoin:round; stroke-width:4; stroke-opacity:1; fill:none" points="2729.59,150.141 2729.59,129.561 2367.98,129.561 2367.98,150.141 2729.59,150.141 2729.59,129.561 2729.59,150.141 "/>
<path clip-path="url(#clip772)" d="M2729.59 108.982 L2367.98 108.982 L2367.98 129.561 L2729.59 129.561 L2729.59 108.982 L2548.78 108.982 L2729.59 108.982  Z" fill="#8e971d" fill-rule="evenodd" fill-opacity="1"/>
<polyline clip-path="url(#clip772)" style="stroke:#000000; stroke-linecap:round; stroke-linejoin:round; stroke-width:4; stroke-opacity:1; fill:none" points="2729.59,108.982 2367.98,108.982 2367.98,129.561 2729.59,129.561 2729.59,108.982 2548.78,108.982 2729.59,108.982 "/>
<path clip-path="url(#clip772)" d="M2548.78 88.4028 L2458.38 88.4028 L2639.19 88.4028 L2548.78 88.4028 L2548.78 108.982 L2548.78 88.4028  Z" fill="#8e971d" fill-rule="evenodd" fill-opacity="1"/>
<polyline clip-path="url(#clip772)" style="stroke:#000000; stroke-linecap:round; stroke-linejoin:round; stroke-width:4; stroke-opacity:1; fill:none" points="2548.78,88.4028 2458.38,88.4028 2639.19,88.4028 2548.78,88.4028 2548.78,108.982 2548.78,88.4028 "/>
<polyline clip-path="url(#clip772)" style="stroke:#8e971d; stroke-linecap:round; stroke-linejoin:round; stroke-width:0; stroke-opacity:1; fill:none" points="2548.78,170.72 2458.38,170.72 2639.19,170.72 2548.78,170.72 2548.78,150.141 "/>
<polyline clip-path="url(#clip772)" style="stroke:#8e971d; stroke-linecap:round; stroke-linejoin:round; stroke-width:0; stroke-opacity:1; fill:none" points="2729.59,150.141 2729.59,129.561 2367.98,129.561 2367.98,150.141 2729.59,150.141 2729.59,129.561 "/>
<polyline clip-path="url(#clip772)" style="stroke:#8e971d; stroke-linecap:round; stroke-linejoin:round; stroke-width:0; stroke-opacity:1; fill:none" points="2729.59,108.982 2367.98,108.982 2367.98,129.561 2729.59,129.561 2729.59,108.982 2548.78,108.982 "/>
<polyline clip-path="url(#clip772)" style="stroke:#8e971d; stroke-linecap:round; stroke-linejoin:round; stroke-width:0; stroke-opacity:1; fill:none" points="2548.78,88.4028 2458.38,88.4028 2639.19,88.4028 2548.78,88.4028 2548.78,108.982 "/>
<path clip-path="url(#clip772)" d="M3181.59 2002.28 L3091.19 2002.28 L3271.99 2002.28 L3181.59 2002.28 L3181.59 872.99 L3181.59 2002.28  Z" fill="#e26f46" fill-rule="evenodd" fill-opacity="1"/>
<polyline clip-path="url(#clip772)" style="stroke:#000000; stroke-linecap:round; stroke-linejoin:round; stroke-width:4; stroke-opacity:1; fill:none" points="3181.59,2002.28 3091.19,2002.28 3271.99,2002.28 3181.59,2002.28 3181.59,872.99 3181.59,2002.28 "/>
<path clip-path="url(#clip772)" d="M3362.39 872.99 L3362.39 587.452 L3000.79 587.452 L3000.79 872.99 L3362.39 872.99 L3362.39 587.452 L3362.39 872.99  Z" fill="#e26f46" fill-rule="evenodd" fill-opacity="1"/>
<polyline clip-path="url(#clip772)" style="stroke:#000000; stroke-linecap:round; stroke-linejoin:round; stroke-width:4; stroke-opacity:1; fill:none" points="3362.39,872.99 3362.39,587.452 3000.79,587.452 3000.79,872.99 3362.39,872.99 3362.39,587.452 3362.39,872.99 "/>
<path clip-path="url(#clip772)" d="M3362.39 119.272 L3000.79 119.272 L3000.79 587.452 L3362.39 587.452 L3362.39 119.272 L3181.59 119.272 L3362.39 119.272  Z" fill="#e26f46" fill-rule="evenodd" fill-opacity="1"/>
<polyline clip-path="url(#clip772)" style="stroke:#000000; stroke-linecap:round; stroke-linejoin:round; stroke-width:4; stroke-opacity:1; fill:none" points="3362.39,119.272 3000.79,119.272 3000.79,587.452 3362.39,587.452 3362.39,119.272 3181.59,119.272 3362.39,119.272 "/>
<path clip-path="url(#clip772)" d="M3181.59 88.4028 L3091.19 88.4028 L3271.99 88.4028 L3181.59 88.4028 L3181.59 119.272 L3181.59 88.4028  Z" fill="#e26f46" fill-rule="evenodd" fill-opacity="1"/>
<polyline clip-path="url(#clip772)" style="stroke:#000000; stroke-linecap:round; stroke-linejoin:round; stroke-width:4; stroke-opacity:1; fill:none" points="3181.59,88.4028 3091.19,88.4028 3271.99,88.4028 3181.59,88.4028 3181.59,119.272 3181.59,88.4028 "/>
<polyline clip-path="url(#clip772)" style="stroke:#e26f46; stroke-linecap:round; stroke-linejoin:round; stroke-width:0; stroke-opacity:1; fill:none" points="3181.59,2002.28 3091.19,2002.28 3271.99,2002.28 3181.59,2002.28 3181.59,872.99 "/>
<polyline clip-path="url(#clip772)" style="stroke:#e26f46; stroke-linecap:round; stroke-linejoin:round; stroke-width:0; stroke-opacity:1; fill:none" points="3362.39,872.99 3362.39,587.452 3000.79,587.452 3000.79,872.99 3362.39,872.99 3362.39,587.452 "/>
<polyline clip-path="url(#clip772)" style="stroke:#e26f46; stroke-linecap:round; stroke-linejoin:round; stroke-width:0; stroke-opacity:1; fill:none" points="3362.39,119.272 3000.79,119.272 3000.79,587.452 3362.39,587.452 3362.39,119.272 3181.59,119.272 "/>
<polyline clip-path="url(#clip772)" style="stroke:#e26f46; stroke-linecap:round; stroke-linejoin:round; stroke-width:0; stroke-opacity:1; fill:none" points="3181.59,88.4028 3091.19,88.4028 3271.99,88.4028 3181.59,88.4028 3181.59,119.272 "/>
<path clip-path="url(#clip772)" d="M3814.4 1930.25 L3724 1930.25 L3904.8 1930.25 L3814.4 1930.25 L3814.4 1806.78 L3814.4 1930.25  Z" fill="#c271d2" fill-rule="evenodd" fill-opacity="1"/>
<polyline clip-path="url(#clip772)" style="stroke:#000000; stroke-linecap:round; stroke-linejoin:round; stroke-width:4; stroke-opacity:1; fill:none" points="3814.4,1930.25 3724,1930.25 3904.8,1930.25 3814.4,1930.25 3814.4,1806.78 3814.4,1930.25 "/>
<path clip-path="url(#clip772)" d="M3995.2 1806.78 L3995.2 1755.33 L3633.59 1755.33 L3633.59 1806.78 L3995.2 1806.78 L3995.2 1755.33 L3995.2 1806.78  Z" fill="#c271d2" fill-rule="evenodd" fill-opacity="1"/>
<polyline clip-path="url(#clip772)" style="stroke:#000000; stroke-linecap:round; stroke-linejoin:round; stroke-width:4; stroke-opacity:1; fill:none" points="3995.2,1806.78 3995.2,1755.33 3633.59,1755.33 3633.59,1806.78 3995.2,1806.78 3995.2,1755.33 3995.2,1806.78 "/>
<path clip-path="url(#clip772)" d="M3995.2 1691.02 L3633.59 1691.02 L3633.59 1755.33 L3995.2 1755.33 L3995.2 1691.02 L3814.4 1691.02 L3995.2 1691.02  Z" fill="#c271d2" fill-rule="evenodd" fill-opacity="1"/>
<polyline clip-path="url(#clip772)" style="stroke:#000000; stroke-linecap:round; stroke-linejoin:round; stroke-width:4; stroke-opacity:1; fill:none" points="3995.2,1691.02 3633.59,1691.02 3633.59,1755.33 3995.2,1755.33 3995.2,1691.02 3814.4,1691.02 3995.2,1691.02 "/>
<path clip-path="url(#clip772)" d="M3814.4 1559.82 L3724 1559.82 L3904.8 1559.82 L3814.4 1559.82 L3814.4 1691.02 L3814.4 1559.82  Z" fill="#c271d2" fill-rule="evenodd" fill-opacity="1"/>
<polyline clip-path="url(#clip772)" style="stroke:#000000; stroke-linecap:round; stroke-linejoin:round; stroke-width:4; stroke-opacity:1; fill:none" points="3814.4,1559.82 3724,1559.82 3904.8,1559.82 3814.4,1559.82 3814.4,1691.02 3814.4,1559.82 "/>
<polyline clip-path="url(#clip772)" style="stroke:#c271d2; stroke-linecap:round; stroke-linejoin:round; stroke-width:0; stroke-opacity:1; fill:none" points="3814.4,1930.25 3724,1930.25 3904.8,1930.25 3814.4,1930.25 3814.4,1806.78 "/>
<polyline clip-path="url(#clip772)" style="stroke:#c271d2; stroke-linecap:round; stroke-linejoin:round; stroke-width:0; stroke-opacity:1; fill:none" points="3995.2,1806.78 3995.2,1755.33 3633.59,1755.33 3633.59,1806.78 3995.2,1806.78 3995.2,1755.33 "/>
<polyline clip-path="url(#clip772)" style="stroke:#c271d2; stroke-linecap:round; stroke-linejoin:round; stroke-width:0; stroke-opacity:1; fill:none" points="3995.2,1691.02 3633.59,1691.02 3633.59,1755.33 3995.2,1755.33 3995.2,1691.02 3814.4,1691.02 "/>
<polyline clip-path="url(#clip772)" style="stroke:#c271d2; stroke-linecap:round; stroke-linejoin:round; stroke-width:0; stroke-opacity:1; fill:none" points="3814.4,1559.82 3724,1559.82 3904.8,1559.82 3814.4,1559.82 3814.4,1691.02 "/>
<path clip-path="url(#clip772)" d="M4447.2 973.314 L4356.8 973.314 L4537.6 973.314 L4447.2 973.314 L4447.2 613.176 L4447.2 973.314  Z" fill="#009af9" fill-rule="evenodd" fill-opacity="1"/>
<polyline clip-path="url(#clip772)" style="stroke:#000000; stroke-linecap:round; stroke-linejoin:round; stroke-width:4; stroke-opacity:1; fill:none" points="4447.2,973.314 4356.8,973.314 4537.6,973.314 4447.2,973.314 4447.2,613.176 4447.2,973.314 "/>
<path clip-path="url(#clip772)" d="M4628 613.176 L4628 479.41 L4266.4 479.41 L4266.4 613.176 L4628 613.176 L4628 479.41 L4628 613.176  Z" fill="#009af9" fill-rule="evenodd" fill-opacity="1"/>
<polyline clip-path="url(#clip772)" style="stroke:#000000; stroke-linecap:round; stroke-linejoin:round; stroke-width:4; stroke-opacity:1; fill:none" points="4628,613.176 4628,479.41 4266.4,479.41 4266.4,613.176 4628,613.176 4628,479.41 4628,613.176 "/>
<path clip-path="url(#clip772)" d="M4628 366.224 L4266.4 366.224 L4266.4 479.41 L4628 479.41 L4628 366.224 L4447.2 366.224 L4628 366.224  Z" fill="#009af9" fill-rule="evenodd" fill-opacity="1"/>
<polyline clip-path="url(#clip772)" style="stroke:#000000; stroke-linecap:round; stroke-linejoin:round; stroke-width:4; stroke-opacity:1; fill:none" points="4628,366.224 4266.4,366.224 4266.4,479.41 4628,479.41 4628,366.224 4447.2,366.224 4628,366.224 "/>
<path clip-path="url(#clip772)" d="M4447.2 98.6924 L4356.8 98.6924 L4537.6 98.6924 L4447.2 98.6924 L4447.2 366.224 L4447.2 98.6924  Z" fill="#009af9" fill-rule="evenodd" fill-opacity="1"/>
<polyline clip-path="url(#clip772)" style="stroke:#000000; stroke-linecap:round; stroke-linejoin:round; stroke-width:4; stroke-opacity:1; fill:none" points="4447.2,98.6924 4356.8,98.6924 4537.6,98.6924 4447.2,98.6924 4447.2,366.224 4447.2,98.6924 "/>
<polyline clip-path="url(#clip772)" style="stroke:#009af9; stroke-linecap:round; stroke-linejoin:round; stroke-width:0; stroke-opacity:1; fill:none" points="4447.2,973.314 4356.8,973.314 4537.6,973.314 4447.2,973.314 4447.2,613.176 "/>
<polyline clip-path="url(#clip772)" style="stroke:#009af9; stroke-linecap:round; stroke-linejoin:round; stroke-width:0; stroke-opacity:1; fill:none" points="4628,613.176 4628,479.41 4266.4,479.41 4266.4,613.176 4628,613.176 4628,479.41 "/>
<polyline clip-path="url(#clip772)" style="stroke:#009af9; stroke-linecap:round; stroke-linejoin:round; stroke-width:0; stroke-opacity:1; fill:none" points="4628,366.224 4266.4,366.224 4266.4,479.41 4628,479.41 4628,366.224 4447.2,366.224 "/>
<polyline clip-path="url(#clip772)" style="stroke:#009af9; stroke-linecap:round; stroke-linejoin:round; stroke-width:0; stroke-opacity:1; fill:none" points="4447.2,98.6924 4356.8,98.6924 4537.6,98.6924 4447.2,98.6924 4447.2,366.224 "/>
</svg>
