<?xml version="1.0" encoding="utf-8"?>
<svg xmlns="http://www.w3.org/2000/svg" xmlns:xlink="http://www.w3.org/1999/xlink" width="1200" height="600" viewBox="0 0 4800 2400">
<defs>
  <clipPath id="clip860">
    <rect x="0" y="0" width="4800" height="2400"/>
  </clipPath>
</defs>
<path clip-path="url(#clip860)" d="M0 2400 L4800 2400 L4800 0 L0 0  Z" fill="#ffffff" fill-rule="evenodd" fill-opacity="1"/>
<defs>
  <clipPath id="clip861">
    <rect x="960" y="0" width="3361" height="2400"/>
  </clipPath>
</defs>
<path clip-path="url(#clip860)" d="M374.305 2146.34 L4752.76 2146.34 L4752.76 47.2441 L374.305 47.2441  Z" fill="#ffffff" fill-rule="evenodd" fill-opacity="1"/>
<defs>
  <clipPath id="clip862">
    <rect x="374" y="47" width="4379" height="2100"/>
  </clipPath>
</defs>
<polyline clip-path="url(#clip862)" style="stroke:#000000; stroke-linecap:round; stroke-linejoin:round; stroke-width:2; stroke-opacity:0.1; fill:none" points="677.815,2146.34 677.815,47.2441 "/>
<polyline clip-path="url(#clip862)" style="stroke:#000000; stroke-linecap:round; stroke-linejoin:round; stroke-width:2; stroke-opacity:0.1; fill:none" points="1306.39,2146.34 1306.39,47.2441 "/>
<polyline clip-path="url(#clip862)" style="stroke:#000000; stroke-linecap:round; stroke-linejoin:round; stroke-width:2; stroke-opacity:0.1; fill:none" points="1934.96,2146.34 1934.96,47.2441 "/>
<polyline clip-path="url(#clip862)" style="stroke:#000000; stroke-linecap:round; stroke-linejoin:round; stroke-width:2; stroke-opacity:0.1; fill:none" points="2563.53,2146.34 2563.53,47.2441 "/>
<polyline clip-path="url(#clip862)" style="stroke:#000000; stroke-linecap:round; stroke-linejoin:round; stroke-width:2; stroke-opacity:0.1; fill:none" points="3192.1,2146.34 3192.1,47.2441 "/>
<polyline clip-path="url(#clip862)" style="stroke:#000000; stroke-linecap:round; stroke-linejoin:round; stroke-width:2; stroke-opacity:0.1; fill:none" points="3820.67,2146.34 3820.67,47.2441 "/>
<polyline clip-path="url(#clip862)" style="stroke:#000000; stroke-linecap:round; stroke-linejoin:round; stroke-width:2; stroke-opacity:0.1; fill:none" points="4449.25,2146.34 4449.25,47.2441 "/>
<polyline clip-path="url(#clip860)" style="stroke:#000000; stroke-linecap:round; stroke-linejoin:round; stroke-width:4; stroke-opacity:1; fill:none" points="374.305,2146.34 4752.76,2146.34 "/>
<polyline clip-path="url(#clip860)" style="stroke:#000000; stroke-linecap:round; stroke-linejoin:round; stroke-width:4; stroke-opacity:1; fill:none" points="677.815,2146.34 677.815,2127.44 "/>
<polyline clip-path="url(#clip860)" style="stroke:#000000; stroke-linecap:round; stroke-linejoin:round; stroke-width:4; stroke-opacity:1; fill:none" points="1306.39,2146.34 1306.39,2127.44 "/>
<polyline clip-path="url(#clip860)" style="stroke:#000000; stroke-linecap:round; stroke-linejoin:round; stroke-width:4; stroke-opacity:1; fill:none" points="1934.96,2146.34 1934.96,2127.44 "/>
<polyline clip-path="url(#clip860)" style="stroke:#000000; stroke-linecap:round; stroke-linejoin:round; stroke-width:4; stroke-opacity:1; fill:none" points="2563.53,2146.34 2563.53,2127.44 "/>
<polyline clip-path="url(#clip860)" style="stroke:#000000; stroke-linecap:round; stroke-linejoin:round; stroke-width:4; stroke-opacity:1; fill:none" points="3192.1,2146.34 3192.1,2127.44 "/>
<polyline clip-path="url(#clip860)" style="stroke:#000000; stroke-linecap:round; stroke-linejoin:round; stroke-width:4; stroke-opacity:1; fill:none" points="3820.67,2146.34 3820.67,2127.44 "/>
<polyline clip-path="url(#clip860)" style="stroke:#000000; stroke-linecap:round; stroke-linejoin:round; stroke-width:4; stroke-opacity:1; fill:none" points="4449.25,2146.34 4449.25,2127.44 "/>
<path clip-path="url(#clip860)" d="M385.27 2202.02 L397.863 2202.02 L428.511 2259.84 L428.511 2202.02 L437.585 2202.02 L437.585 2271.14 L424.992 2271.14 L394.344 2213.31 L394.344 2271.14 L385.27 2271.14 L385.27 2202.02 Z" fill="#000000" fill-rule="nonzero" fill-opacity="1" /><path clip-path="url(#clip860)" d="M475.918 2225.26 Q469.066 2225.26 465.085 2230.63 Q461.103 2235.95 461.103 2245.26 Q461.103 2254.56 465.038 2259.93 Q469.02 2265.26 475.918 2265.26 Q482.723 2265.26 486.705 2259.89 Q490.686 2254.52 490.686 2245.26 Q490.686 2236.04 486.705 2230.67 Q482.723 2225.26 475.918 2225.26 M475.918 2218.03 Q487.029 2218.03 493.371 2225.26 Q499.714 2232.48 499.714 2245.26 Q499.714 2257.99 493.371 2265.26 Q487.029 2272.48 475.918 2272.48 Q464.76 2272.48 458.418 2265.26 Q452.122 2257.99 452.122 2245.26 Q452.122 2232.48 458.418 2225.26 Q464.76 2218.03 475.918 2218.03 Z" fill="#000000" fill-rule="nonzero" fill-opacity="1" /><path clip-path="url(#clip860)" d="M513.834 2219.28 L522.353 2219.28 L522.353 2271.14 L513.834 2271.14 L513.834 2219.28 M513.834 2199.1 L522.353 2199.1 L522.353 2209.89 L513.834 2209.89 L513.834 2199.1 Z" fill="#000000" fill-rule="nonzero" fill-opacity="1" /><path clip-path="url(#clip860)" d="M573.232 2220.81 L573.232 2228.87 Q569.621 2227.02 565.732 2226.09 Q561.843 2225.16 557.677 2225.16 Q551.334 2225.16 548.14 2227.11 Q544.992 2229.05 544.992 2232.94 Q544.992 2235.9 547.26 2237.62 Q549.529 2239.28 556.38 2240.81 L559.297 2241.46 Q568.371 2243.4 572.167 2246.97 Q576.01 2250.49 576.01 2256.83 Q576.01 2264.05 570.269 2268.27 Q564.575 2272.48 554.575 2272.48 Q550.408 2272.48 545.871 2271.65 Q541.38 2270.86 536.38 2269.24 L536.38 2260.44 Q541.103 2262.9 545.686 2264.15 Q550.269 2265.35 554.76 2265.35 Q560.778 2265.35 564.019 2263.31 Q567.26 2261.23 567.26 2257.48 Q567.26 2254.01 564.899 2252.15 Q562.584 2250.3 554.667 2248.59 L551.704 2247.9 Q543.788 2246.23 540.269 2242.8 Q536.751 2239.33 536.751 2233.31 Q536.751 2226 541.936 2222.02 Q547.121 2218.03 556.658 2218.03 Q561.38 2218.03 565.547 2218.73 Q569.714 2219.42 573.232 2220.81 Z" fill="#000000" fill-rule="nonzero" fill-opacity="1" /><path clip-path="url(#clip860)" d="M611.149 2275.95 Q607.537 2285.21 604.112 2288.03 Q600.686 2290.86 594.945 2290.86 L588.139 2290.86 L588.139 2283.73 L593.139 2283.73 Q596.658 2283.73 598.602 2282.06 Q600.547 2280.39 602.908 2274.19 L604.436 2270.3 L583.464 2219.28 L592.491 2219.28 L608.695 2259.84 L624.898 2219.28 L633.926 2219.28 L611.149 2275.95 Z" fill="#000000" fill-rule="nonzero" fill-opacity="1" /><path clip-path="url(#clip860)" d="M704.25 2208.36 Q694.065 2208.36 688.046 2215.95 Q682.074 2223.54 682.074 2236.65 Q682.074 2249.7 688.046 2257.29 Q694.065 2264.89 704.25 2264.89 Q714.435 2264.89 720.361 2257.29 Q726.333 2249.7 726.333 2236.65 Q726.333 2223.54 720.361 2215.95 Q714.435 2208.36 704.25 2208.36 M704.25 2200.77 Q718.787 2200.77 727.491 2210.53 Q736.194 2220.26 736.194 2236.65 Q736.194 2252.99 727.491 2262.76 Q718.787 2272.48 704.25 2272.48 Q689.667 2272.48 680.917 2262.76 Q672.213 2253.03 672.213 2236.65 Q672.213 2220.26 680.917 2210.53 Q689.667 2200.77 704.25 2200.77 Z" fill="#000000" fill-rule="nonzero" fill-opacity="1" /><path clip-path="url(#clip860)" d="M780.5 2227.25 Q779.064 2226.41 777.351 2226.04 Q775.685 2225.63 773.648 2225.63 Q766.426 2225.63 762.537 2230.35 Q758.694 2235.02 758.694 2243.82 L758.694 2271.14 L750.129 2271.14 L750.129 2219.28 L758.694 2219.28 L758.694 2227.34 Q761.379 2222.62 765.685 2220.35 Q769.99 2218.03 776.148 2218.03 Q777.027 2218.03 778.092 2218.17 Q779.157 2218.27 780.453 2218.5 L780.5 2227.25 Z" fill="#000000" fill-rule="nonzero" fill-opacity="1" /><path clip-path="url(#clip860)" d="M812.999 2245.07 Q802.675 2245.07 798.694 2247.43 Q794.712 2249.79 794.712 2255.49 Q794.712 2260.02 797.675 2262.71 Q800.685 2265.35 805.823 2265.35 Q812.907 2265.35 817.166 2260.35 Q821.472 2255.3 821.472 2246.97 L821.472 2245.07 L812.999 2245.07 M829.99 2241.55 L829.99 2271.14 L821.472 2271.14 L821.472 2263.27 Q818.555 2267.99 814.203 2270.26 Q809.851 2272.48 803.555 2272.48 Q795.592 2272.48 790.87 2268.03 Q786.194 2263.54 786.194 2256.04 Q786.194 2247.29 792.027 2242.85 Q797.907 2238.4 809.527 2238.4 L821.472 2238.4 L821.472 2237.57 Q821.472 2231.69 817.583 2228.5 Q813.74 2225.26 806.749 2225.26 Q802.305 2225.26 798.092 2226.32 Q793.879 2227.39 789.99 2229.52 L789.99 2221.65 Q794.666 2219.84 799.064 2218.96 Q803.462 2218.03 807.629 2218.03 Q818.879 2218.03 824.434 2223.87 Q829.99 2229.7 829.99 2241.55 Z" fill="#000000" fill-rule="nonzero" fill-opacity="1" /><path clip-path="url(#clip860)" d="M884.851 2221.27 L884.851 2229.24 Q881.24 2227.25 877.582 2226.27 Q873.971 2225.26 870.268 2225.26 Q861.981 2225.26 857.397 2230.53 Q852.814 2235.77 852.814 2245.26 Q852.814 2254.75 857.397 2260.02 Q861.981 2265.26 870.268 2265.26 Q873.971 2265.26 877.582 2264.28 Q881.24 2263.27 884.851 2261.27 L884.851 2269.15 Q881.286 2270.81 877.443 2271.65 Q873.647 2272.48 869.342 2272.48 Q857.629 2272.48 850.731 2265.12 Q843.833 2257.76 843.833 2245.26 Q843.833 2232.57 850.777 2225.3 Q857.768 2218.03 869.897 2218.03 Q873.832 2218.03 877.582 2218.87 Q881.332 2219.65 884.851 2221.27 Z" fill="#000000" fill-rule="nonzero" fill-opacity="1" /><path clip-path="url(#clip860)" d="M899.666 2199.1 L908.184 2199.1 L908.184 2271.14 L899.666 2271.14 L899.666 2199.1 Z" fill="#000000" fill-rule="nonzero" fill-opacity="1" /><path clip-path="url(#clip860)" d="M970.36 2243.08 L970.36 2247.25 L931.193 2247.25 Q931.749 2256.04 936.471 2260.67 Q941.239 2265.26 949.712 2265.26 Q954.619 2265.26 959.202 2264.05 Q963.832 2262.85 968.369 2260.44 L968.369 2268.5 Q963.786 2270.44 958.971 2271.46 Q954.156 2272.48 949.202 2272.48 Q936.795 2272.48 929.526 2265.26 Q922.304 2258.03 922.304 2245.72 Q922.304 2232.99 929.156 2225.53 Q936.054 2218.03 947.721 2218.03 Q958.184 2218.03 964.249 2224.79 Q970.36 2231.51 970.36 2243.08 M961.841 2240.58 Q961.749 2233.59 957.906 2229.42 Q954.11 2225.26 947.813 2225.26 Q940.684 2225.26 936.378 2229.28 Q932.119 2233.31 931.471 2240.63 L961.841 2240.58 Z" fill="#000000" fill-rule="nonzero" fill-opacity="1" /><path clip-path="url(#clip860)" d="M1194.47 2202.02 L1238.17 2202.02 L1238.17 2209.89 L1203.82 2209.89 L1203.82 2230.35 L1236.73 2230.35 L1236.73 2238.22 L1203.82 2238.22 L1203.82 2263.27 L1239 2263.27 L1239 2271.14 L1194.47 2271.14 L1194.47 2202.02 Z" fill="#000000" fill-rule="nonzero" fill-opacity="1" /><path clip-path="url(#clip860)" d="M1254.37 2202.02 L1263.72 2202.02 L1263.72 2231.23 L1294.74 2202.02 L1306.78 2202.02 L1272.47 2234.24 L1309.23 2271.14 L1296.92 2271.14 L1263.72 2237.85 L1263.72 2271.14 L1254.37 2271.14 L1254.37 2202.02 Z" fill="#000000" fill-rule="nonzero" fill-opacity="1" /><path clip-path="url(#clip860)" d="M1357.98 2204.28 L1357.98 2213.4 Q1352.66 2210.86 1347.94 2209.61 Q1343.22 2208.36 1338.82 2208.36 Q1331.18 2208.36 1327.01 2211.32 Q1322.89 2214.28 1322.89 2219.75 Q1322.89 2224.33 1325.62 2226.69 Q1328.4 2229.01 1336.09 2230.44 L1341.73 2231.6 Q1352.2 2233.59 1357.15 2238.64 Q1362.15 2243.64 1362.15 2252.06 Q1362.15 2262.11 1355.39 2267.29 Q1348.68 2272.48 1335.67 2272.48 Q1330.76 2272.48 1325.21 2271.37 Q1319.7 2270.26 1313.77 2268.08 L1313.77 2258.45 Q1319.47 2261.65 1324.93 2263.27 Q1330.39 2264.89 1335.67 2264.89 Q1343.68 2264.89 1348.03 2261.74 Q1352.38 2258.59 1352.38 2252.76 Q1352.38 2247.66 1349.23 2244.79 Q1346.13 2241.92 1339 2240.49 L1333.31 2239.38 Q1322.84 2237.29 1318.17 2232.85 Q1313.49 2228.4 1313.49 2220.49 Q1313.49 2211.32 1319.93 2206.04 Q1326.41 2200.77 1337.75 2200.77 Q1342.61 2200.77 1347.66 2201.65 Q1352.71 2202.53 1357.98 2204.28 Z" fill="#000000" fill-rule="nonzero" fill-opacity="1" /><path clip-path="url(#clip860)" d="M1418.17 2204.28 L1418.17 2213.4 Q1412.84 2210.86 1408.12 2209.61 Q1403.4 2208.36 1399 2208.36 Q1391.36 2208.36 1387.2 2211.32 Q1383.08 2214.28 1383.08 2219.75 Q1383.08 2224.33 1385.81 2226.69 Q1388.59 2229.01 1396.27 2230.44 L1401.92 2231.6 Q1412.38 2233.59 1417.34 2238.64 Q1422.34 2243.64 1422.34 2252.06 Q1422.34 2262.11 1415.58 2267.29 Q1408.86 2272.48 1395.85 2272.48 Q1390.95 2272.48 1385.39 2271.37 Q1379.88 2270.26 1373.96 2268.08 L1373.96 2258.45 Q1379.65 2261.65 1385.11 2263.27 Q1390.58 2264.89 1395.85 2264.89 Q1403.86 2264.89 1408.21 2261.74 Q1412.57 2258.59 1412.57 2252.76 Q1412.57 2247.66 1409.42 2244.79 Q1406.32 2241.92 1399.19 2240.49 L1393.49 2239.38 Q1383.03 2237.29 1378.35 2232.85 Q1373.68 2228.4 1373.68 2220.49 Q1373.68 2211.32 1380.11 2206.04 Q1386.59 2200.77 1397.94 2200.77 Q1402.8 2200.77 1407.84 2201.65 Q1412.89 2202.53 1418.17 2204.28 Z" fill="#000000" fill-rule="nonzero" fill-opacity="1" /><path clip-path="url(#clip860)" d="M1196.39 2302.87 Q1190.18 2313.52 1187.17 2323.94 Q1184.17 2334.35 1184.17 2345.05 Q1184.17 2355.74 1187.17 2366.25 Q1190.23 2376.71 1196.39 2387.32 L1188.98 2387.32 Q1182.04 2376.44 1178.56 2365.93 Q1175.14 2355.42 1175.14 2345.05 Q1175.14 2334.72 1178.56 2324.26 Q1181.99 2313.8 1188.98 2302.87 L1196.39 2302.87 Z" fill="#000000" fill-rule="nonzero" fill-opacity="1" /><path clip-path="url(#clip860)" d="M1222.64 2341.81 L1222.64 2367.13 L1237.64 2367.13 Q1245.18 2367.13 1248.79 2364.03 Q1252.45 2360.88 1252.45 2354.45 Q1252.45 2347.96 1248.79 2344.91 Q1245.18 2341.81 1237.64 2341.81 L1222.64 2341.81 M1222.64 2313.38 L1222.64 2334.21 L1236.48 2334.21 Q1243.33 2334.21 1246.66 2331.67 Q1250.04 2329.08 1250.04 2323.8 Q1250.04 2318.57 1246.66 2315.97 Q1243.33 2313.38 1236.48 2313.38 L1222.64 2313.38 M1213.29 2305.7 L1237.17 2305.7 Q1247.87 2305.7 1253.66 2310.14 Q1259.44 2314.58 1259.44 2322.78 Q1259.44 2329.12 1256.48 2332.87 Q1253.52 2336.62 1247.78 2337.55 Q1254.67 2339.03 1258.47 2343.75 Q1262.31 2348.43 1262.31 2355.46 Q1262.31 2364.72 1256.02 2369.77 Q1249.72 2374.82 1238.1 2374.82 L1213.29 2374.82 L1213.29 2305.7 Z" fill="#000000" fill-rule="nonzero" fill-opacity="1" /><path clip-path="url(#clip860)" d="M1279.07 2331.76 L1338.42 2331.76 L1338.42 2339.54 L1279.07 2339.54 L1279.07 2331.76 M1279.07 2350.65 L1338.42 2350.65 L1338.42 2358.52 L1279.07 2358.52 L1279.07 2350.65 Z" fill="#000000" fill-rule="nonzero" fill-opacity="1" /><path clip-path="url(#clip860)" d="M1360.23 2366.95 L1375.51 2366.95 L1375.51 2314.21 L1358.89 2317.55 L1358.89 2309.03 L1375.41 2305.7 L1384.77 2305.7 L1384.77 2366.95 L1400.04 2366.95 L1400.04 2374.82 L1360.23 2374.82 L1360.23 2366.95 Z" fill="#000000" fill-rule="nonzero" fill-opacity="1" /><path clip-path="url(#clip860)" d="M1416.39 2302.87 L1423.79 2302.87 Q1430.74 2313.8 1434.16 2324.26 Q1437.64 2334.72 1437.64 2345.05 Q1437.64 2355.42 1434.16 2365.93 Q1430.74 2376.44 1423.79 2387.32 L1416.39 2387.32 Q1422.54 2376.71 1425.55 2366.25 Q1428.61 2355.74 1428.61 2345.05 Q1428.61 2334.35 1425.55 2323.94 Q1422.54 2313.52 1416.39 2302.87 Z" fill="#000000" fill-rule="nonzero" fill-opacity="1" /><path clip-path="url(#clip860)" d="M1821.02 2202.02 L1864.73 2202.02 L1864.73 2209.89 L1830.38 2209.89 L1830.38 2230.35 L1863.29 2230.35 L1863.29 2238.22 L1830.38 2238.22 L1830.38 2263.27 L1865.56 2263.27 L1865.56 2271.14 L1821.02 2271.14 L1821.02 2202.02 Z" fill="#000000" fill-rule="nonzero" fill-opacity="1" /><path clip-path="url(#clip860)" d="M1880.93 2202.02 L1890.28 2202.02 L1890.28 2231.23 L1921.3 2202.02 L1933.34 2202.02 L1899.03 2234.24 L1935.79 2271.14 L1923.48 2271.14 L1890.28 2237.85 L1890.28 2271.14 L1880.93 2271.14 L1880.93 2202.02 Z" fill="#000000" fill-rule="nonzero" fill-opacity="1" /><path clip-path="url(#clip860)" d="M1984.54 2204.28 L1984.54 2213.4 Q1979.22 2210.86 1974.5 2209.61 Q1969.77 2208.36 1965.37 2208.36 Q1957.74 2208.36 1953.57 2211.32 Q1949.45 2214.28 1949.45 2219.75 Q1949.45 2224.33 1952.18 2226.69 Q1954.96 2229.01 1962.64 2230.44 L1968.29 2231.6 Q1978.75 2233.59 1983.71 2238.64 Q1988.71 2243.64 1988.71 2252.06 Q1988.71 2262.11 1981.95 2267.29 Q1975.24 2272.48 1962.23 2272.48 Q1957.32 2272.48 1951.76 2271.37 Q1946.25 2270.26 1940.33 2268.08 L1940.33 2258.45 Q1946.02 2261.65 1951.49 2263.27 Q1956.95 2264.89 1962.23 2264.89 Q1970.24 2264.89 1974.59 2261.74 Q1978.94 2258.59 1978.94 2252.76 Q1978.94 2247.66 1975.79 2244.79 Q1972.69 2241.92 1965.56 2240.49 L1959.87 2239.38 Q1949.4 2237.29 1944.73 2232.85 Q1940.05 2228.4 1940.05 2220.49 Q1940.05 2211.32 1946.49 2206.04 Q1952.97 2200.77 1964.31 2200.77 Q1969.17 2200.77 1974.22 2201.65 Q1979.26 2202.53 1984.54 2204.28 Z" fill="#000000" fill-rule="nonzero" fill-opacity="1" /><path clip-path="url(#clip860)" d="M2044.73 2204.28 L2044.73 2213.4 Q2039.4 2210.86 2034.68 2209.61 Q2029.96 2208.36 2025.56 2208.36 Q2017.92 2208.36 2013.75 2211.32 Q2009.63 2214.28 2009.63 2219.75 Q2009.63 2224.33 2012.37 2226.69 Q2015.14 2229.01 2022.83 2230.44 L2028.48 2231.6 Q2038.94 2233.59 2043.89 2238.64 Q2048.89 2243.64 2048.89 2252.06 Q2048.89 2262.11 2042.13 2267.29 Q2035.42 2272.48 2022.41 2272.48 Q2017.5 2272.48 2011.95 2271.37 Q2006.44 2270.26 2000.51 2268.08 L2000.51 2258.45 Q2006.21 2261.65 2011.67 2263.27 Q2017.13 2264.89 2022.41 2264.89 Q2030.42 2264.89 2034.77 2261.74 Q2039.12 2258.59 2039.12 2252.76 Q2039.12 2247.66 2035.98 2244.79 Q2032.87 2241.92 2025.74 2240.49 L2020.05 2239.38 Q2009.59 2237.29 2004.91 2232.85 Q2000.24 2228.4 2000.24 2220.49 Q2000.24 2211.32 2006.67 2206.04 Q2013.15 2200.77 2024.49 2200.77 Q2029.36 2200.77 2034.4 2201.65 Q2039.45 2202.53 2044.73 2204.28 Z" fill="#000000" fill-rule="nonzero" fill-opacity="1" /><path clip-path="url(#clip860)" d="M2435.92 2211.23 L2423.23 2245.63 L2448.65 2245.63 L2435.92 2211.23 M2430.64 2202.02 L2441.24 2202.02 L2467.58 2271.14 L2457.86 2271.14 L2451.56 2253.4 L2420.41 2253.4 L2414.11 2271.14 L2404.25 2271.14 L2430.64 2202.02 Z" fill="#000000" fill-rule="nonzero" fill-opacity="1" /><path clip-path="url(#clip860)" d="M2487.03 2209.7 L2487.03 2263.45 L2498.32 2263.45 Q2512.63 2263.45 2519.25 2256.97 Q2525.91 2250.49 2525.91 2236.51 Q2525.91 2222.62 2519.25 2216.18 Q2512.63 2209.7 2498.32 2209.7 L2487.03 2209.7 M2477.67 2202.02 L2496.89 2202.02 Q2516.98 2202.02 2526.38 2210.4 Q2535.78 2218.73 2535.78 2236.51 Q2535.78 2254.38 2526.33 2262.76 Q2516.89 2271.14 2496.89 2271.14 L2477.67 2271.14 L2477.67 2202.02 Z" fill="#000000" fill-rule="nonzero" fill-opacity="1" /><path clip-path="url(#clip860)" d="M2592.12 2204.28 L2592.12 2213.4 Q2586.79 2210.86 2582.07 2209.61 Q2577.35 2208.36 2572.95 2208.36 Q2565.31 2208.36 2561.15 2211.32 Q2557.03 2214.28 2557.03 2219.75 Q2557.03 2224.33 2559.76 2226.69 Q2562.53 2229.01 2570.22 2230.44 L2575.87 2231.6 Q2586.33 2233.59 2591.28 2238.64 Q2596.28 2243.64 2596.28 2252.06 Q2596.28 2262.11 2589.53 2267.29 Q2582.81 2272.48 2569.8 2272.48 Q2564.9 2272.48 2559.34 2271.37 Q2553.83 2270.26 2547.91 2268.08 L2547.91 2258.45 Q2553.6 2261.65 2559.06 2263.27 Q2564.53 2264.89 2569.8 2264.89 Q2577.81 2264.89 2582.16 2261.74 Q2586.52 2258.59 2586.52 2252.76 Q2586.52 2247.66 2583.37 2244.79 Q2580.27 2241.92 2573.14 2240.49 L2567.44 2239.38 Q2556.98 2237.29 2552.3 2232.85 Q2547.63 2228.4 2547.63 2220.49 Q2547.63 2211.32 2554.06 2206.04 Q2560.54 2200.77 2571.89 2200.77 Q2576.75 2200.77 2581.79 2201.65 Q2586.84 2202.53 2592.12 2204.28 Z" fill="#000000" fill-rule="nonzero" fill-opacity="1" /><path clip-path="url(#clip860)" d="M2652.3 2204.28 L2652.3 2213.4 Q2646.98 2210.86 2642.26 2209.61 Q2637.53 2208.36 2633.14 2208.36 Q2625.5 2208.36 2621.33 2211.32 Q2617.21 2214.28 2617.21 2219.75 Q2617.21 2224.33 2619.94 2226.69 Q2622.72 2229.01 2630.4 2230.44 L2636.05 2231.6 Q2646.52 2233.59 2651.47 2238.64 Q2656.47 2243.64 2656.47 2252.06 Q2656.47 2262.11 2649.71 2267.29 Q2643 2272.48 2629.99 2272.48 Q2625.08 2272.48 2619.53 2271.37 Q2614.02 2270.26 2608.09 2268.08 L2608.09 2258.45 Q2613.78 2261.65 2619.25 2263.27 Q2624.71 2264.89 2629.99 2264.89 Q2638 2264.89 2642.35 2261.74 Q2646.7 2258.59 2646.7 2252.76 Q2646.7 2247.66 2643.55 2244.79 Q2640.45 2241.92 2633.32 2240.49 L2627.63 2239.38 Q2617.16 2237.29 2612.49 2232.85 Q2607.81 2228.4 2607.81 2220.49 Q2607.81 2211.32 2614.25 2206.04 Q2620.73 2200.77 2632.07 2200.77 Q2636.93 2200.77 2641.98 2201.65 Q2647.03 2202.53 2652.3 2204.28 Z" fill="#000000" fill-rule="nonzero" fill-opacity="1" /><path clip-path="url(#clip860)" d="M2722.81 2207.34 L2722.81 2217.2 Q2718.09 2212.8 2712.72 2210.63 Q2707.4 2208.45 2701.38 2208.45 Q2689.52 2208.45 2683.23 2215.72 Q2676.93 2222.94 2676.93 2236.65 Q2676.93 2250.3 2683.23 2257.57 Q2689.52 2264.79 2701.38 2264.79 Q2707.4 2264.79 2712.72 2262.62 Q2718.09 2260.44 2722.81 2256.04 L2722.81 2265.81 Q2717.9 2269.15 2712.4 2270.81 Q2706.93 2272.48 2700.82 2272.48 Q2685.13 2272.48 2676.1 2262.9 Q2667.07 2253.27 2667.07 2236.65 Q2667.07 2219.98 2676.1 2210.4 Q2685.13 2200.77 2700.82 2200.77 Q2707.02 2200.77 2712.49 2202.43 Q2718 2204.05 2722.81 2207.34 Z" fill="#000000" fill-rule="nonzero" fill-opacity="1" /><path clip-path="url(#clip860)" d="M3102.38 2202.02 L3160.85 2202.02 L3160.85 2209.89 L3136.32 2209.89 L3136.32 2271.14 L3126.92 2271.14 L3126.92 2209.89 L3102.38 2209.89 L3102.38 2202.02 Z" fill="#000000" fill-rule="nonzero" fill-opacity="1" /><path clip-path="url(#clip860)" d="M3211.31 2204.28 L3211.31 2213.4 Q3205.99 2210.86 3201.27 2209.61 Q3196.55 2208.36 3192.15 2208.36 Q3184.51 2208.36 3180.34 2211.32 Q3176.22 2214.28 3176.22 2219.75 Q3176.22 2224.33 3178.95 2226.69 Q3181.73 2229.01 3189.42 2230.44 L3195.06 2231.6 Q3205.53 2233.59 3210.48 2238.64 Q3215.48 2243.64 3215.48 2252.06 Q3215.48 2262.11 3208.72 2267.29 Q3202.01 2272.48 3189 2272.48 Q3184.09 2272.48 3178.54 2271.37 Q3173.03 2270.26 3167.1 2268.08 L3167.1 2258.45 Q3172.8 2261.65 3178.26 2263.27 Q3183.72 2264.89 3189 2264.89 Q3197.01 2264.89 3201.36 2261.74 Q3205.71 2258.59 3205.71 2252.76 Q3205.71 2247.66 3202.56 2244.79 Q3199.46 2241.92 3192.33 2240.49 L3186.64 2239.38 Q3176.18 2237.29 3171.5 2232.85 Q3166.82 2228.4 3166.82 2220.49 Q3166.82 2211.32 3173.26 2206.04 Q3179.74 2200.77 3191.08 2200.77 Q3195.94 2200.77 3200.99 2201.65 Q3206.04 2202.53 3211.31 2204.28 Z" fill="#000000" fill-rule="nonzero" fill-opacity="1" /><path clip-path="url(#clip860)" d="M3281.82 2207.34 L3281.82 2217.2 Q3277.1 2212.8 3271.73 2210.63 Q3266.41 2208.45 3260.39 2208.45 Q3248.54 2208.45 3242.24 2215.72 Q3235.94 2222.94 3235.94 2236.65 Q3235.94 2250.3 3242.24 2257.57 Q3248.54 2264.79 3260.39 2264.79 Q3266.41 2264.79 3271.73 2262.62 Q3277.1 2260.44 3281.82 2256.04 L3281.82 2265.81 Q3276.92 2269.15 3271.41 2270.81 Q3265.94 2272.48 3259.83 2272.48 Q3244.14 2272.48 3235.11 2262.9 Q3226.08 2253.27 3226.08 2236.65 Q3226.08 2219.98 3235.11 2210.4 Q3244.14 2200.77 3259.83 2200.77 Q3266.04 2200.77 3271.5 2202.43 Q3277.01 2204.05 3281.82 2207.34 Z" fill="#000000" fill-rule="nonzero" fill-opacity="1" /><path clip-path="url(#clip860)" d="M3599.68 2211.23 L3586.99 2245.63 L3612.41 2245.63 L3599.68 2211.23 M3594.4 2202.02 L3605 2202.02 L3631.35 2271.14 L3621.62 2271.14 L3615.33 2253.4 L3584.17 2253.4 L3577.87 2271.14 L3568.01 2271.14 L3594.4 2202.02 Z" fill="#000000" fill-rule="nonzero" fill-opacity="1" /><path clip-path="url(#clip860)" d="M3641.44 2202.02 L3650.79 2202.02 L3650.79 2263.27 L3684.45 2263.27 L3684.45 2271.14 L3641.44 2271.14 L3641.44 2202.02 Z" fill="#000000" fill-rule="nonzero" fill-opacity="1" /><path clip-path="url(#clip860)" d="M3703.61 2209.7 L3703.61 2235.67 L3715.37 2235.67 Q3721.9 2235.67 3725.47 2232.29 Q3729.03 2228.91 3729.03 2222.66 Q3729.03 2216.46 3725.47 2213.08 Q3721.9 2209.7 3715.37 2209.7 L3703.61 2209.7 M3694.26 2202.02 L3715.37 2202.02 Q3726.99 2202.02 3732.92 2207.29 Q3738.89 2212.52 3738.89 2222.66 Q3738.89 2232.9 3732.92 2238.13 Q3726.99 2243.36 3715.37 2243.36 L3703.61 2243.36 L3703.61 2271.14 L3694.26 2271.14 L3694.26 2202.02 Z" fill="#000000" fill-rule="nonzero" fill-opacity="1" /><path clip-path="url(#clip860)" d="M3803.2 2207.34 L3803.2 2217.2 Q3798.47 2212.8 3793.1 2210.63 Q3787.78 2208.45 3781.76 2208.45 Q3769.91 2208.45 3763.61 2215.72 Q3757.32 2222.94 3757.32 2236.65 Q3757.32 2250.3 3763.61 2257.57 Q3769.91 2264.79 3781.76 2264.79 Q3787.78 2264.79 3793.1 2262.62 Q3798.47 2260.44 3803.2 2256.04 L3803.2 2265.81 Q3798.29 2269.15 3792.78 2270.81 Q3787.32 2272.48 3781.21 2272.48 Q3765.51 2272.48 3756.48 2262.9 Q3747.46 2253.27 3747.46 2236.65 Q3747.46 2219.98 3756.48 2210.4 Q3765.51 2200.77 3781.21 2200.77 Q3787.41 2200.77 3792.87 2202.43 Q3798.38 2204.05 3803.2 2207.34 Z" fill="#000000" fill-rule="nonzero" fill-opacity="1" /><path clip-path="url(#clip860)" d="M3840.74 2211.23 L3828.06 2245.63 L3853.47 2245.63 L3840.74 2211.23 M3835.47 2202.02 L3846.07 2202.02 L3872.41 2271.14 L3862.69 2271.14 L3856.39 2253.4 L3825.23 2253.4 L3818.94 2271.14 L3809.08 2271.14 L3835.47 2202.02 Z" fill="#000000" fill-rule="nonzero" fill-opacity="1" /><path clip-path="url(#clip860)" d="M3882.5 2202.02 L3891.85 2202.02 L3891.85 2230.35 L3925.84 2230.35 L3925.84 2202.02 L3935.19 2202.02 L3935.19 2271.14 L3925.84 2271.14 L3925.84 2238.22 L3891.85 2238.22 L3891.85 2271.14 L3882.5 2271.14 L3882.5 2202.02 Z" fill="#000000" fill-rule="nonzero" fill-opacity="1" /><path clip-path="url(#clip860)" d="M3952.73 2202.02 L3962.13 2202.02 L3962.13 2244.01 Q3962.13 2255.12 3966.16 2260.02 Q3970.19 2264.89 3979.21 2264.89 Q3988.2 2264.89 3992.22 2260.02 Q3996.25 2255.12 3996.25 2244.01 L3996.25 2202.02 L4005.65 2202.02 L4005.65 2245.16 Q4005.65 2258.68 3998.94 2265.58 Q3992.27 2272.48 3979.21 2272.48 Q3966.11 2272.48 3959.4 2265.58 Q3952.73 2258.68 3952.73 2245.16 L3952.73 2202.02 Z" fill="#000000" fill-rule="nonzero" fill-opacity="1" /><path clip-path="url(#clip860)" d="M4064.63 2204.28 L4064.63 2213.4 Q4059.31 2210.86 4054.58 2209.61 Q4049.86 2208.36 4045.46 2208.36 Q4037.83 2208.36 4033.66 2211.32 Q4029.54 2214.28 4029.54 2219.75 Q4029.54 2224.33 4032.27 2226.69 Q4035.05 2229.01 4042.73 2230.44 L4048.38 2231.6 Q4058.84 2233.59 4063.8 2238.64 Q4068.8 2243.64 4068.8 2252.06 Q4068.8 2262.11 4062.04 2267.29 Q4055.33 2272.48 4042.32 2272.48 Q4037.41 2272.48 4031.85 2271.37 Q4026.34 2270.26 4020.42 2268.08 L4020.42 2258.45 Q4026.11 2261.65 4031.58 2263.27 Q4037.04 2264.89 4042.32 2264.89 Q4050.33 2264.89 4054.68 2261.74 Q4059.03 2258.59 4059.03 2252.76 Q4059.03 2247.66 4055.88 2244.79 Q4052.78 2241.92 4045.65 2240.49 L4039.95 2239.38 Q4029.49 2237.29 4024.82 2232.85 Q4020.14 2228.4 4020.14 2220.49 Q4020.14 2211.32 4026.58 2206.04 Q4033.06 2200.77 4044.4 2200.77 Q4049.26 2200.77 4054.31 2201.65 Q4059.35 2202.53 4064.63 2204.28 Z" fill="#000000" fill-rule="nonzero" fill-opacity="1" /><path clip-path="url(#clip860)" d="M3710.67 2302.87 Q3704.47 2313.52 3701.46 2323.94 Q3698.45 2334.35 3698.45 2345.05 Q3698.45 2355.74 3701.46 2366.25 Q3704.52 2376.71 3710.67 2387.32 L3703.27 2387.32 Q3696.32 2376.44 3692.85 2365.93 Q3689.42 2355.42 3689.42 2345.05 Q3689.42 2334.72 3692.85 2324.26 Q3696.28 2313.8 3703.27 2302.87 L3710.67 2302.87 Z" fill="#000000" fill-rule="nonzero" fill-opacity="1" /><path clip-path="url(#clip860)" d="M3736.92 2341.81 L3736.92 2367.13 L3751.92 2367.13 Q3759.47 2367.13 3763.08 2364.03 Q3766.74 2360.88 3766.74 2354.45 Q3766.74 2347.96 3763.08 2344.91 Q3759.47 2341.81 3751.92 2341.81 L3736.92 2341.81 M3736.92 2313.38 L3736.92 2334.21 L3750.77 2334.21 Q3757.62 2334.21 3760.95 2331.67 Q3764.33 2329.08 3764.33 2323.8 Q3764.33 2318.57 3760.95 2315.97 Q3757.62 2313.38 3750.77 2313.38 L3736.92 2313.38 M3727.57 2305.7 L3751.46 2305.7 Q3762.16 2305.7 3767.94 2310.14 Q3773.73 2314.58 3773.73 2322.78 Q3773.73 2329.12 3770.77 2332.87 Q3767.8 2336.62 3762.06 2337.55 Q3768.96 2339.03 3772.76 2343.75 Q3776.6 2348.43 3776.6 2355.46 Q3776.6 2364.72 3770.3 2369.77 Q3764.01 2374.82 3752.39 2374.82 L3727.57 2374.82 L3727.57 2305.7 Z" fill="#000000" fill-rule="nonzero" fill-opacity="1" /><path clip-path="url(#clip860)" d="M3793.36 2331.76 L3852.71 2331.76 L3852.71 2339.54 L3793.36 2339.54 L3793.36 2331.76 M3793.36 2350.65 L3852.71 2350.65 L3852.71 2358.52 L3793.36 2358.52 L3793.36 2350.65 Z" fill="#000000" fill-rule="nonzero" fill-opacity="1" /><path clip-path="url(#clip860)" d="M3874.52 2366.95 L3889.79 2366.95 L3889.79 2314.21 L3873.17 2317.55 L3873.17 2309.03 L3889.7 2305.7 L3899.05 2305.7 L3899.05 2366.95 L3914.33 2366.95 L3914.33 2374.82 L3874.52 2374.82 L3874.52 2366.95 Z" fill="#000000" fill-rule="nonzero" fill-opacity="1" /><path clip-path="url(#clip860)" d="M3930.67 2302.87 L3938.08 2302.87 Q3945.02 2313.8 3948.45 2324.26 Q3951.92 2334.72 3951.92 2345.05 Q3951.92 2355.42 3948.45 2365.93 Q3945.02 2376.44 3938.08 2387.32 L3930.67 2387.32 Q3936.83 2376.71 3939.84 2366.25 Q3942.9 2355.74 3942.9 2345.05 Q3942.9 2334.35 3939.84 2323.94 Q3936.83 2313.52 3930.67 2302.87 Z" fill="#000000" fill-rule="nonzero" fill-opacity="1" /><path clip-path="url(#clip860)" d="M4230.52 2211.23 L4217.83 2245.63 L4243.25 2245.63 L4230.52 2211.23 M4225.24 2202.02 L4235.84 2202.02 L4262.19 2271.14 L4252.46 2271.14 L4246.17 2253.4 L4215.01 2253.4 L4208.71 2271.14 L4198.85 2271.14 L4225.24 2202.02 Z" fill="#000000" fill-rule="nonzero" fill-opacity="1" /><path clip-path="url(#clip860)" d="M4272.28 2202.02 L4281.63 2202.02 L4281.63 2263.27 L4315.29 2263.27 L4315.29 2271.14 L4272.28 2271.14 L4272.28 2202.02 Z" fill="#000000" fill-rule="nonzero" fill-opacity="1" /><path clip-path="url(#clip860)" d="M4334.45 2209.7 L4334.45 2235.67 L4346.21 2235.67 Q4352.74 2235.67 4356.31 2232.29 Q4359.87 2228.91 4359.87 2222.66 Q4359.87 2216.46 4356.31 2213.08 Q4352.74 2209.7 4346.21 2209.7 L4334.45 2209.7 M4325.1 2202.02 L4346.21 2202.02 Q4357.83 2202.02 4363.76 2207.29 Q4369.73 2212.52 4369.73 2222.66 Q4369.73 2232.9 4363.76 2238.13 Q4357.83 2243.36 4346.21 2243.36 L4334.45 2243.36 L4334.45 2271.14 L4325.1 2271.14 L4325.1 2202.02 Z" fill="#000000" fill-rule="nonzero" fill-opacity="1" /><path clip-path="url(#clip860)" d="M4434.04 2207.34 L4434.04 2217.2 Q4429.32 2212.8 4423.94 2210.63 Q4418.62 2208.45 4412.6 2208.45 Q4400.75 2208.45 4394.45 2215.72 Q4388.16 2222.94 4388.16 2236.65 Q4388.16 2250.3 4394.45 2257.57 Q4400.75 2264.79 4412.6 2264.79 Q4418.62 2264.79 4423.94 2262.62 Q4429.32 2260.44 4434.04 2256.04 L4434.04 2265.81 Q4429.13 2269.15 4423.62 2270.81 Q4418.16 2272.48 4412.05 2272.48 Q4396.35 2272.48 4387.32 2262.9 Q4378.3 2253.27 4378.3 2236.65 Q4378.3 2219.98 4387.32 2210.4 Q4396.35 2200.77 4412.05 2200.77 Q4418.25 2200.77 4423.71 2202.43 Q4429.22 2204.05 4434.04 2207.34 Z" fill="#000000" fill-rule="nonzero" fill-opacity="1" /><path clip-path="url(#clip860)" d="M4471.58 2211.23 L4458.9 2245.63 L4484.31 2245.63 L4471.58 2211.23 M4466.31 2202.02 L4476.91 2202.02 L4503.25 2271.14 L4493.53 2271.14 L4487.23 2253.4 L4456.07 2253.4 L4449.78 2271.14 L4439.92 2271.14 L4466.31 2202.02 Z" fill="#000000" fill-rule="nonzero" fill-opacity="1" /><path clip-path="url(#clip860)" d="M4513.34 2202.02 L4522.69 2202.02 L4522.69 2230.35 L4556.68 2230.35 L4556.68 2202.02 L4566.03 2202.02 L4566.03 2271.14 L4556.68 2271.14 L4556.68 2238.22 L4522.69 2238.22 L4522.69 2271.14 L4513.34 2271.14 L4513.34 2202.02 Z" fill="#000000" fill-rule="nonzero" fill-opacity="1" /><path clip-path="url(#clip860)" d="M4583.57 2202.02 L4592.97 2202.02 L4592.97 2244.01 Q4592.97 2255.12 4597 2260.02 Q4601.03 2264.89 4610.05 2264.89 Q4619.04 2264.89 4623.06 2260.02 Q4627.09 2255.12 4627.09 2244.01 L4627.09 2202.02 L4636.49 2202.02 L4636.49 2245.16 Q4636.49 2258.68 4629.78 2265.58 Q4623.11 2272.48 4610.05 2272.48 Q4596.95 2272.48 4590.24 2265.58 Q4583.57 2258.68 4583.57 2245.16 L4583.57 2202.02 Z" fill="#000000" fill-rule="nonzero" fill-opacity="1" /><path clip-path="url(#clip860)" d="M4695.47 2204.28 L4695.47 2213.4 Q4690.15 2210.86 4685.42 2209.61 Q4680.7 2208.36 4676.3 2208.36 Q4668.67 2208.36 4664.5 2211.32 Q4660.38 2214.28 4660.38 2219.75 Q4660.38 2224.33 4663.11 2226.69 Q4665.89 2229.01 4673.57 2230.44 L4679.22 2231.6 Q4689.68 2233.59 4694.64 2238.64 Q4699.64 2243.64 4699.64 2252.06 Q4699.64 2262.11 4692.88 2267.29 Q4686.17 2272.48 4673.16 2272.48 Q4668.25 2272.48 4662.69 2271.37 Q4657.18 2270.26 4651.26 2268.08 L4651.26 2258.45 Q4656.95 2261.65 4662.42 2263.27 Q4667.88 2264.89 4673.16 2264.89 Q4681.17 2264.89 4685.52 2261.74 Q4689.87 2258.59 4689.87 2252.76 Q4689.87 2247.66 4686.72 2244.79 Q4683.62 2241.92 4676.49 2240.49 L4670.8 2239.38 Q4660.33 2237.29 4655.66 2232.85 Q4650.98 2228.4 4650.98 2220.49 Q4650.98 2211.32 4657.42 2206.04 Q4663.9 2200.77 4675.24 2200.77 Q4680.1 2200.77 4685.15 2201.65 Q4690.19 2202.53 4695.47 2204.28 Z" fill="#000000" fill-rule="nonzero" fill-opacity="1" /><polyline clip-path="url(#clip862)" style="stroke:#000000; stroke-linecap:round; stroke-linejoin:round; stroke-width:2; stroke-opacity:0.1; fill:none" points="374.305,1702.98 4752.76,1702.98 "/>
<polyline clip-path="url(#clip862)" style="stroke:#000000; stroke-linecap:round; stroke-linejoin:round; stroke-width:2; stroke-opacity:0.1; fill:none" points="374.305,1222.67 4752.76,1222.67 "/>
<polyline clip-path="url(#clip862)" style="stroke:#000000; stroke-linecap:round; stroke-linejoin:round; stroke-width:2; stroke-opacity:0.1; fill:none" points="374.305,742.354 4752.76,742.354 "/>
<polyline clip-path="url(#clip862)" style="stroke:#000000; stroke-linecap:round; stroke-linejoin:round; stroke-width:2; stroke-opacity:0.1; fill:none" points="374.305,262.041 4752.76,262.041 "/>
<polyline clip-path="url(#clip860)" style="stroke:#000000; stroke-linecap:round; stroke-linejoin:round; stroke-width:4; stroke-opacity:1; fill:none" points="374.305,2146.34 374.305,47.2441 "/>
<polyline clip-path="url(#clip860)" style="stroke:#000000; stroke-linecap:round; stroke-linejoin:round; stroke-width:4; stroke-opacity:1; fill:none" points="374.305,1702.98 393.202,1702.98 "/>
<polyline clip-path="url(#clip860)" style="stroke:#000000; stroke-linecap:round; stroke-linejoin:round; stroke-width:4; stroke-opacity:1; fill:none" points="374.305,1222.67 393.202,1222.67 "/>
<polyline clip-path="url(#clip860)" style="stroke:#000000; stroke-linecap:round; stroke-linejoin:round; stroke-width:4; stroke-opacity:1; fill:none" points="374.305,742.354 393.202,742.354 "/>
<polyline clip-path="url(#clip860)" style="stroke:#000000; stroke-linecap:round; stroke-linejoin:round; stroke-width:4; stroke-opacity:1; fill:none" points="374.305,262.041 393.202,262.041 "/>
<path clip-path="url(#clip860)" d="M191.148 1674.58 Q183.926 1674.58 180.268 1681.71 Q176.657 1688.79 176.657 1703.05 Q176.657 1717.26 180.268 1724.39 Q183.926 1731.48 191.148 1731.48 Q198.416 1731.48 202.027 1724.39 Q205.685 1717.26 205.685 1703.05 Q205.685 1688.79 202.027 1681.71 Q198.416 1674.58 191.148 1674.58 M191.148 1667.17 Q202.768 1667.17 208.879 1676.38 Q215.036 1685.55 215.036 1703.05 Q215.036 1720.5 208.879 1729.72 Q202.768 1738.88 191.148 1738.88 Q179.527 1738.88 173.37 1729.72 Q167.259 1720.5 167.259 1703.05 Q167.259 1685.55 173.37 1676.38 Q179.527 1667.17 191.148 1667.17 Z" fill="#000000" fill-rule="nonzero" fill-opacity="1" /><path clip-path="url(#clip860)" d="M231.472 1725.78 L241.24 1725.78 L241.24 1737.54 L231.472 1737.54 L231.472 1725.78 Z" fill="#000000" fill-rule="nonzero" fill-opacity="1" /><path clip-path="url(#clip860)" d="M269.666 1729.67 L302.305 1729.67 L302.305 1737.54 L258.416 1737.54 L258.416 1729.67 Q263.74 1724.16 272.907 1714.9 Q282.119 1705.6 284.481 1702.91 Q288.971 1697.87 290.73 1694.39 Q292.536 1690.87 292.536 1687.5 Q292.536 1681.99 288.647 1678.51 Q284.805 1675.04 278.601 1675.04 Q274.203 1675.04 269.295 1676.57 Q264.434 1678.1 258.879 1681.2 L258.879 1671.75 Q264.527 1669.49 269.434 1668.33 Q274.342 1667.17 278.416 1667.17 Q289.156 1667.17 295.545 1672.54 Q301.934 1677.91 301.934 1686.89 Q301.934 1691.15 300.314 1695 Q298.74 1698.79 294.527 1703.98 Q293.369 1705.32 287.166 1711.75 Q280.962 1718.14 269.666 1729.67 Z" fill="#000000" fill-rule="nonzero" fill-opacity="1" /><path clip-path="url(#clip860)" d="M186.981 1194.27 Q179.759 1194.27 176.101 1201.39 Q172.49 1208.48 172.49 1222.74 Q172.49 1236.95 176.101 1244.08 Q179.759 1251.16 186.981 1251.16 Q194.25 1251.16 197.861 1244.08 Q201.518 1236.95 201.518 1222.74 Q201.518 1208.48 197.861 1201.39 Q194.25 1194.27 186.981 1194.27 M186.981 1186.86 Q198.601 1186.86 204.712 1196.07 Q210.87 1205.24 210.87 1222.74 Q210.87 1240.19 204.712 1249.4 Q198.601 1258.57 186.981 1258.57 Q175.361 1258.57 169.203 1249.4 Q163.092 1240.19 163.092 1222.74 Q163.092 1205.24 169.203 1196.07 Q175.361 1186.86 186.981 1186.86 Z" fill="#000000" fill-rule="nonzero" fill-opacity="1" /><path clip-path="url(#clip860)" d="M227.305 1245.47 L237.073 1245.47 L237.073 1257.23 L227.305 1257.23 L227.305 1245.47 Z" fill="#000000" fill-rule="nonzero" fill-opacity="1" /><path clip-path="url(#clip860)" d="M283.138 1196.26 L259.527 1233.15 L283.138 1233.15 L283.138 1196.26 M280.684 1188.11 L292.443 1188.11 L292.443 1233.15 L302.305 1233.15 L302.305 1240.93 L292.443 1240.93 L292.443 1257.23 L283.138 1257.23 L283.138 1240.93 L251.934 1240.93 L251.934 1231.9 L280.684 1188.11 Z" fill="#000000" fill-rule="nonzero" fill-opacity="1" /><path clip-path="url(#clip860)" d="M187.629 713.952 Q180.407 713.952 176.75 721.081 Q173.139 728.165 173.139 742.424 Q173.139 756.637 176.75 763.766 Q180.407 770.849 187.629 770.849 Q194.898 770.849 198.509 763.766 Q202.166 756.637 202.166 742.424 Q202.166 728.165 198.509 721.081 Q194.898 713.952 187.629 713.952 M187.629 706.544 Q199.249 706.544 205.361 715.757 Q211.518 724.924 211.518 742.424 Q211.518 759.877 205.361 769.09 Q199.249 778.257 187.629 778.257 Q176.009 778.257 169.852 769.09 Q163.74 759.877 163.74 742.424 Q163.74 724.924 169.852 715.757 Q176.009 706.544 187.629 706.544 Z" fill="#000000" fill-rule="nonzero" fill-opacity="1" /><path clip-path="url(#clip860)" d="M227.953 765.155 L237.722 765.155 L237.722 776.914 L227.953 776.914 L227.953 765.155 Z" fill="#000000" fill-rule="nonzero" fill-opacity="1" /><path clip-path="url(#clip860)" d="M279.249 738.627 Q272.953 738.627 269.249 742.933 Q265.592 747.238 265.592 754.738 Q265.592 762.192 269.249 766.544 Q272.953 770.849 279.249 770.849 Q285.545 770.849 289.203 766.544 Q292.906 762.192 292.906 754.738 Q292.906 747.238 289.203 742.933 Q285.545 738.627 279.249 738.627 M297.814 709.322 L297.814 717.84 Q294.295 716.174 290.684 715.294 Q287.119 714.415 283.601 714.415 Q274.342 714.415 269.434 720.665 Q264.573 726.915 263.879 739.553 Q266.61 735.526 270.731 733.396 Q274.851 731.22 279.805 731.22 Q290.221 731.22 296.24 737.563 Q302.305 743.859 302.305 754.738 Q302.305 765.387 296.008 771.822 Q289.712 778.257 279.249 778.257 Q267.258 778.257 260.916 769.09 Q254.573 759.877 254.573 742.424 Q254.573 726.035 262.351 716.313 Q270.129 706.544 283.231 706.544 Q286.749 706.544 290.314 707.239 Q293.925 707.933 297.814 709.322 Z" fill="#000000" fill-rule="nonzero" fill-opacity="1" /><path clip-path="url(#clip860)" d="M188.138 233.638 Q180.916 233.638 177.259 240.768 Q173.648 247.851 173.648 262.11 Q173.648 276.323 177.259 283.453 Q180.916 290.536 188.138 290.536 Q195.407 290.536 199.018 283.453 Q202.675 276.323 202.675 262.11 Q202.675 247.851 199.018 240.768 Q195.407 233.638 188.138 233.638 M188.138 226.231 Q199.759 226.231 205.87 235.444 Q212.027 244.61 212.027 262.11 Q212.027 279.564 205.87 288.777 Q199.759 297.943 188.138 297.943 Q176.518 297.943 170.361 288.777 Q164.25 279.564 164.25 262.11 Q164.25 244.61 170.361 235.444 Q176.518 226.231 188.138 226.231 Z" fill="#000000" fill-rule="nonzero" fill-opacity="1" /><path clip-path="url(#clip860)" d="M228.462 284.842 L238.231 284.842 L238.231 296.601 L228.462 296.601 L228.462 284.842 Z" fill="#000000" fill-rule="nonzero" fill-opacity="1" /><path clip-path="url(#clip860)" d="M278.601 263.777 Q271.934 263.777 268.092 267.342 Q264.295 270.906 264.295 277.156 Q264.295 283.406 268.092 286.971 Q271.934 290.536 278.601 290.536 Q285.268 290.536 289.11 286.971 Q292.953 283.36 292.953 277.156 Q292.953 270.906 289.11 267.342 Q285.314 263.777 278.601 263.777 M269.249 259.795 Q263.231 258.314 259.851 254.194 Q256.518 250.073 256.518 244.147 Q256.518 235.86 262.397 231.046 Q268.323 226.231 278.601 226.231 Q288.925 226.231 294.805 231.046 Q300.684 235.86 300.684 244.147 Q300.684 250.073 297.305 254.194 Q293.971 258.314 287.999 259.795 Q294.758 261.369 298.508 265.953 Q302.305 270.536 302.305 277.156 Q302.305 287.203 296.147 292.573 Q290.036 297.943 278.601 297.943 Q267.166 297.943 261.008 292.573 Q254.897 287.203 254.897 277.156 Q254.897 270.536 258.694 265.953 Q262.49 261.369 269.249 259.795 M265.823 245.027 Q265.823 250.397 269.157 253.407 Q272.536 256.416 278.601 256.416 Q284.619 256.416 287.999 253.407 Q291.425 250.397 291.425 245.027 Q291.425 239.657 287.999 236.647 Q284.619 233.638 278.601 233.638 Q272.536 233.638 269.157 236.647 Q265.823 239.657 265.823 245.027 Z" fill="#000000" fill-rule="nonzero" fill-opacity="1" /><path clip-path="url(#clip860)" d="M20.5296 1726.67 L50.6278 1737.76 L50.6278 1715.53 L20.5296 1726.67 M12.4683 1731.28 L12.4683 1722.01 L72.9483 1698.96 L72.9483 1707.46 L57.4333 1712.97 L57.4333 1740.24 L72.9483 1745.74 L72.9483 1754.37 L12.4683 1731.28 Z" fill="#000000" fill-rule="nonzero" fill-opacity="1" /><path clip-path="url(#clip860)" d="M27.5782 1700.66 L27.5782 1692.76 L65.6567 1678.58 L27.5782 1664.4 L27.5782 1656.5 L72.9483 1673.52 L72.9483 1683.64 L27.5782 1700.66 Z" fill="#000000" fill-rule="nonzero" fill-opacity="1" /><path clip-path="url(#clip860)" d="M48.3998 1607.41 L52.0456 1607.41 L52.0456 1641.68 Q59.7423 1641.19 63.7932 1637.06 Q67.8036 1632.89 67.8036 1625.47 Q67.8036 1621.18 66.7504 1617.17 Q65.6972 1613.12 63.5907 1609.15 L70.6393 1609.15 Q72.3406 1613.16 73.2318 1617.37 Q74.123 1621.58 74.123 1625.92 Q74.123 1636.78 67.8036 1643.14 Q61.4842 1649.45 50.7088 1649.45 Q39.5688 1649.45 33.0469 1643.46 Q26.4844 1637.42 26.4844 1627.22 Q26.4844 1618.06 32.3987 1612.75 Q38.2725 1607.41 48.3998 1607.41 M46.2123 1614.86 Q40.0955 1614.94 36.4496 1618.3 Q32.8038 1621.63 32.8038 1627.13 Q32.8038 1633.37 36.3281 1637.14 Q39.8524 1640.87 46.2528 1641.43 L46.2123 1614.86 Z" fill="#000000" fill-rule="nonzero" fill-opacity="1" /><path clip-path="url(#clip860)" d="M34.5457 1568.88 Q33.8165 1570.14 33.4925 1571.64 Q33.1279 1573.1 33.1279 1574.88 Q33.1279 1581.2 37.2598 1584.6 Q41.3512 1587.96 49.0479 1587.96 L72.9483 1587.96 L72.9483 1595.46 L27.5782 1595.46 L27.5782 1587.96 L34.6267 1587.96 Q30.4948 1585.61 28.5099 1581.85 Q26.4844 1578.08 26.4844 1572.69 Q26.4844 1571.92 26.6059 1570.99 Q26.687 1570.06 26.8895 1568.92 L34.5457 1568.88 Z" fill="#000000" fill-rule="nonzero" fill-opacity="1" /><path clip-path="url(#clip860)" d="M50.1417 1540.44 Q50.1417 1549.48 52.2077 1552.96 Q54.2736 1556.45 59.2562 1556.45 Q63.2261 1556.45 65.5756 1553.85 Q67.8847 1551.22 67.8847 1546.72 Q67.8847 1540.53 63.5097 1536.8 Q59.0942 1533.03 51.8026 1533.03 L50.1417 1533.03 L50.1417 1540.44 M47.063 1525.58 L72.9483 1525.58 L72.9483 1533.03 L66.0617 1533.03 Q70.1937 1535.58 72.1786 1539.39 Q74.123 1543.2 74.123 1548.71 Q74.123 1555.68 70.2342 1559.81 Q66.3048 1563.9 59.7423 1563.9 Q52.0861 1563.9 48.1973 1558.8 Q44.3084 1553.65 44.3084 1543.48 L44.3084 1533.03 L43.5792 1533.03 Q38.4346 1533.03 35.6395 1536.43 Q32.8038 1539.8 32.8038 1545.91 Q32.8038 1549.8 33.7355 1553.49 Q34.6672 1557.18 36.5307 1560.58 L29.6441 1560.58 Q28.0643 1556.49 27.2946 1552.64 Q26.4844 1548.79 26.4844 1545.14 Q26.4844 1535.3 31.5886 1530.44 Q36.6927 1525.58 47.063 1525.58 Z" fill="#000000" fill-rule="nonzero" fill-opacity="1" /><path clip-path="url(#clip860)" d="M49.7366 1480.37 Q41.6348 1480.37 37.1788 1483.73 Q32.7228 1487.05 32.7228 1493.09 Q32.7228 1499.09 37.1788 1502.45 Q41.6348 1505.77 49.7366 1505.77 Q57.7979 1505.77 62.2539 1502.45 Q66.7099 1499.09 66.7099 1493.09 Q66.7099 1487.05 62.2539 1483.73 Q57.7979 1480.37 49.7366 1480.37 M67.3175 1472.92 Q78.9031 1472.92 84.5339 1478.06 Q90.2051 1483.21 90.2051 1493.82 Q90.2051 1497.75 89.5975 1501.23 Q89.0304 1504.72 87.8151 1508 L80.564 1508 Q82.3464 1504.72 83.1971 1501.52 Q84.0478 1498.32 84.0478 1494.99 Q84.0478 1487.66 80.1994 1484.02 Q76.3916 1480.37 68.6543 1480.37 L64.968 1480.37 Q68.9784 1482.68 70.9633 1486.28 Q72.9483 1489.89 72.9483 1494.91 Q72.9483 1503.26 66.5884 1508.36 Q60.2284 1513.47 49.7366 1513.47 Q39.2043 1513.47 32.8443 1508.36 Q26.4844 1503.26 26.4844 1494.91 Q26.4844 1489.89 28.4694 1486.28 Q30.4543 1482.68 34.4647 1480.37 L27.5782 1480.37 L27.5782 1472.92 L67.3175 1472.92 Z" fill="#000000" fill-rule="nonzero" fill-opacity="1" /><path clip-path="url(#clip860)" d="M48.3998 1418.76 L52.0456 1418.76 L52.0456 1453.03 Q59.7423 1452.54 63.7932 1448.41 Q67.8036 1444.24 67.8036 1436.82 Q67.8036 1432.53 66.7504 1428.52 Q65.6972 1424.47 63.5907 1420.5 L70.6393 1420.5 Q72.3406 1424.51 73.2318 1428.72 Q74.123 1432.93 74.123 1437.27 Q74.123 1448.12 67.8036 1454.48 Q61.4842 1460.8 50.7088 1460.8 Q39.5688 1460.8 33.0469 1454.81 Q26.4844 1448.77 26.4844 1438.56 Q26.4844 1429.41 32.3987 1424.1 Q38.2725 1418.76 48.3998 1418.76 M46.2123 1426.21 Q40.0955 1426.29 36.4496 1429.65 Q32.8038 1432.97 32.8038 1438.48 Q32.8038 1444.72 36.3281 1448.49 Q39.8524 1452.22 46.2528 1452.78 L46.2123 1426.21 Z" fill="#000000" fill-rule="nonzero" fill-opacity="1" /><path clip-path="url(#clip860)" d="M14.4532 1343.57 L22.4335 1343.57 Q20.2055 1348.23 19.1118 1352.36 Q18.018 1356.49 18.018 1360.34 Q18.018 1367.03 20.6106 1370.67 Q23.2032 1374.28 27.9832 1374.28 Q31.9936 1374.28 34.0596 1371.89 Q36.0851 1369.46 37.3408 1362.73 L38.3536 1357.79 Q40.0955 1348.63 44.5109 1344.3 Q48.8859 1339.93 56.2586 1339.93 Q65.049 1339.93 69.586 1345.84 Q74.123 1351.71 74.123 1363.1 Q74.123 1367.39 73.1508 1372.25 Q72.1786 1377.07 70.2747 1382.26 L61.8488 1382.26 Q64.6439 1377.27 66.0617 1372.49 Q67.4796 1367.71 67.4796 1363.1 Q67.4796 1356.09 64.7249 1352.28 Q61.9703 1348.47 56.8662 1348.47 Q52.4102 1348.47 49.8986 1351.23 Q47.3871 1353.94 46.1313 1360.18 L45.1591 1365.16 Q43.3362 1374.32 39.4473 1378.41 Q35.5584 1382.5 28.6314 1382.5 Q20.6106 1382.5 15.9926 1376.87 Q11.3745 1371.2 11.3745 1361.27 Q11.3745 1357.02 12.1442 1352.6 Q12.9139 1348.19 14.4532 1343.57 Z" fill="#000000" fill-rule="nonzero" fill-opacity="1" /><path clip-path="url(#clip860)" d="M55.0433 1328.26 L27.5782 1328.26 L27.5782 1320.8 L54.7597 1320.8 Q61.2007 1320.8 64.4414 1318.29 Q67.6416 1315.78 67.6416 1310.76 Q67.6416 1304.72 63.7932 1301.24 Q59.9449 1297.71 53.3014 1297.71 L27.5782 1297.71 L27.5782 1290.26 L72.9483 1290.26 L72.9483 1297.71 L65.9807 1297.71 Q70.1127 1300.43 72.1381 1304.03 Q74.123 1307.6 74.123 1312.34 Q74.123 1320.16 69.262 1324.21 Q64.4009 1328.26 55.0433 1328.26 M26.4844 1309.5 L26.4844 1309.5 Z" fill="#000000" fill-rule="nonzero" fill-opacity="1" /><path clip-path="url(#clip860)" d="M50.3037 1242.34 Q42.0804 1242.34 37.4219 1245.74 Q32.7228 1249.1 32.7228 1255.02 Q32.7228 1260.93 37.4219 1264.34 Q42.0804 1267.7 50.3037 1267.7 Q58.5271 1267.7 63.2261 1264.34 Q67.8847 1260.93 67.8847 1255.02 Q67.8847 1249.1 63.2261 1245.74 Q58.5271 1242.34 50.3037 1242.34 M34.4647 1267.7 Q30.4138 1265.35 28.4694 1261.78 Q26.4844 1258.18 26.4844 1253.2 Q26.4844 1244.93 33.0469 1239.79 Q39.6093 1234.6 50.3037 1234.6 Q60.9981 1234.6 67.5606 1239.79 Q74.123 1244.93 74.123 1253.2 Q74.123 1258.18 72.1786 1261.78 Q70.1937 1265.35 66.1428 1267.7 L72.9483 1267.7 L72.9483 1275.19 L9.91621 1275.19 L9.91621 1267.7 L34.4647 1267.7 Z" fill="#000000" fill-rule="nonzero" fill-opacity="1" /><path clip-path="url(#clip860)" d="M28.915 1193.32 L35.9635 1193.32 Q34.3432 1196.48 33.533 1199.89 Q32.7228 1203.29 32.7228 1206.93 Q32.7228 1212.48 34.4242 1215.28 Q36.1256 1218.03 39.5283 1218.03 Q42.1209 1218.03 43.6197 1216.05 Q45.0781 1214.06 46.4149 1208.07 L46.982 1205.52 Q48.6834 1197.58 51.8026 1194.25 Q54.8813 1190.89 60.431 1190.89 Q66.7504 1190.89 70.4367 1195.92 Q74.123 1200.9 74.123 1209.65 Q74.123 1213.29 73.3939 1217.26 Q72.7052 1221.19 71.2874 1225.57 L63.5907 1225.57 Q65.7377 1221.44 66.8314 1217.43 Q67.8847 1213.42 67.8847 1209.49 Q67.8847 1204.22 66.1023 1201.38 Q64.2793 1198.55 60.9981 1198.55 Q57.9599 1198.55 56.3396 1200.61 Q54.7192 1202.64 53.2204 1209.57 L52.6127 1212.16 Q51.1544 1219.09 48.1567 1222.17 Q45.1186 1225.24 39.8524 1225.24 Q33.452 1225.24 29.9682 1220.71 Q26.4844 1216.17 26.4844 1207.83 Q26.4844 1203.69 27.092 1200.05 Q27.6997 1196.4 28.915 1193.32 Z" fill="#000000" fill-rule="nonzero" fill-opacity="1" /><path clip-path="url(#clip860)" d="M66.1428 1171.81 L90.2051 1171.81 L90.2051 1179.31 L27.5782 1179.31 L27.5782 1171.81 L34.4647 1171.81 Q30.4138 1169.46 28.4694 1165.9 Q26.4844 1162.29 26.4844 1157.31 Q26.4844 1149.05 33.0469 1143.9 Q39.6093 1138.72 50.3037 1138.72 Q60.9981 1138.72 67.5606 1143.9 Q74.123 1149.05 74.123 1157.31 Q74.123 1162.29 72.1786 1165.9 Q70.1937 1169.46 66.1428 1171.81 M50.3037 1146.45 Q42.0804 1146.45 37.4219 1149.86 Q32.7228 1153.22 32.7228 1159.13 Q32.7228 1165.05 37.4219 1168.45 Q42.0804 1171.81 50.3037 1171.81 Q58.5271 1171.81 63.2261 1168.45 Q67.8847 1165.05 67.8847 1159.13 Q67.8847 1153.22 63.2261 1149.86 Q58.5271 1146.45 50.3037 1146.45 Z" fill="#000000" fill-rule="nonzero" fill-opacity="1" /><path clip-path="url(#clip860)" d="M50.1417 1105.74 Q50.1417 1114.78 52.2077 1118.26 Q54.2736 1121.74 59.2562 1121.74 Q63.2261 1121.74 65.5756 1119.15 Q67.8847 1116.52 67.8847 1112.02 Q67.8847 1105.82 63.5097 1102.1 Q59.0942 1098.33 51.8026 1098.33 L50.1417 1098.33 L50.1417 1105.74 M47.063 1090.88 L72.9483 1090.88 L72.9483 1098.33 L66.0617 1098.33 Q70.1937 1100.88 72.1786 1104.69 Q74.123 1108.5 74.123 1114.01 Q74.123 1120.97 70.2342 1125.11 Q66.3048 1129.2 59.7423 1129.2 Q52.0861 1129.2 48.1973 1124.09 Q44.3084 1118.95 44.3084 1108.78 L44.3084 1098.33 L43.5792 1098.33 Q38.4346 1098.33 35.6395 1101.73 Q32.8038 1105.09 32.8038 1111.21 Q32.8038 1115.1 33.7355 1118.79 Q34.6672 1122.47 36.5307 1125.88 L29.6441 1125.88 Q28.0643 1121.78 27.2946 1117.94 Q26.4844 1114.09 26.4844 1110.44 Q26.4844 1100.6 31.5886 1095.74 Q36.6927 1090.88 47.063 1090.88 Z" fill="#000000" fill-rule="nonzero" fill-opacity="1" /><path clip-path="url(#clip860)" d="M29.32 1042.87 L36.2876 1042.87 Q34.5457 1046.03 33.695 1049.23 Q32.8038 1052.39 32.8038 1055.63 Q32.8038 1062.88 37.4219 1066.89 Q41.9994 1070.9 50.3037 1070.9 Q58.6081 1070.9 63.2261 1066.89 Q67.8036 1062.88 67.8036 1055.63 Q67.8036 1052.39 66.9529 1049.23 Q66.0617 1046.03 64.3199 1042.87 L71.2064 1042.87 Q72.6647 1045.99 73.3939 1049.35 Q74.123 1052.68 74.123 1056.44 Q74.123 1066.69 67.6821 1072.73 Q61.2412 1078.76 50.3037 1078.76 Q39.2043 1078.76 32.8443 1072.69 Q26.4844 1066.57 26.4844 1055.96 Q26.4844 1052.51 27.2136 1049.23 Q27.9022 1045.95 29.32 1042.87 Z" fill="#000000" fill-rule="nonzero" fill-opacity="1" /><path clip-path="url(#clip860)" d="M48.3998 991.102 L52.0456 991.102 L52.0456 1025.37 Q59.7423 1024.89 63.7932 1020.75 Q67.8036 1016.58 67.8036 1009.17 Q67.8036 1004.87 66.7504 1000.86 Q65.6972 996.814 63.5907 992.844 L70.6393 992.844 Q72.3406 996.854 73.2318 1001.07 Q74.123 1005.28 74.123 1009.61 Q74.123 1020.47 67.8036 1026.83 Q61.4842 1033.15 50.7088 1033.15 Q39.5688 1033.15 33.0469 1027.15 Q26.4844 1021.12 26.4844 1010.91 Q26.4844 1001.76 32.3987 996.449 Q38.2725 991.102 48.3998 991.102 M46.2123 998.555 Q40.0955 998.637 36.4496 1002 Q32.8038 1005.32 32.8038 1010.83 Q32.8038 1017.07 36.3281 1020.84 Q39.8524 1024.56 46.2528 1025.13 L46.2123 998.555 Z" fill="#000000" fill-rule="nonzero" fill-opacity="1" /><path clip-path="url(#clip860)" d="M20.5296 931.959 L50.6278 943.058 L50.6278 920.819 L20.5296 931.959 M12.4683 936.577 L12.4683 927.3 L72.9483 904.25 L72.9483 912.757 L57.4333 918.267 L57.4333 945.529 L72.9483 951.038 L72.9483 959.667 L12.4683 936.577 Z" fill="#000000" fill-rule="nonzero" fill-opacity="1" /><path clip-path="url(#clip860)" d="M9.91621 875.732 L16.1141 875.732 L16.1141 882.862 Q16.1141 886.872 17.7345 888.452 Q19.3548 889.991 23.5678 889.991 L27.5782 889.991 L27.5782 877.717 L33.3709 877.717 L33.3709 889.991 L72.9483 889.991 L72.9483 897.485 L33.3709 897.485 L33.3709 904.615 L27.5782 904.615 L27.5782 897.485 L24.4185 897.485 Q16.8433 897.485 13.4 893.961 Q9.91621 890.437 9.91621 882.781 L9.91621 875.732 Z" fill="#000000" fill-rule="nonzero" fill-opacity="1" /><path clip-path="url(#clip860)" d="M9.91621 846.525 L16.1141 846.525 L16.1141 853.655 Q16.1141 857.665 17.7345 859.245 Q19.3548 860.784 23.5678 860.784 L27.5782 860.784 L27.5782 848.51 L33.3709 848.51 L33.3709 860.784 L72.9483 860.784 L72.9483 868.278 L33.3709 868.278 L33.3709 875.408 L27.5782 875.408 L27.5782 868.278 L24.4185 868.278 Q16.8433 868.278 13.4 864.754 Q9.91621 861.23 9.91621 853.574 L9.91621 846.525 Z" fill="#000000" fill-rule="nonzero" fill-opacity="1" /><path clip-path="url(#clip860)" d="M27.5782 840.287 L27.5782 832.833 L72.9483 832.833 L72.9483 840.287 L27.5782 840.287 M9.91621 840.287 L9.91621 832.833 L19.3548 832.833 L19.3548 840.287 L9.91621 840.287 Z" fill="#000000" fill-rule="nonzero" fill-opacity="1" /><path clip-path="url(#clip860)" d="M45.5642 779.523 L72.9483 779.523 L72.9483 786.977 L45.8072 786.977 Q39.3663 786.977 36.1661 789.488 Q32.9659 792 32.9659 797.023 Q32.9659 803.059 36.8142 806.543 Q40.6626 810.026 47.3061 810.026 L72.9483 810.026 L72.9483 817.521 L27.5782 817.521 L27.5782 810.026 L34.6267 810.026 Q30.5353 807.353 28.5099 803.748 Q26.4844 800.102 26.4844 795.362 Q26.4844 787.544 31.3455 783.533 Q36.1661 779.523 45.5642 779.523 Z" fill="#000000" fill-rule="nonzero" fill-opacity="1" /><path clip-path="url(#clip860)" d="M27.5782 764.656 L27.5782 757.203 L72.9483 757.203 L72.9483 764.656 L27.5782 764.656 M9.91621 764.656 L9.91621 757.203 L19.3548 757.203 L19.3548 764.656 L9.91621 764.656 Z" fill="#000000" fill-rule="nonzero" fill-opacity="1" /><path clip-path="url(#clip860)" d="M14.6963 734.234 L27.5782 734.234 L27.5782 718.881 L33.3709 718.881 L33.3709 734.234 L58.0004 734.234 Q63.5502 734.234 65.13 732.735 Q66.7099 731.196 66.7099 726.537 L66.7099 718.881 L72.9483 718.881 L72.9483 726.537 Q72.9483 735.166 69.7481 738.447 Q66.5073 741.728 58.0004 741.728 L33.3709 741.728 L33.3709 747.197 L27.5782 747.197 L27.5782 741.728 L14.6963 741.728 L14.6963 734.234 Z" fill="#000000" fill-rule="nonzero" fill-opacity="1" /><path clip-path="url(#clip860)" d="M77.1612 690.201 Q85.263 693.36 87.7341 696.358 Q90.2051 699.356 90.2051 704.379 L90.2051 710.334 L83.9667 710.334 L83.9667 705.959 Q83.9667 702.88 82.5084 701.179 Q81.0501 699.477 75.6219 697.411 L72.2191 696.074 L27.5782 714.425 L27.5782 706.526 L63.0641 692.348 L27.5782 678.169 L27.5782 670.27 L77.1612 690.201 Z" fill="#000000" fill-rule="nonzero" fill-opacity="1" /><path clip-path="url(#clip860)" d="M12.4683 633.285 L12.4683 595.045 L19.3548 595.045 L19.3548 625.103 L37.2598 625.103 L37.2598 596.301 L44.1464 596.301 L44.1464 625.103 L66.0617 625.103 L66.0617 594.316 L72.9483 594.316 L72.9483 633.285 L12.4683 633.285 Z" fill="#000000" fill-rule="nonzero" fill-opacity="1" /><path clip-path="url(#clip860)" d="M34.5457 554.9 Q33.8165 556.156 33.4925 557.655 Q33.1279 559.113 33.1279 560.896 Q33.1279 567.215 37.2598 570.618 Q41.3512 573.98 49.0479 573.98 L72.9483 573.98 L72.9483 581.474 L27.5782 581.474 L27.5782 573.98 L34.6267 573.98 Q30.4948 571.631 28.5099 567.863 Q26.4844 564.096 26.4844 558.708 Q26.4844 557.939 26.6059 557.007 Q26.687 556.075 26.8895 554.941 L34.5457 554.9 Z" fill="#000000" fill-rule="nonzero" fill-opacity="1" /><path clip-path="url(#clip860)" d="M34.5457 522.25 Q33.8165 523.506 33.4925 525.005 Q33.1279 526.463 33.1279 528.246 Q33.1279 534.565 37.2598 537.968 Q41.3512 541.33 49.0479 541.33 L72.9483 541.33 L72.9483 548.824 L27.5782 548.824 L27.5782 541.33 L34.6267 541.33 Q30.4948 538.98 28.5099 535.213 Q26.4844 531.446 26.4844 526.058 Q26.4844 525.288 26.6059 524.357 Q26.687 523.425 26.8895 522.291 L34.5457 522.25 Z" fill="#000000" fill-rule="nonzero" fill-opacity="1" /><path clip-path="url(#clip860)" d="M32.8038 498.674 Q32.8038 504.669 37.5029 508.153 Q42.1614 511.637 50.3037 511.637 Q58.446 511.637 63.1451 508.194 Q67.8036 504.71 67.8036 498.674 Q67.8036 492.719 63.1046 489.235 Q58.4055 485.752 50.3037 485.752 Q42.2424 485.752 37.5434 489.235 Q32.8038 492.719 32.8038 498.674 M26.4844 498.674 Q26.4844 488.952 32.8038 483.402 Q39.1232 477.852 50.3037 477.852 Q61.4437 477.852 67.8036 483.402 Q74.123 488.952 74.123 498.674 Q74.123 508.437 67.8036 513.986 Q61.4437 519.496 50.3037 519.496 Q39.1232 519.496 32.8038 513.986 Q26.4844 508.437 26.4844 498.674 Z" fill="#000000" fill-rule="nonzero" fill-opacity="1" /><path clip-path="url(#clip860)" d="M34.5457 439.207 Q33.8165 440.462 33.4925 441.961 Q33.1279 443.42 33.1279 445.202 Q33.1279 451.521 37.2598 454.924 Q41.3512 458.286 49.0479 458.286 L72.9483 458.286 L72.9483 465.781 L27.5782 465.781 L27.5782 458.286 L34.6267 458.286 Q30.4948 455.937 28.5099 452.17 Q26.4844 448.402 26.4844 443.014 Q26.4844 442.245 26.6059 441.313 Q26.687 440.381 26.8895 439.247 L34.5457 439.207 Z" fill="#000000" fill-rule="nonzero" fill-opacity="1" /><path clip-path="url(#clip862)" d="M677.815 2050.49 L588.019 2050.49 L767.611 2050.49 L677.815 2050.49 L677.815 1791.58 L677.815 2050.49  Z" fill="#808080" fill-rule="evenodd" fill-opacity="1"/>
<polyline clip-path="url(#clip862)" style="stroke:#000000; stroke-linecap:round; stroke-linejoin:round; stroke-width:4; stroke-opacity:1; fill:none" points="677.815,2050.49 588.019,2050.49 767.611,2050.49 677.815,2050.49 677.815,1791.58 677.815,2050.49 "/>
<path clip-path="url(#clip862)" d="M857.407 1791.58 L857.407 1661.36 L498.223 1661.36 L498.223 1791.58 L857.407 1791.58 L857.407 1661.36 L857.407 1791.58  Z" fill="#808080" fill-rule="evenodd" fill-opacity="1"/>
<polyline clip-path="url(#clip862)" style="stroke:#000000; stroke-linecap:round; stroke-linejoin:round; stroke-width:4; stroke-opacity:1; fill:none" points="857.407,1791.58 857.407,1661.36 498.223,1661.36 498.223,1791.58 857.407,1791.58 857.407,1661.36 857.407,1791.58 "/>
<path clip-path="url(#clip862)" d="M857.407 1329.86 L498.223 1329.86 L498.223 1661.36 L857.407 1661.36 L857.407 1329.86 L677.815 1329.86 L857.407 1329.86  Z" fill="#808080" fill-rule="evenodd" fill-opacity="1"/>
<polyline clip-path="url(#clip862)" style="stroke:#000000; stroke-linecap:round; stroke-linejoin:round; stroke-width:4; stroke-opacity:1; fill:none" points="857.407,1329.86 498.223,1329.86 498.223,1661.36 857.407,1661.36 857.407,1329.86 677.815,1329.86 857.407,1329.86 "/>
<path clip-path="url(#clip862)" d="M677.815 1131.7 L588.019 1131.7 L767.611 1131.7 L677.815 1131.7 L677.815 1329.86 L677.815 1131.7  Z" fill="#808080" fill-rule="evenodd" fill-opacity="1"/>
<polyline clip-path="url(#clip862)" style="stroke:#000000; stroke-linecap:round; stroke-linejoin:round; stroke-width:4; stroke-opacity:1; fill:none" points="677.815,1131.7 588.019,1131.7 767.611,1131.7 677.815,1131.7 677.815,1329.86 677.815,1131.7 "/>
<polyline clip-path="url(#clip862)" style="stroke:#808080; stroke-linecap:round; stroke-linejoin:round; stroke-width:0; stroke-opacity:1; fill:none" points="677.815,2050.49 588.019,2050.49 767.611,2050.49 677.815,2050.49 677.815,1791.58 "/>
<polyline clip-path="url(#clip862)" style="stroke:#808080; stroke-linecap:round; stroke-linejoin:round; stroke-width:0; stroke-opacity:1; fill:none" points="857.407,1791.58 857.407,1661.36 498.223,1661.36 498.223,1791.58 857.407,1791.58 857.407,1661.36 "/>
<polyline clip-path="url(#clip862)" style="stroke:#808080; stroke-linecap:round; stroke-linejoin:round; stroke-width:0; stroke-opacity:1; fill:none" points="857.407,1329.86 498.223,1329.86 498.223,1661.36 857.407,1661.36 857.407,1329.86 677.815,1329.86 "/>
<polyline clip-path="url(#clip862)" style="stroke:#808080; stroke-linecap:round; stroke-linejoin:round; stroke-width:0; stroke-opacity:1; fill:none" points="677.815,1131.7 588.019,1131.7 767.611,1131.7 677.815,1131.7 677.815,1329.86 "/>
<path clip-path="url(#clip862)" d="M1306.39 396.113 L1216.59 396.113 L1396.18 396.113 L1306.39 396.113 L1306.39 249.662 L1306.39 396.113  Z" fill="#8e971d" fill-rule="evenodd" fill-opacity="1"/>
<polyline clip-path="url(#clip862)" style="stroke:#000000; stroke-linecap:round; stroke-linejoin:round; stroke-width:4; stroke-opacity:1; fill:none" points="1306.39,396.113 1216.59,396.113 1396.18,396.113 1306.39,396.113 1306.39,249.662 1306.39,396.113 "/>
<path clip-path="url(#clip862)" d="M1485.98 249.662 L1485.98 155.146 L1126.79 155.146 L1126.79 249.662 L1485.98 249.662 L1485.98 155.146 L1485.98 249.662  Z" fill="#8e971d" fill-rule="evenodd" fill-opacity="1"/>
<polyline clip-path="url(#clip862)" style="stroke:#000000; stroke-linecap:round; stroke-linejoin:round; stroke-width:4; stroke-opacity:1; fill:none" points="1485.98,249.662 1485.98,155.146 1126.79,155.146 1126.79,249.662 1485.98,249.662 1485.98,155.146 1485.98,249.662 "/>
<path clip-path="url(#clip862)" d="M1485.98 151.894 L1126.79 151.894 L1126.79 155.146 L1485.98 155.146 L1485.98 151.894 L1306.39 151.894 L1485.98 151.894  Z" fill="#8e971d" fill-rule="evenodd" fill-opacity="1"/>
<polyline clip-path="url(#clip862)" style="stroke:#000000; stroke-linecap:round; stroke-linejoin:round; stroke-width:4; stroke-opacity:1; fill:none" points="1485.98,151.894 1126.79,151.894 1126.79,155.146 1485.98,155.146 1485.98,151.894 1306.39,151.894 1485.98,151.894 "/>
<path clip-path="url(#clip862)" d="M1306.39 116.702 L1216.59 116.702 L1396.18 116.702 L1306.39 116.702 L1306.39 151.894 L1306.39 116.702  Z" fill="#8e971d" fill-rule="evenodd" fill-opacity="1"/>
<polyline clip-path="url(#clip862)" style="stroke:#000000; stroke-linecap:round; stroke-linejoin:round; stroke-width:4; stroke-opacity:1; fill:none" points="1306.39,116.702 1216.59,116.702 1396.18,116.702 1306.39,116.702 1306.39,151.894 1306.39,116.702 "/>
<polyline clip-path="url(#clip862)" style="stroke:#8e971d; stroke-linecap:round; stroke-linejoin:round; stroke-width:0; stroke-opacity:1; fill:none" points="1306.39,396.113 1216.59,396.113 1396.18,396.113 1306.39,396.113 1306.39,249.662 "/>
<polyline clip-path="url(#clip862)" style="stroke:#8e971d; stroke-linecap:round; stroke-linejoin:round; stroke-width:0; stroke-opacity:1; fill:none" points="1485.98,249.662 1485.98,155.146 1126.79,155.146 1126.79,249.662 1485.98,249.662 1485.98,155.146 "/>
<polyline clip-path="url(#clip862)" style="stroke:#8e971d; stroke-linecap:round; stroke-linejoin:round; stroke-width:0; stroke-opacity:1; fill:none" points="1485.98,151.894 1126.79,151.894 1126.79,155.146 1485.98,155.146 1485.98,151.894 1306.39,151.894 "/>
<polyline clip-path="url(#clip862)" style="stroke:#8e971d; stroke-linecap:round; stroke-linejoin:round; stroke-width:0; stroke-opacity:1; fill:none" points="1306.39,116.702 1216.59,116.702 1396.18,116.702 1306.39,116.702 1306.39,151.894 "/>
<path clip-path="url(#clip862)" d="M1934.96 2064.57 L1845.16 2064.57 L2024.75 2064.57 L1934.96 2064.57 L1934.96 1199.8 L1934.96 2064.57  Z" fill="#3da44d" fill-rule="evenodd" fill-opacity="1"/>
<polyline clip-path="url(#clip862)" style="stroke:#000000; stroke-linecap:round; stroke-linejoin:round; stroke-width:4; stroke-opacity:1; fill:none" points="1934.96,2064.57 1845.16,2064.57 2024.75,2064.57 1934.96,2064.57 1934.96,1199.8 1934.96,2064.57 "/>
<path clip-path="url(#clip862)" d="M2114.55 1199.8 L2114.55 411.181 L1755.37 411.181 L1755.37 1199.8 L2114.55 1199.8 L2114.55 411.181 L2114.55 1199.8  Z" fill="#3da44d" fill-rule="evenodd" fill-opacity="1"/>
<polyline clip-path="url(#clip862)" style="stroke:#000000; stroke-linecap:round; stroke-linejoin:round; stroke-width:4; stroke-opacity:1; fill:none" points="2114.55,1199.8 2114.55,411.181 1755.37,411.181 1755.37,1199.8 2114.55,1199.8 2114.55,411.181 2114.55,1199.8 "/>
<path clip-path="url(#clip862)" d="M2114.55 200.813 L1755.37 200.813 L1755.37 411.181 L2114.55 411.181 L2114.55 200.813 L1934.96 200.813 L2114.55 200.813  Z" fill="#3da44d" fill-rule="evenodd" fill-opacity="1"/>
<polyline clip-path="url(#clip862)" style="stroke:#000000; stroke-linecap:round; stroke-linejoin:round; stroke-width:4; stroke-opacity:1; fill:none" points="2114.55,200.813 1755.37,200.813 1755.37,411.181 2114.55,411.181 2114.55,200.813 1934.96,200.813 2114.55,200.813 "/>
<path clip-path="url(#clip862)" d="M1934.96 110.762 L1845.16 110.762 L2024.75 110.762 L1934.96 110.762 L1934.96 200.813 L1934.96 110.762  Z" fill="#3da44d" fill-rule="evenodd" fill-opacity="1"/>
<polyline clip-path="url(#clip862)" style="stroke:#000000; stroke-linecap:round; stroke-linejoin:round; stroke-width:4; stroke-opacity:1; fill:none" points="1934.96,110.762 1845.16,110.762 2024.75,110.762 1934.96,110.762 1934.96,200.813 1934.96,110.762 "/>
<polyline clip-path="url(#clip862)" style="stroke:#3da44d; stroke-linecap:round; stroke-linejoin:round; stroke-width:0; stroke-opacity:1; fill:none" points="1934.96,2064.57 1845.16,2064.57 2024.75,2064.57 1934.96,2064.57 1934.96,1199.8 "/>
<polyline clip-path="url(#clip862)" style="stroke:#3da44d; stroke-linecap:round; stroke-linejoin:round; stroke-width:0; stroke-opacity:1; fill:none" points="2114.55,1199.8 2114.55,411.181 1755.37,411.181 1755.37,1199.8 2114.55,1199.8 2114.55,411.181 "/>
<polyline clip-path="url(#clip862)" style="stroke:#3da44d; stroke-linecap:round; stroke-linejoin:round; stroke-width:0; stroke-opacity:1; fill:none" points="2114.55,200.813 1755.37,200.813 1755.37,411.181 2114.55,411.181 2114.55,200.813 1934.96,200.813 "/>
<polyline clip-path="url(#clip862)" style="stroke:#3da44d; stroke-linecap:round; stroke-linejoin:round; stroke-width:0; stroke-opacity:1; fill:none" points="1934.96,110.762 1845.16,110.762 2024.75,110.762 1934.96,110.762 1934.96,200.813 "/>
<path clip-path="url(#clip862)" d="M2563.53 1833.56 L2473.73 1833.56 L2653.33 1833.56 L2563.53 1833.56 L2563.53 1054.54 L2563.53 1833.56  Z" fill="#c271d2" fill-rule="evenodd" fill-opacity="1"/>
<polyline clip-path="url(#clip862)" style="stroke:#000000; stroke-linecap:round; stroke-linejoin:round; stroke-width:4; stroke-opacity:1; fill:none" points="2563.53,1833.56 2473.73,1833.56 2653.33,1833.56 2563.53,1833.56 2563.53,1054.54 2563.53,1833.56 "/>
<path clip-path="url(#clip862)" d="M2743.12 1054.54 L2743.12 719.709 L2383.94 719.709 L2383.94 1054.54 L2743.12 1054.54 L2743.12 719.709 L2743.12 1054.54  Z" fill="#c271d2" fill-rule="evenodd" fill-opacity="1"/>
<polyline clip-path="url(#clip862)" style="stroke:#000000; stroke-linecap:round; stroke-linejoin:round; stroke-width:4; stroke-opacity:1; fill:none" points="2743.12,1054.54 2743.12,719.709 2383.94,719.709 2383.94,1054.54 2743.12,1054.54 2743.12,719.709 2743.12,1054.54 "/>
<path clip-path="url(#clip862)" d="M2743.12 275.409 L2383.94 275.409 L2383.94 719.709 L2743.12 719.709 L2743.12 275.409 L2563.53 275.409 L2743.12 275.409  Z" fill="#c271d2" fill-rule="evenodd" fill-opacity="1"/>
<polyline clip-path="url(#clip862)" style="stroke:#000000; stroke-linecap:round; stroke-linejoin:round; stroke-width:4; stroke-opacity:1; fill:none" points="2743.12,275.409 2383.94,275.409 2383.94,719.709 2743.12,719.709 2743.12,275.409 2563.53,275.409 2743.12,275.409 "/>
<path clip-path="url(#clip862)" d="M2563.53 142.599 L2473.73 142.599 L2653.33 142.599 L2563.53 142.599 L2563.53 275.409 L2563.53 142.599  Z" fill="#c271d2" fill-rule="evenodd" fill-opacity="1"/>
<polyline clip-path="url(#clip862)" style="stroke:#000000; stroke-linecap:round; stroke-linejoin:round; stroke-width:4; stroke-opacity:1; fill:none" points="2563.53,142.599 2473.73,142.599 2653.33,142.599 2563.53,142.599 2563.53,275.409 2563.53,142.599 "/>
<polyline clip-path="url(#clip862)" style="stroke:#c271d2; stroke-linecap:round; stroke-linejoin:round; stroke-width:0; stroke-opacity:1; fill:none" points="2563.53,1833.56 2473.73,1833.56 2653.33,1833.56 2563.53,1833.56 2563.53,1054.54 "/>
<polyline clip-path="url(#clip862)" style="stroke:#c271d2; stroke-linecap:round; stroke-linejoin:round; stroke-width:0; stroke-opacity:1; fill:none" points="2743.12,1054.54 2743.12,719.709 2383.94,719.709 2383.94,1054.54 2743.12,1054.54 2743.12,719.709 "/>
<polyline clip-path="url(#clip862)" style="stroke:#c271d2; stroke-linecap:round; stroke-linejoin:round; stroke-width:0; stroke-opacity:1; fill:none" points="2743.12,275.409 2383.94,275.409 2383.94,719.709 2743.12,719.709 2743.12,275.409 2563.53,275.409 "/>
<polyline clip-path="url(#clip862)" style="stroke:#c271d2; stroke-linecap:round; stroke-linejoin:round; stroke-width:0; stroke-opacity:1; fill:none" points="2563.53,142.599 2473.73,142.599 2653.33,142.599 2563.53,142.599 2563.53,275.409 "/>
<path clip-path="url(#clip862)" d="M3192.1 2035.18 L3102.31 2035.18 L3281.9 2035.18 L3192.1 2035.18 L3192.1 1605.51 L3192.1 2035.18  Z" fill="#009af9" fill-rule="evenodd" fill-opacity="1"/>
<polyline clip-path="url(#clip862)" style="stroke:#000000; stroke-linecap:round; stroke-linejoin:round; stroke-width:4; stroke-opacity:1; fill:none" points="3192.1,2035.18 3102.31,2035.18 3281.9,2035.18 3192.1,2035.18 3192.1,1605.51 3192.1,2035.18 "/>
<path clip-path="url(#clip862)" d="M3371.69 1605.51 L3371.69 1167.25 L3012.51 1167.25 L3012.51 1605.51 L3371.69 1605.51 L3371.69 1167.25 L3371.69 1605.51  Z" fill="#009af9" fill-rule="evenodd" fill-opacity="1"/>
<polyline clip-path="url(#clip862)" style="stroke:#000000; stroke-linecap:round; stroke-linejoin:round; stroke-width:4; stroke-opacity:1; fill:none" points="3371.69,1605.51 3371.69,1167.25 3012.51,1167.25 3012.51,1605.51 3371.69,1605.51 3371.69,1167.25 3371.69,1605.51 "/>
<path clip-path="url(#clip862)" d="M3371.69 987.011 L3012.51 987.011 L3012.51 1167.25 L3371.69 1167.25 L3371.69 987.011 L3192.1 987.011 L3371.69 987.011  Z" fill="#009af9" fill-rule="evenodd" fill-opacity="1"/>
<polyline clip-path="url(#clip862)" style="stroke:#000000; stroke-linecap:round; stroke-linejoin:round; stroke-width:4; stroke-opacity:1; fill:none" points="3371.69,987.011 3012.51,987.011 3012.51,1167.25 3371.69,1167.25 3371.69,987.011 3192.1,987.011 3371.69,987.011 "/>
<path clip-path="url(#clip862)" d="M3192.1 450.908 L3102.31 450.908 L3281.9 450.908 L3192.1 450.908 L3192.1 987.011 L3192.1 450.908  Z" fill="#009af9" fill-rule="evenodd" fill-opacity="1"/>
<polyline clip-path="url(#clip862)" style="stroke:#000000; stroke-linecap:round; stroke-linejoin:round; stroke-width:4; stroke-opacity:1; fill:none" points="3192.1,450.908 3102.31,450.908 3281.9,450.908 3192.1,450.908 3192.1,987.011 3192.1,450.908 "/>
<polyline clip-path="url(#clip862)" style="stroke:#009af9; stroke-linecap:round; stroke-linejoin:round; stroke-width:0; stroke-opacity:1; fill:none" points="3192.1,2035.18 3102.31,2035.18 3281.9,2035.18 3192.1,2035.18 3192.1,1605.51 "/>
<polyline clip-path="url(#clip862)" style="stroke:#009af9; stroke-linecap:round; stroke-linejoin:round; stroke-width:0; stroke-opacity:1; fill:none" points="3371.69,1605.51 3371.69,1167.25 3012.51,1167.25 3012.51,1605.51 3371.69,1605.51 3371.69,1167.25 "/>
<polyline clip-path="url(#clip862)" style="stroke:#009af9; stroke-linecap:round; stroke-linejoin:round; stroke-width:0; stroke-opacity:1; fill:none" points="3371.69,987.011 3012.51,987.011 3012.51,1167.25 3371.69,1167.25 3371.69,987.011 3192.1,987.011 "/>
<polyline clip-path="url(#clip862)" style="stroke:#009af9; stroke-linecap:round; stroke-linejoin:round; stroke-width:0; stroke-opacity:1; fill:none" points="3192.1,450.908 3102.31,450.908 3281.9,450.908 3192.1,450.908 3192.1,987.011 "/>
<path clip-path="url(#clip862)" d="M3820.67 2086.93 L3730.88 2086.93 L3910.47 2086.93 L3820.67 2086.93 L3820.67 1697.94 L3820.67 2086.93  Z" fill="#e26f46" fill-rule="evenodd" fill-opacity="1"/>
<polyline clip-path="url(#clip862)" style="stroke:#000000; stroke-linecap:round; stroke-linejoin:round; stroke-width:4; stroke-opacity:1; fill:none" points="3820.67,2086.93 3730.88,2086.93 3910.47,2086.93 3820.67,2086.93 3820.67,1697.94 3820.67,2086.93 "/>
<path clip-path="url(#clip862)" d="M4000.27 1697.94 L4000.27 1288.88 L3641.08 1288.88 L3641.08 1697.94 L4000.27 1697.94 L4000.27 1288.88 L4000.27 1697.94  Z" fill="#e26f46" fill-rule="evenodd" fill-opacity="1"/>
<polyline clip-path="url(#clip862)" style="stroke:#000000; stroke-linecap:round; stroke-linejoin:round; stroke-width:4; stroke-opacity:1; fill:none" points="4000.27,1697.94 4000.27,1288.88 3641.08,1288.88 3641.08,1697.94 4000.27,1697.94 4000.27,1288.88 4000.27,1697.94 "/>
<path clip-path="url(#clip862)" d="M4000.27 546.478 L3641.08 546.478 L3641.08 1288.88 L4000.27 1288.88 L4000.27 546.478 L3820.67 546.478 L4000.27 546.478  Z" fill="#e26f46" fill-rule="evenodd" fill-opacity="1"/>
<polyline clip-path="url(#clip862)" style="stroke:#000000; stroke-linecap:round; stroke-linejoin:round; stroke-width:4; stroke-opacity:1; fill:none" points="4000.27,546.478 3641.08,546.478 3641.08,1288.88 4000.27,1288.88 4000.27,546.478 3820.67,546.478 4000.27,546.478 "/>
<path clip-path="url(#clip862)" d="M3820.67 106.652 L3730.88 106.652 L3910.47 106.652 L3820.67 106.652 L3820.67 546.478 L3820.67 106.652  Z" fill="#e26f46" fill-rule="evenodd" fill-opacity="1"/>
<polyline clip-path="url(#clip862)" style="stroke:#000000; stroke-linecap:round; stroke-linejoin:round; stroke-width:4; stroke-opacity:1; fill:none" points="3820.67,106.652 3730.88,106.652 3910.47,106.652 3820.67,106.652 3820.67,546.478 3820.67,106.652 "/>
<polyline clip-path="url(#clip862)" style="stroke:#e26f46; stroke-linecap:round; stroke-linejoin:round; stroke-width:0; stroke-opacity:1; fill:none" points="3820.67,2086.93 3730.88,2086.93 3910.47,2086.93 3820.67,2086.93 3820.67,1697.94 "/>
<polyline clip-path="url(#clip862)" style="stroke:#e26f46; stroke-linecap:round; stroke-linejoin:round; stroke-width:0; stroke-opacity:1; fill:none" points="4000.27,1697.94 4000.27,1288.88 3641.08,1288.88 3641.08,1697.94 4000.27,1697.94 4000.27,1288.88 "/>
<polyline clip-path="url(#clip862)" style="stroke:#e26f46; stroke-linecap:round; stroke-linejoin:round; stroke-width:0; stroke-opacity:1; fill:none" points="4000.27,546.478 3641.08,546.478 3641.08,1288.88 4000.27,1288.88 4000.27,546.478 3820.67,546.478 "/>
<polyline clip-path="url(#clip862)" style="stroke:#e26f46; stroke-linecap:round; stroke-linejoin:round; stroke-width:0; stroke-opacity:1; fill:none" points="3820.67,106.652 3730.88,106.652 3910.47,106.652 3820.67,106.652 3820.67,546.478 "/>
<path clip-path="url(#clip862)" d="M4449.25 2069.43 L4359.45 2069.43 L4539.04 2069.43 L4449.25 2069.43 L4449.25 1767.11 L4449.25 2069.43  Z" fill="#f05f73" fill-rule="evenodd" fill-opacity="1"/>
<polyline clip-path="url(#clip862)" style="stroke:#000000; stroke-linecap:round; stroke-linejoin:round; stroke-width:4; stroke-opacity:1; fill:none" points="4449.25,2069.43 4359.45,2069.43 4539.04,2069.43 4449.25,2069.43 4449.25,1767.11 4449.25,2069.43 "/>
<path clip-path="url(#clip862)" d="M4628.84 1767.11 L4628.84 1569.11 L4269.65 1569.11 L4269.65 1767.11 L4628.84 1767.11 L4628.84 1569.11 L4628.84 1767.11  Z" fill="#f05f73" fill-rule="evenodd" fill-opacity="1"/>
<polyline clip-path="url(#clip862)" style="stroke:#000000; stroke-linecap:round; stroke-linejoin:round; stroke-width:4; stroke-opacity:1; fill:none" points="4628.84,1767.11 4628.84,1569.11 4269.65,1569.11 4269.65,1767.11 4628.84,1767.11 4628.84,1569.11 4628.84,1767.11 "/>
<path clip-path="url(#clip862)" d="M4628.84 1234.75 L4269.65 1234.75 L4269.65 1569.11 L4628.84 1569.11 L4628.84 1234.75 L4449.25 1234.75 L4628.84 1234.75  Z" fill="#f05f73" fill-rule="evenodd" fill-opacity="1"/>
<polyline clip-path="url(#clip862)" style="stroke:#000000; stroke-linecap:round; stroke-linejoin:round; stroke-width:4; stroke-opacity:1; fill:none" points="4628.84,1234.75 4269.65,1234.75 4269.65,1569.11 4628.84,1569.11 4628.84,1234.75 4449.25,1234.75 4628.84,1234.75 "/>
<path clip-path="url(#clip862)" d="M4449.25 667.833 L4359.45 667.833 L4539.04 667.833 L4449.25 667.833 L4449.25 1234.75 L4449.25 667.833  Z" fill="#f05f73" fill-rule="evenodd" fill-opacity="1"/>
<polyline clip-path="url(#clip862)" style="stroke:#000000; stroke-linecap:round; stroke-linejoin:round; stroke-width:4; stroke-opacity:1; fill:none" points="4449.25,667.833 4359.45,667.833 4539.04,667.833 4449.25,667.833 4449.25,1234.75 4449.25,667.833 "/>
<polyline clip-path="url(#clip862)" style="stroke:#f05f73; stroke-linecap:round; stroke-linejoin:round; stroke-width:0; stroke-opacity:1; fill:none" points="4449.25,2069.43 4359.45,2069.43 4539.04,2069.43 4449.25,2069.43 4449.25,1767.11 "/>
<polyline clip-path="url(#clip862)" style="stroke:#f05f73; stroke-linecap:round; stroke-linejoin:round; stroke-width:0; stroke-opacity:1; fill:none" points="4628.84,1767.11 4628.84,1569.11 4269.65,1569.11 4269.65,1767.11 4628.84,1767.11 4628.84,1569.11 "/>
<polyline clip-path="url(#clip862)" style="stroke:#f05f73; stroke-linecap:round; stroke-linejoin:round; stroke-width:0; stroke-opacity:1; fill:none" points="4628.84,1234.75 4269.65,1234.75 4269.65,1569.11 4628.84,1569.11 4628.84,1234.75 4449.25,1234.75 "/>
<polyline clip-path="url(#clip862)" style="stroke:#f05f73; stroke-linecap:round; stroke-linejoin:round; stroke-width:0; stroke-opacity:1; fill:none" points="4449.25,667.833 4359.45,667.833 4539.04,667.833 4449.25,667.833 4449.25,1234.75 "/>
</svg>
